<?xml version="1.0" encoding="utf-8"?>
<!-- Generator: Adobe Illustrator 19.2.0, SVG Export Plug-In . SVG Version: 6.00 Build 0)  -->
<svg version="1.1" id="Layer_1" xmlns="http://www.w3.org/2000/svg" xmlns:xlink="http://www.w3.org/1999/xlink" x="0px" y="0px"
	 viewBox="0 0 444.9 199" style="enable-background:new 0 0 444.9 199;" xml:space="preserve">
<style type="text/css">
	.st0{fill:#FFFFFF;}
</style>
<g>
	<path class="st0" d="M162,0c-0.1,2.2-0.4,4.3-0.4,6.5c0,53.8-0.1,107.6,0.1,161.4c0,4.6-1.1,6-5.8,5.9c-11.1-0.3-22.3-0.4-33.5,0
		c-5.4,0.2-6.2-1.7-6.2-6.5c0.2-28.6,0.1-57.3,0.1-85.9c0-2,0-3.9,0-7.3c-2.3,1.3-4.1,1.8-5,3c-9.5,12.2-18.9,24.6-28.9,37.7
		c-3.9-4.9-7.5-9.4-11.1-14c-6-7.7-11.8-15.5-17.9-23.1c-1.1-1.4-2.9-2.1-5.7-4.1c0,3.6,0,5.5,0,7.5c0,29-0.1,58,0.1,86.9
		c0,4.6-1.2,5.9-5.8,5.9c-14-0.2-28,0.1-41.9,0.2C0,116,0,58,0,0c15.4,0,30.7,0,46,0c0.8,1.9,1.2,4.1,2.3,5.7
		C58.2,19.2,68.2,32.6,78.2,46c4,5.3,4.3,5.4,8,0.4c9.7-13,19.3-26.1,28.8-39.2c1.6-2.2,2.7-4.8,4-7.2C133.3,0,147.6,0,162,0z"/>
	<path class="st0" d="M200,199c-8.5-17.5-16.9-34.9-21.3-54.1c-8.3-36.5-4.7-71.1,16.6-102.6c15.2-22.5,37.3-35,63.7-38.8
		c16.2-2.3,32.8-1.7,49.3-2.2c1.3,0,3.5,1.4,3.9,2.5c3.6,11.3,7,22.8,10.7,35.1c-2.3,0-4,0-5.8,0c-14.1,0.3-28.3,0.5-42.4,1
		c-21.3,0.8-39.9,14.1-46.8,33.2c-0.6,1.7-1,3.5-1.6,5.7c1.8,0.2,3.3,0.4,4.7,0.4c11.3,0,22.7-0.2,34,0.1c4.5,0.1,5.7-1.4,5.5-5.7
		c-0.3-9.1-0.1-18.3-0.1-27.9c14.6,0,29,0,43.8,0c0.1,1.9,0.4,3.8,0.4,5.8c0,38.7-0.1,77.3,0.1,116c0,4.8-1.4,6.4-6.2,6.2
		c-10.5-0.3-21-0.2-31.5,0c-3.7,0.1-5-1.2-4.9-4.9c0.2-14.7-0.1-29.3,0.1-44c0.1-4.5-1.3-6.1-6-6c-13.5,0.3-27,0.2-40.5,0
		c-3.7,0-4.9,1-4.9,4.8c-0.1,12.3,3.7,23.5,8.5,34.5c2.3,5.3,5,10.5,7.7,16.3c-5.5,3.7-11,7.3-16.4,11c-6.6,4.5-13.1,9.1-19.6,13.6
		C200.6,199,200.3,199,200,199z"/>
	<path class="st0" d="M444.9,138c-1.1,1.4-2.7,2.6-3.2,4.1c-3.1,9-5.8,18.2-9.1,27.2c-0.7,1.8-3.2,4.1-4.9,4.1
		c-29,0.2-57.9,0.2-86.9,0.2c-0.6,0-1.3-0.2-2.3-0.4c-0.1-1.8-0.2-3.6-0.2-5.4c0-53.3,0.1-106.6-0.1-159.8c0-4.8,1.5-5.8,6-5.7
		c10.5,0.3,21,0.3,31.5,0c4.7-0.2,6.2,1.1,6.2,6c-0.2,39.5-0.1,78.9-0.1,118.4c0,9.9-1.2,8.6,8.9,8.6c18.1,0,36.3-0.2,54.4-0.3
		C444.9,136,444.9,137,444.9,138z"/>
</g>
</svg>
