<?xml version="1.0" encoding="utf-8"?>
<!-- Generator: Adobe Illustrator 19.2.0, SVG Export Plug-In . SVG Version: 6.00 Build 0)  -->
<svg version="1.1"
	 id="Layer_1" xmlns:cc="http://creativecommons.org/ns#" xmlns:dc="http://purl.org/dc/elements/1.1/" xmlns:rdf="http://www.w3.org/1999/02/22-rdf-syntax-ns#" xmlns:svg="http://www.w3.org/2000/svg"
	 xmlns="http://www.w3.org/2000/svg" xmlns:xlink="http://www.w3.org/1999/xlink" x="0px" y="0px" viewBox="0 0 223.9 102.3"
	 style="enable-background:new 0 0 223.9 102.3;" xml:space="preserve">
<style type="text/css">
	.st0{fill:#FFFFFF;}
</style>
<path id="Gears" class="st0" d="M209.9,30.3c0,9-7.3,16.3-16.3,16.3c-9,0-16.3-7.3-16.3-16.3S184.7,14,193.6,14
	C202.6,14,209.9,21.3,209.9,30.3z M193.6,0c-16.7,0-30.2,13.4-30.3,30.1l-18.9,27.1c-0.8-0.1-1.6-0.1-2.3-0.1
	c-4.2,0-8.2,1.2-11.6,3.2L44.8,25.8C42.5,15.6,33.5,8,22.7,8C10.2,8,0,18.2,0,30.7c0,12.5,10.2,22.7,22.7,22.7
	c4.2,0,8.2-1.2,11.6-3.2l85.6,34.4c2.2,10.2,11.3,17.8,22.1,17.8c11.7,0,21.4-9,22.5-20.4l29.1-21.2c16.8,0,30.3-13.6,30.3-30.3
	C223.9,13.6,210.3,0,193.6,0z M193.6,10c11.2,0,20.3,9.1,20.3,20.3c0,11.2-9.1,20.3-20.3,20.3c-11.2,0-20.3-9.1-20.3-20.3
	C173.2,19.1,182.3,10,193.6,10z M22.7,14c6.4,0,11.9,3.6,14.7,8.8l-8.3-3.3v0C22.4,17.1,15,20.4,12.3,27s0.4,14.1,6.9,17v0l7,2.8
	c-1.2,0.3-2.4,0.4-3.6,0.4C13.4,47.3,6,39.9,6,30.7S13.4,14,22.7,14z M142,63c9.2,0,16.7,7.4,16.7,16.7c0,9.2-7.4,16.7-16.7,16.7
	c-6.4,0-12-3.6-14.8-8.9c2.7,1.1,5.5,2.2,8.2,3.3c6.8,2.7,14.5-0.6,17.3-7.3c2.7-6.8-0.6-14.5-7.4-17.2l-6.9-2.8
	C139.5,63.2,140.7,63,142,63z"/>
</svg>
