<?xml version="1.0" encoding="utf-8"?>
<!-- Generator: Adobe Illustrator 22.1.0, SVG Export Plug-In . SVG Version: 6.00 Build 0)  -->
<svg version="1.1" id="Selected_Items" xmlns="http://www.w3.org/2000/svg" xmlns:xlink="http://www.w3.org/1999/xlink" x="0px"
	 y="0px" viewBox="0 0 67 66.7" style="enable-background:new 0 0 67 66.7;" xml:space="preserve">
<style type="text/css">
	.st0{fill:#FFFFFF;}
</style>
<g>
	<path class="st0" d="M63.2,0H3.8c-1,0-1.9,0.3-2.6,1S0.1,2.6,0.1,3.6V63c0,1,0.4,1.9,1.1,2.6c0.7,0.7,1.6,1.1,2.6,1.1h32V40.8h-8.7
		v-10h8.7v-7.4c0-4.2,1.2-7.5,3.6-9.9c2.3-2.3,5.5-3.5,9.4-3.5c1.6,0,3.2,0,4.9,0.2c1.3,0.1,2.2,0.2,2.9,0.3v9h-5.4
		c-1.9,0-3.3,0.5-4,1.4c-0.6,0.7-0.9,1.9-0.9,3.5v6.4h9.9l-1.3,10h-8.6v25.9h17c1,0,1.9-0.4,2.6-1.1S67,64,67,63V3.6
		c0-1-0.4-1.9-1.1-2.6C65,0.3,64.2,0,63.2,0z"/>
	<path class="st0" d="M63.2,0c1,0,1.9,0.3,2.6,1s1.1,1.6,1.1,2.6V63c0,1-0.4,1.9-1.1,2.6s-1.6,1.1-2.6,1.1h-17V40.8h8.6l1.3-10h-9.9
		v-6.5c0-1.6,0.3-2.8,0.9-3.5c0.8-0.9,2.1-1.4,4-1.4h5.4v-9c-0.6-0.1-1.6-0.2-2.9-0.3c-1.7-0.1-3.3-0.2-4.9-0.2
		c-3.9,0-7.1,1.2-9.4,3.5c-2.4,2.4-3.6,5.7-3.6,9.9v7.5H27v10h8.7v25.9h-32c-1,0-1.9-0.4-2.6-1.1C0.4,64.9,0,64,0,63V3.6
		c0-1,0.4-1.9,1.1-2.6c0.7-0.7,1.6-1,2.6-1C3.7,0,63.2,0,63.2,0z"/>
</g>
</svg>
