<?xml version="1.0" encoding="utf-8"?>
<!-- Generator: Adobe Illustrator 19.1.0, SVG Export Plug-In . SVG Version: 6.00 Build 0)  -->
<svg version="1.1" id="Selected_Items" xmlns="http://www.w3.org/2000/svg" xmlns:xlink="http://www.w3.org/1999/xlink" x="0px"
	 y="0px" viewBox="0 0 86.5 86.5" style="enable-background:new 0 0 86.5 86.5;" xml:space="preserve">
<style type="text/css">
	.st0{fill-rule:evenodd;clip-rule:evenodd;fill:#51609D;}
	.st1{fill-rule:evenodd;clip-rule:evenodd;fill:#FFFFFF;}
</style>
<g>
	<path class="st0" d="M86.5,86.5H0V0h86.5V86.5z M73.2,9.2H13.8c-1,0-1.9,0.3-2.6,1c-0.7,0.7-1.1,1.6-1.1,2.6v59.4
		c0,1,0.4,1.9,1.1,2.6c0.7,0.7,1.6,1.1,2.6,1.1h32V50h-8.7V40h8.7v-7.4c0-4.2,1.2-7.5,3.6-9.9c2.3-2.3,5.5-3.5,9.4-3.5
		c1.6,0,3.2,0,4.9,0.2c1.3,0.1,2.2,0.2,2.9,0.3v9h-5.4c-1.9,0-3.3,0.5-4,1.4c-0.6,0.7-0.9,1.9-0.9,3.5V40h9.9l-1.3,10h-8.6v25.9h17
		c1,0,1.9-0.4,2.6-1.1c0.7-0.7,1.1-1.6,1.1-2.6V12.8c0-1-0.4-1.9-1.1-2.6C75,9.5,74.2,9.2,73.2,9.2z"/>
	<path class="st1" d="M73.2,9.2c1,0,1.9,0.3,2.6,1c0.7,0.7,1.1,1.6,1.1,2.6v59.4c0,1-0.4,1.9-1.1,2.6c-0.7,0.7-1.6,1.1-2.6,1.1h-17
		V50h8.6l1.3-10h-9.9v-6.5c0-1.6,0.3-2.8,0.9-3.5c0.8-0.9,2.1-1.4,4-1.4h5.4v-9c-0.6-0.1-1.6-0.2-2.9-0.3c-1.7-0.1-3.3-0.2-4.9-0.2
		c-3.9,0-7.1,1.2-9.4,3.5c-2.4,2.4-3.6,5.7-3.6,9.9V40h-8.7v10h8.7v25.9h-32c-1,0-1.9-0.4-2.6-1.1c-0.7-0.7-1.1-1.6-1.1-2.6V12.8
		c0-1,0.4-1.9,1.1-2.6c0.7-0.7,1.6-1,2.6-1H73.2z"/>
</g>
</svg>
