<?xml version="1.0" encoding="utf-8"?>
<!-- Generator: Adobe Illustrator 22.1.0, SVG Export Plug-In . SVG Version: 6.00 Build 0)  -->
<svg version="1.1" id="Layer_1" xmlns="http://www.w3.org/2000/svg" xmlns:xlink="http://www.w3.org/1999/xlink" x="0px" y="0px"
	 viewBox="0 0 24 24" style="enable-background:new 0 0 24 24;" xml:space="preserve">
<style type="text/css">
	.st0{fill:#FFFFFF;}
</style>
<path class="st0" d="M14,9h5.5L14,3.5V9 M7,2h8l6,6v12c0,1.1-0.9,2-2,2H7c-1.1,0-2-0.9-2-2V4C5,2.9,5.9,2,7,2 M11.9,12.4
	c0.4,0.9,0.9,1.6,1.5,2.2l0.4,0.3c-0.9,0.2-2.1,0.4-3.3,0.9l0,0l-0.1,0l0.5-1C11.4,14,11.7,13.2,11.9,12.4 M18.4,16.3
	c0.2-0.2,0.3-0.4,0.3-0.7c0-0.2,0-0.4-0.1-0.6c-0.3-0.5-1-0.7-2.3-0.7L15,14.4l-0.9-0.6c-0.6-0.5-1.2-1.4-1.6-2.6l0-0.1
	c0.3-1.3,0.6-2.9,0-3.6c-0.2-0.2-0.4-0.2-0.6-0.2h-0.2c-0.4,0-0.7,0.4-0.8,0.8c-0.4,1.3-0.1,2.1,0.2,3.3v0c-0.3,0.9-0.6,1.9-1.1,2.9
	l-1,1.8l-0.9,0.5c-1.2,0.8-1.8,1.6-1.9,2.1c0,0.2,0,0.4,0,0.5l0,0.1l0.5,0.3l0.4,0.1c0.8,0,1.7-1,3-3.1l0.2-0.1c1-0.3,2.3-0.6,4-0.7
	c1,0.5,2.2,0.7,3,0.7C17.9,16.5,18.2,16.4,18.4,16.3 M18,15.5l0.1,0.1c0,0.1,0,0.1-0.1,0.1h0l-0.2,0c-0.5,0-1.2-0.2-1.9-0.5
	c0.1-0.1,0.1-0.1,0.2-0.1C17.5,15.2,17.9,15.4,18,15.5 M8.8,17c-0.6,1.2-1.2,1.9-1.7,2c0.1-0.4,0.5-1,1.2-1.7L8.8,17 M11.9,10.1
	c-0.2-0.9-0.2-1.6-0.1-2.1l0.1-0.1L12,8c0.2,0.2,0.2,0.6,0.1,1.1l0,0.2L11.9,10.1L11.9,10.1z"/>
</svg>
