<?xml version="1.0" encoding="utf-8"?>
<!-- Generator: Adobe Illustrator 19.2.0, SVG Export Plug-In . SVG Version: 6.00 Build 0)  -->
<svg version="1.1" id="Layer_1" xmlns="http://www.w3.org/2000/svg" xmlns:xlink="http://www.w3.org/1999/xlink" x="0px" y="0px"
	 viewBox="0 0 351.8 223.4" style="enable-background:new 0 0 351.8 223.4;" xml:space="preserve">
<style type="text/css">
	.st0{fill:#FFFFFF;}
</style>
<g>
	<path class="st0" d="M0,110c1.2-8.3,1.8-16.8,3.9-24.9C15.2,39.3,51.8,6.8,98.4,0.9c33.2-4.1,62.3,5.4,87.6,27
		c0.4,0.3,0.6,0.8,0.1,0.1c-10.8,11.1-21.4,22.1-31.9,33C116.1,31.9,71,49,54.1,81.3C36.6,115,51.6,157,86.8,171.9
		c33.6,14.2,74.6-3.1,86-36.7c-20.5,0-40.9,0-61.6,0c0-15.9,0-31.2,0-46.9c1.6-0.1,3-0.2,4.5-0.2c33.7,0,67.3,0,101-0.1
		c3.6,0,5,0.7,5.7,4.8c9.7,59.5-27.9,115.2-86.7,128.1C74.4,234.2,13.1,193.1,2.1,131.2c-1.1-6-1.4-12.1-2.1-18.2C0,112,0,111,0,110
		z"/>
	<path class="st0" d="M351.8,120.3c-12.8,0-25.1,0-38,0c0,12.9,0,25.4,0,38.3c-9.8,0-19.1,0-28.8,0c0-12.5,0-25,0-38.3
		c-13.2,0-25.9,0-38.8,0c0-9.8,0-18.9,0-28.8c12.7,0,25.3,0,38.5,0c0-13.2,0-25.6,0-38.4c9.7,0,19,0,28.9,0c0,12.6,0,25.1,0,38.2
		c13.1,0,25.5,0,38.2,0C351.8,101.2,351.8,110.4,351.8,120.3z"/>
</g>
</svg>
