<?xml version="1.0" encoding="utf-8"?>
<!-- Generator: Adobe Illustrator 19.1.0, SVG Export Plug-In . SVG Version: 6.00 Build 0)  -->
<svg version="1.1" id="Selected_Items" xmlns="http://www.w3.org/2000/svg" xmlns:xlink="http://www.w3.org/1999/xlink" x="0px"
	 y="0px" viewBox="0 0 86.5 86.5" style="enable-background:new 0 0 86.5 86.5;" xml:space="preserve">
<style type="text/css">
	.st0{fill-rule:evenodd;clip-rule:evenodd;fill:#2D5B81;}
	.st1{fill-rule:evenodd;clip-rule:evenodd;fill:#FFFFFF;}
</style>
<g>
	<path class="st0" d="M86.5,86.5H0V0h86.5V86.5z M62.8,38h5.7V65c0,2-1,3-3,3H21.1c-2,0-2.9-1-2.9-3V38h5.6c-0.8,4-0.7,7.7,0.3,11
		c1.1,3.4,3.1,6.5,6.1,9.2c2,1.7,4.1,3,6.5,3.8c2.3,0.8,4.8,1.1,7.4,1c3.2-0.2,6-0.9,8.6-2.3c2.6-1.4,4.8-3.3,6.7-5.8
		C63.1,49.9,64.2,44.3,62.8,38z M43.3,30.4c1.7,0,3.3,0.3,4.9,0.9c1.5,0.6,2.8,1.5,4,2.7c1.1,1.1,2,2.5,2.6,4c0.7,1.5,1,3.2,1,4.9
		c0,1.7-0.3,3.4-1,4.9c-0.6,1.5-1.5,2.8-2.6,4c-1.2,1.1-2.5,2-4,2.7c-1.6,0.7-3.2,1-4.9,1c-1.7,0-3.3-0.3-4.9-1
		c-1.5-0.6-2.8-1.5-4-2.7c-1.1-1.2-2-2.5-2.7-4c-0.6-1.5-1-3.2-1-4.9c0-1.7,0.3-3.3,1-4.9c0.6-1.5,1.5-2.8,2.7-4
		c1.1-1.1,2.4-2,3.9-2.6C39.9,30.7,41.5,30.4,43.3,30.4z M67.7,18.5c0.5,0.5,0.8,1.2,0.8,2c0,2.4,0,4.8,0,7.2c0,0.8-0.3,1.4-0.8,1.9
		c-0.5,0.5-1.1,0.7-1.9,0.8c-2.4,0-4.9,0-7.3,0c-0.8,0-1.4-0.3-1.9-0.7c-0.5-0.5-0.7-1.1-0.7-1.9v-7.3c0-0.8,0.2-1.4,0.7-1.9
		c0.5-0.5,1.1-0.8,1.9-0.8c2.9,0,5.4,0,7.3,0C66.5,17.8,67.2,18,67.7,18.5z M74.3,13c-1.1-1.4-2.6-2.3-4.5-2.6c0,0-0.1,0-0.1-0.1
		c-0.1,0-0.1-0.1-0.1-0.1H17c-0.3,0.1-0.5,0.2-0.5,0.2c-3.1,0.8-5,2.8-5.8,5.8c0,0,0,0.2-0.1,0.4V69c0,0.1,0.1,0.3,0.2,0.6
		c0.1,0.3,0.1,0.5,0.1,0.6c1,2.8,2.9,4.6,5.8,5.2c0.1,0,0.2,0,0.4,0.1h52.3l1-0.3c1.6-0.4,2.9-1.3,4-2.6c1-1.4,1.5-2.9,1.5-4.6V17.9
		C75.9,16,75.4,14.4,74.3,13z"/>
	<path class="st1" d="M74.3,13c1.1,1.4,1.7,3,1.7,4.9v50.2c0,1.7-0.5,3.2-1.5,4.6c-1,1.3-2.4,2.2-4,2.6l-1,0.3H17.2
		c-0.2-0.1-0.3-0.1-0.4-0.1c-2.9-0.6-4.8-2.4-5.8-5.2c0-0.1-0.1-0.3-0.1-0.6c-0.1-0.3-0.2-0.5-0.2-0.6V16.7c0.1-0.2,0.1-0.3,0.1-0.4
		c0.7-3.1,2.7-5,5.8-5.8c0,0,0.2-0.1,0.5-0.2h52.5c0,0,0,0.1,0.1,0.1c0.1,0,0.1,0.1,0.1,0.1C71.6,10.8,73.1,11.7,74.3,13z
		 M67.7,18.5c-0.5-0.5-1.1-0.8-1.9-0.8c-1.9,0-4.4,0-7.3,0c-0.8,0-1.4,0.3-1.9,0.8c-0.5,0.5-0.7,1.1-0.7,1.9v7.3
		c0,0.8,0.2,1.4,0.7,1.9c0.5,0.4,1.1,0.7,1.9,0.7c2.4,0,4.9,0,7.3,0c0.8,0,1.4-0.3,1.9-0.8c0.5-0.5,0.7-1.1,0.8-1.9
		c0-2.4,0-4.8,0-7.2C68.4,19.7,68.2,19,67.7,18.5z M43.3,30.4c-1.7,0-3.4,0.3-4.9,1c-1.5,0.6-2.8,1.5-3.9,2.6
		c-1.2,1.2-2.1,2.5-2.7,4c-0.6,1.5-1,3.2-1,4.9c0,1.7,0.3,3.4,1,4.9c0.7,1.5,1.6,2.8,2.7,4c1.2,1.2,2.5,2.1,4,2.7
		c1.6,0.6,3.2,1,4.9,1c1.7,0,3.3-0.3,4.9-1c1.5-0.6,2.8-1.5,4-2.7c1.1-1.2,2-2.5,2.6-4c0.7-1.5,1-3.2,1-4.9c0-1.7-0.3-3.3-1-4.9
		c-0.6-1.5-1.5-2.9-2.6-4c-1.2-1.2-2.5-2.1-4-2.7C46.6,30.7,45,30.4,43.3,30.4z M62.8,38c1.5,6.3,0.4,12-3.3,17
		c-1.9,2.5-4.1,4.5-6.7,5.8c-2.6,1.3-5.4,2.1-8.6,2.3c-2.6,0.1-5.1-0.3-7.4-1c-2.3-0.8-4.5-2.1-6.5-3.8c-3-2.7-5.1-5.7-6.1-9.2
		c-1-3.3-1.1-7-0.3-11h-5.6v27.1c0,2,1,3,2.9,3h44.3c2,0,3-1,3-3V38H62.8z"/>
</g>
</svg>
