<?xml version="1.0" encoding="utf-8"?>
<!-- Generator: Adobe Illustrator 22.1.0, SVG Export Plug-In . SVG Version: 6.00 Build 0)  -->
<svg version="1.1"
	 id="svg2" inkscape:output_extension="org.inkscape.output.svg.inkscape" inkscape:version="0.47 r22583" sodipodi:docname="lastfm.svg" sodipodi:version="0.32" xmlns:cc="http://creativecommons.org/ns#" xmlns:dc="http://purl.org/dc/elements/1.1/" xmlns:inkscape="http://www.inkscape.org/namespaces/inkscape" xmlns:rdf="http://www.w3.org/1999/02/22-rdf-syntax-ns#" xmlns:sodipodi="http://sodipodi.sourceforge.net/DTD/sodipodi-0.dtd" xmlns:svg="http://www.w3.org/2000/svg"
	 xmlns="http://www.w3.org/2000/svg" xmlns:xlink="http://www.w3.org/1999/xlink" x="0px" y="0px" viewBox="0 0 197.3 122.3"
	 style="enable-background:new 0 0 197.3 122.3;" xml:space="preserve">
<style type="text/css">
	.st0{fill:none;stroke:#FFFFFF;stroke-width:18;}
	.st1{fill:#FFFFFF;}
</style>
<sodipodi:namedview  bordercolor="#666666" borderopacity="1.0" id="base" inkscape:current-layer="layer1" inkscape:cx="204.06241" inkscape:cy="175.00448" inkscape:document-units="px" inkscape:pageopacity="0.0" inkscape:pageshadow="2" inkscape:window-height="556" inkscape:window-maximized="0" inkscape:window-width="867" inkscape:window-x="0" inkscape:window-y="0" inkscape:zoom="0.35" pagecolor="#ffffff" showgrid="false">
	</sodipodi:namedview>
<g id="layer1" transform="translate(-373.642,-318.344)" inkscape:groupmode="layer" inkscape:label="Layer 1">
	<path id="path26100" sodipodi:nodetypes="cccccccccccc" class="st0" d="M467.6,418.1c-8.3,9.6-20,13.5-33.9,13.6
		c-34.3,1.2-50.3-29.5-51.1-52.9c0.2-22.8,19.1-50.8,50-51.4c22.1,0.6,37.7,7.3,50.4,40.4c5.3,13.8,8.9,24.5,14.6,36.8
		c9.8,20.2,22,26.7,33.6,27.1c12.4,0.1,31.2-7.9,30.7-29.6c-0.6-17.1-18.8-23.5-28.9-26.4c-12-3-23.1-7.2-26.1-25.4
		c-1-9.2,6.5-22.7,22.1-22.9c6.7,0.2,11.9,0.1,17.1,5"/>
	<path id="path26102" sodipodi:nodetypes="ccccc" class="st1" d="M551.5,325c2.9,2.4,4.2,4.9,8.3,10.5l-14.3,10.9
		c-1.6-2.8-2.7-5.3-5.9-7.7L551.5,325L551.5,325z"/>
	<path id="path26104" sodipodi:nodetypes="ccccc" class="st1" d="M473.6,424.8c2.3-2.8,4.3-5.7,5.6-8.8l-9.3-16.7
		c-2.6,4.9-6.1,9.3-9.8,13.6L473.6,424.8z"/>
</g>
</svg>
