<?xml version="1.0" encoding="utf-8"?>
<!-- Generator: Adobe Illustrator 19.1.0, SVG Export Plug-In . SVG Version: 6.00 Build 0)  -->
<svg version="1.1" id="Selected_Items" xmlns="http://www.w3.org/2000/svg" xmlns:xlink="http://www.w3.org/1999/xlink" x="0px"
	 y="0px" viewBox="0 0 86.5 86.5" style="enable-background:new 0 0 86.5 86.5;" xml:space="preserve">
<style type="text/css">
	.st0{fill-rule:evenodd;clip-rule:evenodd;fill:#5FA9DD;}
	.st1{fill-rule:evenodd;clip-rule:evenodd;fill:#FFFFFF;}
</style>
<g>
	<path class="st0" d="M86.5,86.5H0V0h86.5V86.5z M78.4,16.5c-2.9,1.7-6,2.9-9.3,3.5c-1.3-1.4-2.9-2.5-4.7-3.3
		c-1.9-0.8-3.9-1.3-6-1.3c-4,0-7.4,1.4-10.3,4.3c-2.8,2.8-4.3,6.3-4.3,10.3c0,1.1,0.1,2.2,0.3,3.3c-6-0.3-11.6-1.8-16.8-4.5
		c-5.1-2.7-9.5-6.2-13.2-10.7c-1.3,2.3-2,4.7-2,7.3c0,2.5,0.6,4.8,1.8,7c1.1,2.1,2.7,3.8,4.7,5.1c-2.4-0.1-4.6-0.7-6.6-1.8v0.2
		c0,3.5,1.1,6.6,3.3,9.3c2.2,2.7,5,4.3,8.4,5c-1.3,0.3-2.6,0.5-3.9,0.5c-0.9,0-1.8-0.1-2.8-0.3c0.9,2.9,2.6,5.3,5.1,7.2
		c2.5,1.9,5.3,2.9,8.5,2.9c-2.5,2-5.3,3.5-8.4,4.6c-3.1,1.1-6.4,1.6-9.8,1.6c-1.2,0-2.3-0.1-3.5-0.2c3.3,2.1,6.8,3.7,10.6,4.8
		c3.8,1.2,7.8,1.8,11.8,1.8c6.5,0,12.4-1.3,17.8-3.8c5-2.3,9.3-5.6,13-9.8c3.4-3.9,6.1-8.4,8-13.4c1.8-4.8,2.7-9.7,2.7-14.6
		c0-0.6,0-1.3,0-1.9c2.9-2.1,5.3-4.6,7.3-7.5c-2.7,1.2-5.5,1.9-8.4,2.3c1.5-0.9,2.9-2,4-3.5C77,19.7,77.8,18.2,78.4,16.5z"/>
	<path class="st1" d="M78.4,16.5c-0.6,1.7-1.4,3.2-2.5,4.6c-1.1,1.4-2.4,2.6-4,3.5c2.9-0.4,5.7-1.1,8.4-2.3c-2,3-4.4,5.5-7.3,7.5
		c0,0.6,0,1.3,0,1.9c0,4.9-0.9,9.8-2.7,14.6c-1.9,5-4.5,9.5-8,13.4c-3.7,4.2-8,7.4-13,9.8c-5.4,2.5-11.3,3.8-17.8,3.8
		c-4,0-8-0.6-11.8-1.8c-3.7-1.1-7.3-2.7-10.6-4.8c1.2,0.1,2.3,0.2,3.5,0.2c3.4,0,6.6-0.5,9.8-1.6c3-1.1,5.8-2.6,8.4-4.6
		c-3.2-0.1-6-1-8.5-2.9c-2.5-1.9-4.2-4.3-5.1-7.2c0.9,0.2,1.8,0.3,2.8,0.3c1.3,0,2.6-0.2,3.9-0.5c-3.4-0.7-6.1-2.3-8.4-5
		c-2.2-2.7-3.3-5.8-3.3-9.3v-0.2c2,1.1,4.2,1.7,6.6,1.8c-2-1.3-3.6-3-4.7-5.1c-1.2-2.2-1.8-4.5-1.8-7c0-2.6,0.7-5,2-7.3
		c3.7,4.5,8.1,8,13.2,10.7c5.3,2.7,10.9,4.2,16.8,4.5c-0.2-1.1-0.3-2.2-0.3-3.3c0-4,1.4-7.5,4.3-10.3c2.9-2.9,6.3-4.3,10.3-4.3
		c2.1,0,4,0.4,6,1.3c1.8,0.8,3.4,1.9,4.7,3.3C72.4,19.4,75.5,18.2,78.4,16.5z"/>
</g>
</svg>
