<?xml version="1.0" encoding="utf-8"?>
<!-- Generator: Adobe Illustrator 22.1.0, SVG Export Plug-In . SVG Version: 6.00 Build 0)  -->
<svg version="1.1" id="Selected_Items" xmlns="http://www.w3.org/2000/svg" xmlns:xlink="http://www.w3.org/1999/xlink" x="0px"
	 y="0px" viewBox="0 0 71.2 57.7" style="enable-background:new 0 0 71.2 57.7;" xml:space="preserve">
<style type="text/css">
	.st0{fill:#FFFFFF;}
</style>
<g>
	<path class="st0" d="M69.3,0.9c-0.6,1.7-1.4,3.2-2.5,4.6s-2.4,2.6-4,3.5c2.9-0.4,5.7-1.1,8.4-2.3c-2,3-4.4,5.5-7.3,7.5
		c0,0.6,0,1.3,0,1.9c0,4.9-0.9,9.8-2.7,14.6c-1.9,5-4.5,9.5-8,13.4c-3.7,4.2-8,7.4-13,9.8c-5.4,2.5-11.3,3.8-17.8,3.8
		c-4,0-8-0.6-11.8-1.8C6.9,54.8,3.3,53.2,0,51.1c1.2,0.1,2.3,0.2,3.5,0.2c3.4,0,6.6-0.5,9.8-1.6c3-1.1,5.8-2.6,8.4-4.6
		c-3.2-0.1-6-1-8.5-2.9S9,37.9,8.1,35c0.9,0.2,1.8,0.3,2.8,0.3c1.3,0,2.6-0.2,3.9-0.5c-3.4-0.7-6.1-2.3-8.4-5
		c-2.2-2.7-3.3-5.8-3.3-9.3v-0.2c2,1.1,4.2,1.7,6.6,1.8c-2-1.3-3.6-3-4.7-5.1c-1.2-2.2-1.8-4.5-1.8-7c0-2.6,0.7-5,2-7.3
		c3.7,4.5,8.1,8,13.2,10.7c5.3,2.7,10.9,4.2,16.8,4.5c-0.2-1.1-0.3-2.2-0.3-3.3c0-4,1.4-7.5,4.3-10.3C42.1,1.4,45.5,0,49.5,0
		c2.1,0,4,0.4,6,1.3c1.8,0.8,3.4,1.9,4.7,3.3C63.3,3.8,66.4,2.6,69.3,0.9z"/>
</g>
</svg>
