<?xml version="1.0" encoding="utf-8"?>
<!-- Generator: Adobe Illustrator 19.2.0, SVG Export Plug-In . SVG Version: 6.00 Build 0)  -->
<svg version="1.1"
	 id="svg2985" inkscape:version="0.91pre4 r13712" sodipodi:docname="Xbox Logo1.svg" xmlns:cc="http://creativecommons.org/ns#" xmlns:dc="http://purl.org/dc/elements/1.1/" xmlns:inkscape="http://www.inkscape.org/namespaces/inkscape" xmlns:rdf="http://www.w3.org/1999/02/22-rdf-syntax-ns#" xmlns:sodipodi="http://sodipodi.sourceforge.net/DTD/sodipodi-0.dtd" xmlns:svg="http://www.w3.org/2000/svg"
	 xmlns="http://www.w3.org/2000/svg" xmlns:xlink="http://www.w3.org/1999/xlink" x="0px" y="0px" viewBox="0 0 86 86.1"
	 style="enable-background:new 0 0 86 86.1;" xml:space="preserve">
<style type="text/css">
	.st0{fill:#FFFFFF;}
</style>
<title  id="title3507">Xbox Logo</title>
<sodipodi:namedview  bordercolor="#666666" borderopacity="1" fit-margin-bottom="1" fit-margin-left="1" fit-margin-right="1" fit-margin-top="1" gridtolerance="10" guidetolerance="10" id="namedview2987" inkscape:current-layer="svg2985" inkscape:cx="72.80677" inkscape:cy="49.331891" inkscape:pageopacity="0" inkscape:pageshadow="2" inkscape:window-height="1017" inkscape:window-maximized="1" inkscape:window-width="1920" inkscape:window-x="-8" inkscape:window-y="-8" inkscape:zoom="4.2918149" objecttolerance="10" pagecolor="#ffffff" showgrid="false">
	</sodipodi:namedview>
<g id="g4146" transform="matrix(0.23106064,0,0,0.23106064,-1.2020454,3.6254332)">
	<path id="path4148" inkscape:connector-curvature="0" class="st0" d="M172.8,356.1c-28.7-2.7-57.7-13-82.7-29.3
		c-20.9-13.6-25.6-19.2-25.6-30.4c0-22.5,24.7-61.8,67-106.7c24-25.5,57.5-55.4,61.1-54.6c7,1.6,63.3,56.4,84.3,82.2
		c33.3,40.8,48.6,74.2,40.8,89.1c-5.9,11.3-42.6,33.5-69.5,42C226,355.4,196.8,358.4,172.8,356.1z M36.3,273
		c-17.4-26.6-26.1-52.9-30.4-90.8c-1.4-12.5-0.9-19.7,3.2-45.4c5.1-32.1,23.3-69.1,45.3-92c9.3-9.7,10.2-10,21.6-6.1
		c13.8,4.7,28.6,14.9,51.5,35.6l13.4,12.1l-7.3,9c-33.9,41.6-69.6,100.6-83.1,137.1c-7.3,19.8-10.3,39.8-7.1,48
		C45.4,286,43.4,283.9,36.3,273z M341.2,277.5c1.7-8.4-0.5-23.8-5.5-39.3c-11-33.6-47.8-96.1-81.7-138.6l-10.6-13.4l11.5-10.6
		c15-13.8,25.5-22.1,36.7-29.1c8.9-5.5,21.6-10.4,27.1-10.4c3.4,0,15.2,12.3,24.8,25.7c14.8,20.8,25.7,46,31.2,72.2
		c3.6,16.9,3.9,53.2,0.6,70.1c-2.7,13.9-8.4,31.9-14,44.1c-4.2,9.1-14.5,26.9-19.1,32.7C339.9,283.9,339.9,283.9,341.2,277.5
		L341.2,277.5z M175.9,29.8c-15.6-7.9-39.7-16.4-53-18.7c-4.7-0.8-12.6-1.2-17.7-1c-11,0.6-10.5,0,7.1-8.3
		c14.6-6.9,26.8-11,43.4-14.5c18.6-3.9,53.7-4,72-0.1C247.6-8.6,270.9,0,284.1,8.1l3.9,2.4l-9-0.5c-17.8-0.9-43.8,6.3-71.6,19.9
		c-8.4,4.1-15.7,7.4-16.2,7.3C190.6,37.1,183.7,33.8,175.9,29.8z"/>
</g>
</svg>
