<?xml version="1.0" encoding="utf-8"?>
<!-- Generator: Adobe Illustrator 19.1.0, SVG Export Plug-In . SVG Version: 6.00 Build 0)  -->
<svg version="1.1" id="Selected_Items" xmlns="http://www.w3.org/2000/svg" xmlns:xlink="http://www.w3.org/1999/xlink" x="0px"
	 y="0px" viewBox="0 0 86.5 86.5" style="enable-background:new 0 0 86.5 86.5;" xml:space="preserve">
<style type="text/css">
	.st0{fill-rule:evenodd;clip-rule:evenodd;fill:#E52E29;}
	.st1{fill-rule:evenodd;clip-rule:evenodd;fill:#FFFFFF;}
	.st2{fill-rule:evenodd;clip-rule:evenodd;fill:#E1E1E1;}
</style>
<g>
	<path class="st0" d="M86.5,86.5H0V0h86.5V86.5z M68.1,18.3c-4.2-0.3-9.6-0.5-16.3-0.6c-2.1,0-4.2-0.1-6.3-0.1H43
		c-2.5,0-5.4,0-8.7,0.1C27.6,17.8,22.2,18,18,18.3c-0.5,0.1-1,0.1-1.3,0.2c-0.6,0.1-1.2,0.2-1.8,0.4c-1.6,0.4-2.9,1.3-4.1,2.5
		c-0.9,0.9-1.7,2.4-2.3,4.4c-0.2,0.6-0.3,1.3-0.5,2L8,28.5c-0.1,1-0.2,2.2-0.3,3.6c-0.2,2.9-0.3,5.5-0.3,8v5.5c0,2.4,0.1,5,0.3,8
		C7.8,54.8,8,56,8,57c0.1,0.8,0.3,1.8,0.6,2.8c0.6,2,1.3,3.5,2.3,4.3c1.1,1.2,2.6,2,4.3,2.5c0.6,0.1,1.2,0.3,2,0.4
		c1,0.1,1.5,0.2,1.5,0.2c2.4,0.2,7.1,0.4,14.3,0.5c3.6,0.1,6.9,0.2,10,0.2l2.5-0.1c2.1,0,4.1,0,6.3,0c6.7-0.1,12.1-0.3,16.3-0.6
		c0.2,0,0.7-0.1,1.3-0.2c0.6-0.1,1.2-0.2,1.8-0.4c1.6-0.4,2.9-1.3,4.1-2.5c0.9-0.9,1.6-2.3,2.2-4.3c0.3-1,0.5-1.9,0.6-2.8
		c0.1-1,0.3-2.2,0.4-3.6c0.2-2.9,0.4-5.6,0.4-8V40c0-2.4-0.1-5-0.4-8c-0.1-1.4-0.3-2.6-0.4-3.6L78,27.7c-0.1-0.7-0.3-1.3-0.5-2
		c-0.6-2-1.3-3.5-2.2-4.4c-1.2-1.2-2.5-2.1-4.1-2.5c-0.5-0.2-1.1-0.3-1.8-0.4C68.8,18.4,68.3,18.3,68.1,18.3z M35.7,31.9l17,11.3
		l-17,8.8V31.9z"/>
	<path class="st1" d="M68.1,18.3c0.2,0,0.7,0.1,1.3,0.2c0.6,0.1,1.2,0.2,1.8,0.4c1.6,0.4,2.9,1.3,4.1,2.5c0.9,0.9,1.6,2.4,2.2,4.4
		c0.2,0.6,0.4,1.3,0.5,2l0.1,0.8c0.1,1,0.3,2.2,0.4,3.6c0.2,2.9,0.4,5.5,0.4,8v5.5c0,2.4-0.1,5-0.4,8c-0.1,1.4-0.3,2.6-0.4,3.6
		c-0.1,0.8-0.3,1.8-0.6,2.8c-0.6,2-1.3,3.5-2.2,4.3c-1.2,1.2-2.5,2.1-4.1,2.5c-0.5,0.2-1.1,0.3-1.8,0.4c-0.7,0.1-1.1,0.1-1.3,0.2
		c-4.2,0.3-9.6,0.5-16.3,0.6c-2.1,0-4.2,0-6.3,0l-2.5,0.1c-3.1,0-6.4-0.1-10-0.2c-7.2-0.1-11.9-0.3-14.3-0.5c-0.1,0-0.6-0.1-1.5-0.2
		c-0.8-0.1-1.4-0.2-2-0.4c-1.8-0.5-3.2-1.3-4.3-2.5c-0.9-0.9-1.7-2.3-2.3-4.3c-0.3-1-0.5-1.9-0.6-2.8c-0.1-1-0.2-2.2-0.3-3.6
		c-0.2-2.9-0.3-5.6-0.3-8V40c0-2.4,0.1-5,0.3-8C7.8,30.6,8,29.4,8,28.5l0.2-0.8c0.1-0.7,0.3-1.3,0.5-2c0.6-2,1.3-3.5,2.3-4.4
		c1.2-1.2,2.5-2.1,4.1-2.5c0.5-0.2,1.1-0.3,1.8-0.4c0.3,0,0.8-0.1,1.3-0.2c4.2-0.3,9.6-0.5,16.3-0.6c3.3-0.1,6.3-0.1,8.7-0.1h2.6
		c2.1,0,4.1,0.1,6.3,0.1C58.5,17.8,63.9,18,68.1,18.3z M35.7,31.9V52l17-8.8L55,42L35.7,31.9z"/>
	<polygon class="st2" points="52.7,43.3 35.7,31.9 55,42 	"/>
</g>
</svg>
