<?xml version="1.0" encoding="utf-8"?>
<!-- Generator: Adobe Illustrator 22.1.0, SVG Export Plug-In . SVG Version: 6.00 Build 0)  -->
<svg version="1.1" id="Selected_Items" xmlns="http://www.w3.org/2000/svg" xmlns:xlink="http://www.w3.org/1999/xlink" x="0px"
	 y="0px" viewBox="0 0 71.5 50.7" style="enable-background:new 0 0 71.5 50.7;" xml:space="preserve">
<style type="text/css">
	.st0{fill:#FFFFFF;}
</style>
<g>
	<path class="st0" d="M60.7,0.8c0.2,0,0.7,0.1,1.3,0.2c0.6,0.1,1.2,0.2,1.8,0.4c1.6,0.4,2.9,1.3,4.1,2.5c0.9,0.9,1.6,2.4,2.2,4.4
		c0.2,0.6,0.4,1.3,0.5,2l0.1,0.8c0.1,1,0.3,2.2,0.4,3.6c0.2,2.9,0.4,5.5,0.4,8v5.5c0,2.4-0.1,5-0.4,8c-0.1,1.4-0.3,2.6-0.4,3.6
		c-0.1,0.8-0.3,1.8-0.6,2.8c-0.6,2-1.3,3.5-2.2,4.3c-1.2,1.2-2.5,2.1-4.1,2.5c-0.5,0.2-1.1,0.3-1.8,0.4c-0.7,0.1-1.1,0.1-1.3,0.2
		c-4.2,0.3-9.6,0.5-16.3,0.6c-2.1,0-4.2,0-6.3,0l-2.5,0.1c-3.1,0-6.4-0.1-10-0.2c-7.2-0.1-11.9-0.3-14.3-0.5c-0.1,0-0.6-0.1-1.5-0.2
		c-0.8-0.1-1.4-0.2-2-0.4c-1.8-0.5-3.2-1.3-4.3-2.5c-0.9-0.9-1.7-2.3-2.3-4.3c-0.3-1-0.5-1.9-0.6-2.8c-0.1-1-0.2-2.2-0.3-3.6
		c-0.2-2.9-0.3-5.6-0.3-8v-5.7c0-2.4,0.1-5,0.3-8c0.1-1.4,0.3-2.6,0.3-3.5l0.2-0.8c0.1-0.7,0.3-1.3,0.5-2c0.6-2,1.3-3.5,2.3-4.4
		c1.2-1.2,2.5-2.1,4.1-2.5C8.2,1.1,8.8,1,9.5,0.9c0.3,0,0.8-0.1,1.3-0.2c4.2-0.3,9.6-0.5,16.3-0.6C30.4,0,33.4,0,35.8,0h2.6
		c2.1,0,4.1,0.1,6.3,0.1C51.1,0.3,56.5,0.5,60.7,0.8z M28.3,14.4v20.1l17-8.8l2.3-1.2L28.3,14.4z"/>
</g>
</svg>
