<?xml version="1.0" encoding="utf-8"?>
<!-- Generator: Adobe Illustrator 22.1.0, SVG Export Plug-In . SVG Version: 6.00 Build 0)  -->
<svg version="1.1" id="Layer_1" xmlns="http://www.w3.org/2000/svg" xmlns:xlink="http://www.w3.org/1999/xlink" x="0px" y="0px"
	 viewBox="0 0 290.9 365" style="enable-background:new 0 0 290.9 365;" xml:space="preserve">
<style type="text/css">
	.st0{fill:#00C1C1;}
	.st1{fill:url(#XMLID_12_);}
	.st2{fill:url(#XMLID_13_);}
	.st3{fill:url(#XMLID_14_);}
	.st4{fill:url(#XMLID_15_);}
	.st5{opacity:0.9;fill:url(#XMLID_16_);}
	.st6{fill:url(#XMLID_17_);}
	.st7{fill:url(#XMLID_18_);}
	.st8{fill:url(#XMLID_19_);}
	.st9{opacity:0.9;fill:#007C7C;}
</style>
<g>
	<polygon id="XMLID_10_" class="st0" points="199.5,364.9 31,364.9 0,290.8 90.1,259.4 7.8,182.6 92.3,106.3 0,74.3 31,0 199.5,0 
		290.9,182.5 	"/>
	<linearGradient id="XMLID_12_" gradientUnits="userSpaceOnUse" x1="149.3595" y1="107.6203" x2="149.3595" y2="183.444">
		<stop  offset="0" style="stop-color:#00C7C7"/>
		<stop  offset="1" style="stop-color:#00B5B5"/>
	</linearGradient>
	<polygon id="XMLID_9_" class="st1" points="7.8,182.6 290.9,182.5 92.3,106.3 	"/>
	<linearGradient id="XMLID_13_" gradientUnits="userSpaceOnUse" x1="110.0787" y1="63.7997" x2="155.734" y2="147.1668">
		<stop  offset="0" style="stop-color:#009999"/>
		<stop  offset="1" style="stop-color:#005454"/>
	</linearGradient>
	<polygon id="XMLID_8_" class="st2" points="290.9,182.5 124.4,74.3 0,74.3 92.3,106.3 	"/>
	<linearGradient id="XMLID_14_" gradientUnits="userSpaceOnUse" x1="4.7097" y1="55.6853" x2="198.0717" y2="6.5654">
		<stop  offset="0" style="stop-color:#00C7C7"/>
		<stop  offset="0.3542" style="stop-color:#00C1C1"/>
		<stop  offset="0.8307" style="stop-color:#00B0B0"/>
		<stop  offset="1" style="stop-color:#00A8A8"/>
	</linearGradient>
	<polygon id="XMLID_7_" class="st3" points="124.4,74.3 0,74.3 31,0 199.5,0 	"/>
	<linearGradient id="XMLID_15_" gradientUnits="userSpaceOnUse" x1="239.3497" y1="81.3846" x2="209.1226" y2="126.1981">
		<stop  offset="0.85" style="stop-color:#007878"/>
		<stop  offset="0.898" style="stop-color:#007272"/>
		<stop  offset="0.9596" style="stop-color:#006262"/>
		<stop  offset="1" style="stop-color:#005454"/>
	</linearGradient>
	<polygon id="XMLID_6_" class="st4" points="124.4,74.3 199.5,0 290.9,182.5 	"/>
	<linearGradient id="XMLID_16_" gradientUnits="userSpaceOnUse" x1="207.6406" y1="75.3297" x2="207.6406" y2="185.9913">
		<stop  offset="0" style="stop-color:#006B6B"/>
		<stop  offset="1" style="stop-color:#007878"/>
	</linearGradient>
	<polygon id="XMLID_5_" class="st5" points="290.9,182.5 124.4,182.4 124.4,74.3 	"/>
	<linearGradient id="XMLID_17_" gradientUnits="userSpaceOnUse" x1="23.4387" y1="308.1198" x2="288.8144" y2="188.8808">
		<stop  offset="0" style="stop-color:#007878"/>
		<stop  offset="1" style="stop-color:#005454"/>
	</linearGradient>
	<polygon id="XMLID_4_" class="st6" points="290.9,182.5 124.4,290.7 0,290.7 92.3,258.7 	"/>
	<linearGradient id="XMLID_18_" gradientUnits="userSpaceOnUse" x1="5.5815" y1="296.6587" x2="188.6855" y2="375.8709">
		<stop  offset="0" style="stop-color:#00C7C7"/>
		<stop  offset="0.429" style="stop-color:#00B8B8"/>
		<stop  offset="1" style="stop-color:#00A8A8"/>
	</linearGradient>
	<polygon id="XMLID_3_" class="st7" points="124.4,290.7 0,290.7 31,365 199.5,365 	"/>
	<linearGradient id="XMLID_19_" gradientUnits="userSpaceOnUse" x1="264.6191" y1="321.0789" x2="206.6857" y2="235.1891">
		<stop  offset="0.85" style="stop-color:#007878"/>
		<stop  offset="0.898" style="stop-color:#007272"/>
		<stop  offset="0.9596" style="stop-color:#006262"/>
		<stop  offset="1" style="stop-color:#005454"/>
	</linearGradient>
	<polygon id="XMLID_2_" class="st8" points="124.4,290.7 199.5,365 290.9,182.5 	"/>
	<polygon id="XMLID_1_" class="st9" points="290.9,182.5 124.4,182.6 124.4,290.7 	"/>
</g>
</svg>
