<?xml version="1.0" encoding="utf-8"?>
<!-- Generator: Adobe Illustrator 26.2.1, SVG Export Plug-In . SVG Version: 6.00 Build 0)  -->
<svg version="1.1" id="Layer_1" xmlns="http://www.w3.org/2000/svg" xmlns:xlink="http://www.w3.org/1999/xlink" x="0px" y="0px"
	 viewBox="0 0 256 256" style="enable-background:new 0 0 256 256;" xml:space="preserve">
<style type="text/css">
	.st0{fill:#53B9FF;}
	.st1{fill:#119EFF;}
	.st2{fill-opacity:0.2;}
</style>
<g>
	<polygon class="st0" points="39.9,54.1 0.3,93.7 61.3,154.9 0,216.4 39.4,256 100.9,194.5 162,255.6 201.5,216 	"/>
	<polygon class="st1" points="140.5,154.9 100.9,194.5 162,255.6 201.5,216 	"/>
	<polygon class="st2" points="140.5,154.9 100.9,194.5 116.1,209.7 	"/>
	<polygon class="st0" points="194.6,101 256,39.5 216.4,0 155,61.4 93.9,0.3 54.4,39.9 216,201.8 255.6,162.2 	"/>
	<polygon class="st1" points="115.4,101 155,61.4 93.9,0.3 54.4,39.9 	"/>
	<polygon class="st2" points="115.4,101 155,61.4 139.7,46.2 	"/>
</g>
</svg>
