<?xml version="1.0" encoding="utf-8"?>
<!-- Generator: Adobe Illustrator 23.0.0, SVG Export Plug-In . SVG Version: 6.00 Build 0)  -->
<svg version="1.1" id="Layer_1" xmlns="http://www.w3.org/2000/svg" xmlns:xlink="http://www.w3.org/1999/xlink" x="0px" y="0px"
	 viewBox="0 0 255.05 360" style="enable-background:new 0 0 255.05 360;" xml:space="preserve">
<style type="text/css">
	.st0{fill:#E44D26;}
	.st1{fill:#F16529;}
	.st2{fill:#EBEBEB;}
	.st3{fill:#FFFFFF;}
</style>
<g id="XMLID_1_">
	<polygon id="XMLID_11_" class="st0" points="23.21,331.09 0,70.75 255.05,70.75 231.81,331.04 127.37,360 	"/>
	<polygon id="XMLID_10_" class="st1" points="127.52,337.87 211.92,314.47 231.78,92.03 127.52,92.03 	"/>
	<polygon id="XMLID_9_" class="st2" points="127.52,188.59 85.27,188.59 82.35,155.89 127.52,155.89 127.52,123.96 127.41,123.96 
		47.46,123.96 48.22,132.53 56.07,220.52 127.52,220.52 	"/>
	<polygon id="XMLID_8_" class="st2" points="127.52,271.51 127.38,271.55 91.82,261.95 89.55,236.48 72.27,236.48 57.5,236.48 
		61.97,286.62 127.38,304.77 127.52,304.73 	"/>
	<path id="XMLID_7_" d="M23.73,0h16.23v16.03H54.8V0h16.23v48.55H54.8V32.29H39.96v16.26H23.73L23.73,0L23.73,0z"/>
	<path id="XMLID_6_" d="M92.36,16.1H78.08V0h44.8v16.1h-14.29v32.45H92.36L92.36,16.1L92.36,16.1z"/>
	<path id="XMLID_5_" d="M129.99,0h16.92l10.41,17.06L167.72,0h16.93v48.55h-16.16V24.48l-11.16,17.26h-0.28l-11.17-17.26v24.06
		h-15.88V0z"/>
	<path id="XMLID_4_" d="M192.72,0h16.23v32.5h22.82v16.05h-39.05V0z"/>
	<polygon id="XMLID_3_" class="st3" points="127.41,188.59 127.41,220.52 166.73,220.52 163.02,261.93 127.41,271.54 127.41,304.76 
		192.87,286.62 193.35,281.22 200.85,197.16 201.63,188.59 193.03,188.59 	"/>
	<polygon id="XMLID_2_" class="st3" points="127.41,123.96 127.41,143.8 127.41,155.82 127.41,155.89 204.43,155.89 204.43,155.89 
		204.54,155.89 205.18,148.72 206.63,132.53 207.4,123.96 	"/>
</g>
</svg>
