<?xml version="1.0" encoding="utf-8"?>
<!-- Generator: Adobe Illustrator 23.0.0, SVG Export Plug-In . SVG Version: 6.00 Build 0)  -->
<svg version="1.1" id="Layer_1" xmlns="http://www.w3.org/2000/svg" xmlns:xlink="http://www.w3.org/1999/xlink" x="0px" y="0px"
	 viewBox="0 0 365 82.95" style="enable-background:new 0 0 365 82.95;" xml:space="preserve">
<style type="text/css">
	.st0{fill:#1A1918;}
	.st1{fill:#21609B;}
</style>
<g id="XMLID_1_">
	<path id="XMLID_4_" class="st0" d="M349.67,6.13L365,6.21c0,0-28.49,38.61-30.82,41.76c-0.76,1.02-1.9,2.12-2.49,3.48
		c-1.47,3.42-2.98,10.94-2.98,10.94l-14.02,0.07c0,0,2.18-7.83,2.09-12c-0.08-3.64-1.94-7.28-2.98-10.94
		c-1.05-3.7-2.49-10.94-2.49-10.94h14.42l1.99,7.95L349.67,6.13"/>
	<path id="XMLID_5_" class="st0" d="M320.65,14.27c2.83,1.71,4.56,11.11,4.56,11.11s-14.8,0.22-22.85,0.22h-6.96l-8.45,36.79h-12.92
		c0,0,8.04-39.98,9.94-47.22c0.62-2.35,4.22-1.94,10.29-1.94h9.71C310.25,13.22,317.57,12.42,320.65,14.27"/>
	<path id="XMLID_8_" class="st0" d="M260.49,32.19c0,0,0.4-2.36-1.37-5.1c-1.51-2.33-2.91-2.87-6.88-3
		c-11.23-0.35-11.01,7.97-11.01,7.97L260.49,32.19z M272.66,22.66c1.65,5.94-1.49,19.88-1.49,19.88s-16.38-0.27-25.35,0
		c-2.79,0.08-6.13-0.3-6.96,0.99c-1.17,1.82,0.43,4.62,1.78,5.8c1.56,1.36,4.59,1.52,5.68,1.66c7.28,0.92,22.52,0.24,22.52,0.24
		l-2.64,11.69c0,0-21.54,1.08-32.31-1.49c-2.13-0.51-4.12-1.53-5.47-2.98c-0.37-0.4-0.69-0.94-1.03-1.41
		c-0.28-0.37-1.09-1.6-1.45-2.57c-2.46-6.56,0.29-19.12,2.98-25.85c0.31-0.78,0.71-1.77,1.12-2.61c0.52-1.05,0.95-2.23,1.37-2.86
		c0.28-0.43,0.62-0.71,0.91-1.12c0.33-0.48,0.72-0.95,1.08-1.37c0.99-1.15,2.12-1.97,3.48-2.98c4.49-3.36,12.61-5.97,22.37-4.97
		c3.67,0.38,9.22,1.69,11.93,5.47C271.9,19.19,272.26,21.2,272.66,22.66z"/>
	<path id="XMLID_9_" class="st0" d="M213.39,13.17l12.53-0.07c0,0-6.98,33.13-10.54,49.29h-14.42c-10.08,0-19.05,1.25-22.87-5.97
		c-3.7-7-0.17-18.52,1.49-26.35c1.17-5.54,3.64-16.86,3.64-16.86l12.98-0.12c0,0-3.67,17.62-5.2,26.42
		c-0.55,3.15-1.67,6.12-0.5,8.45c1.12,2.22,2.68,2.38,7.46,2.49c1.51,0.03,6.46,0,6.46,0L213.39,13.17"/>
	<path id="XMLID_12_" class="st0" d="M154.73,37.03c1.31-4.66,3.23-9.72,2.98-13.92c-0.26-4.49-4.03-8.58-6.46-9.44
		c-7.32-2.59-14.18,1.03-16.9,3.98c-3.52,3.82-4.72,8.28-5.97,14.42c-0.93,4.56-1.69,9.37,0,12.92c2.99,6.28,12.32,4.91,22.37,4.97
		C152.24,45.96,153.48,41.47,154.73,37.03z M172.13,18.64c1.43,10.41-4.06,21.9-7.84,31.89c3.86,0.35,7.24-0.05,7.48,0.23
		c0.25,0.37-2.59,11.93-3.57,11.96c-3.06,0.08-13.21,0.16-17.44,0.16c-13.8,0-26.72,0.9-33.3-5.96c-2.67-2.79-4.52-7.57-4.97-10.94
		c-0.75-5.62,0.19-11.8,1.49-16.9c1.18-4.6,2.69-8.95,4.97-12.93c5.8-10.13,15.89-17.64,32.81-15.91c3.28,0.34,7.99,1.77,10.94,3.48
		c0.2,0.12,0.92,0.69,1.08,0.79C167.74,7.05,171.36,13.08,172.13,18.64z"/>
	<path id="XMLID_13_" class="st0" d="M111.05,13.23c-0.84,3.8-1.67,8.11-2.55,11.87H94.58c1.08-4.17,1.9-8.31,2.98-11.93
		C102.02,13.17,106.16,13.23,111.05,13.23"/>
	<path id="XMLID_14_" class="st0" d="M94.08,28.58h13.42c-1.75,9.71-5.23,25.38-7.95,36.29c-1.71,6.83-2.84,11.81-7.46,15.41
		c-0.41,0.32-0.65,0.17-0.99,0.5c-0.85,0.81-4.78,1.75-6.96,1.99c-3.54,0.38-7.54,0.05-11.89-0.04c1.14-4.16,2.43-9.16,3.44-12.89
		c10.6,1.28,10.87-8.74,12.92-18.39C89.8,45.87,93.4,30.82,94.08,28.58"/>
	<path id="XMLID_15_" class="st1" d="M62.77,53.94l-0.29,0.75c-4.9,9.54-13.59,15.4-25.97,15.66c-5.79,0.12-11.31-1.37-14.91-2.98
		c-7.78-3.49-14.32-9.98-17.89-16.9c-5.13-9.93-6.05-23.74,4.61-34.05c0.16,0-1.29,2.24-1.13,2.24L6.88,19.6
		C-0.8,43.64,22.86,64.25,45.86,61.89C51.39,61.32,58.44,58.3,62.77,53.94"/>
	<path id="XMLID_16_" class="st1" d="M48.85,43.99c5.79,0.04,11.83-2.66,15.41-6.46c-3.13,7.95-12.2,13.06-24.36,11.43
		C29.72,47.6,20.02,37.36,19.02,27.09c-0.73-7.47,1.87-11.93,6.16-17.34c-1.49,2.83-2.05,5.01-2.19,6.4
		C21.37,32.32,35.91,43.91,48.85,43.99"/>
	<path id="XMLID_17_" class="st1" d="M63.68,23.92c-0.9,2.06-6.08,5.96-8.37,6.45c-9.06,1.93-14.86-2.37-17.9-7.25
		c-0.45-0.73-1.29-2.72-1.44-3.23c-1.18-4.01-0.64-10.07,2.88-13.2c-1.06,2.98-1.21,6.45-0.66,8.7c0.34,1.36,1.37,3.74,2.4,5.23
		c1.87,2.72,3.06,3.39,5.47,4.83c1.08,0.65,2.25,1.17,2.75,1.32C51.09,27.44,55.91,29.21,63.68,23.92"/>
</g>
</svg>
