<?xml version="1.0" encoding="utf-8"?>
<!-- Generator: Adobe Illustrator 23.0.0, SVG Export Plug-In . SVG Version: 6.00 Build 0)  -->
<svg version="1.1" id="Layer_1" xmlns="http://www.w3.org/2000/svg" xmlns:xlink="http://www.w3.org/1999/xlink" x="0px" y="0px"
	 viewBox="0 0 365 192.01" style="enable-background:new 0 0 365 192.01;" xml:space="preserve">
<style type="text/css">
	.st0{clip-path:url(#XMLID_3_);}
	.st1{clip-path:url(#XMLID_6_);fill:#231F20;}
	.st2{clip-path:url(#XMLID_6_);fill:url(#XMLID_30_);}
	.st3{clip-path:url(#XMLID_6_);fill:#4A659B;}
	.st4{clip-path:url(#XMLID_6_);fill:url(#XMLID_31_);}
	.st5{clip-path:url(#XMLID_32_);fill:#617CBE;}
	.st6{clip-path:url(#XMLID_32_);fill:#FFFFFF;}
	.st7{clip-path:url(#XMLID_32_);fill:#08090D;}
</style>
<g id="g3068">
</g>
<g id="XMLID_1_">
	<g id="XMLID_5_">
		<defs>
			<path id="XMLID_4_" d="M182.5,192.01c100.79,0,182.5-42.98,182.5-96S283.29,0,182.5,0S0,42.98,0,96S81.71,192.01,182.5,192.01"/>
		</defs>
		<clipPath id="XMLID_3_">
			<use xlink:href="#XMLID_4_"  style="overflow:visible;"/>
		</clipPath>
		<g id="XMLID_8_" class="st0">
			<defs>
				<rect id="XMLID_7_" x="-0.34" y="0.62" width="365.69" height="191.75"/>
			</defs>
			<clipPath id="XMLID_6_">
				<use xlink:href="#XMLID_7_"  style="overflow:visible;"/>
			</clipPath>
			<path id="XMLID_9_" class="st1" d="M182.5,192.01c100.79,0,182.5-42.98,182.5-96S283.29,0,182.5,0S0,42.98,0,96
				S81.71,192.01,182.5,192.01"/>
			<path id="XMLID_10_" class="st1" d="M308.25,167.71C234.28,277.39,85.24,306.37-24.44,232.4S-163.09,9.39-89.12-100.28
				c73.97-109.67,223.01-138.65,332.68-64.69C353.23-91,382.21,58.04,308.25,167.71"/>
			
				<radialGradient id="XMLID_30_" cx="-67.9824" cy="-154.0535" r="1.2167" gradientTransform="matrix(163.3026 110.1345 -110.1345 163.3026 -5755.3359 32678.3027)" gradientUnits="userSpaceOnUse">
				<stop  offset="0" style="stop-color:#4A659B"/>
				<stop  offset="1" style="stop-color:#231F20"/>
			</radialGradient>
			<rect id="XMLID_11_" x="-0.34" y="0.62" class="st2" width="365.69" height="191.75"/>
			<path id="XMLID_12_" class="st3" d="M208.9,100.76c-36.98,54.84-111.5,69.33-166.34,32.34C-12.27,96.12-26.76,21.6,10.22-33.24
				c36.98-54.84,111.5-69.33,166.34-32.34C231.4-28.6,245.89,45.92,208.9,100.76"/>
			
				<radialGradient id="XMLID_31_" cx="-68.4675" cy="-154.1026" r="1.2167" gradientTransform="matrix(81.6513 55.0672 -55.0672 81.6513 -2785.9663 16386.7441)" gradientUnits="userSpaceOnUse">
				<stop  offset="0" style="stop-color:#FFFFFF"/>
				<stop  offset="1" style="stop-color:#4A659B"/>
			</radialGradient>
			<rect id="XMLID_13_" x="-0.34" y="0.62" class="st4" width="365.69" height="191.75"/>
		</g>
		<g id="XMLID_15_" class="st0">
			<defs>
				<rect id="XMLID_14_" x="-0.34" y="0.62" width="365.69" height="191.75"/>
			</defs>
			<clipPath id="XMLID_32_">
				<use xlink:href="#XMLID_14_"  style="overflow:visible;"/>
			</clipPath>
			<path id="XMLID_16_" class="st5" d="M182.5,184.88c96.85,0,175.37-39.79,175.37-88.87S279.35,7.13,182.5,7.13
				C85.65,7.13,7.13,46.92,7.13,96S85.65,184.88,182.5,184.88"/>
			<path id="XMLID_19_" class="st6" d="M218.02,124.73l8.7-44.77c1.96-10.1,0.33-17.64-4.85-22.41c-5.02-4.61-13.54-6.85-26.05-6.85
				h-15.07l4.31-22.18c0.16-0.84-0.06-1.7-0.6-2.36c-0.54-0.66-1.35-1.04-2.2-1.04h-20.79c-1.37,0-2.54,0.97-2.8,2.31l-9.24,47.53
				c-0.84-5.35-2.91-9.95-6.22-13.74c-6.1-6.98-15.75-10.52-28.67-10.52h-40.3c-1.37,0-2.54,0.97-2.8,2.31l-18.7,96.21
				c-0.16,0.84,0.06,1.7,0.6,2.36c0.54,0.66,1.35,1.04,2.2,1.04H76.5c1.37,0,2.54-0.97,2.8-2.31l4.52-23.27h15.6
				c8.19,0,15.06-0.89,20.43-2.64c5.49-1.79,10.54-4.81,15-8.98c3.6-3.31,6.57-7.01,8.86-11l-3.74,19.22
				c-0.16,0.84,0.06,1.7,0.6,2.36c0.54,0.66,1.35,1.04,2.2,1.04h20.79c1.37,0,2.54-0.97,2.8-2.31l10.26-52.81h14.27
				c6.08,0,7.86,1.21,8.34,1.73c0.44,0.47,1.35,2.15,0.33,7.42l-8.27,42.57c-0.16,0.84,0.06,1.7,0.6,2.36
				c0.54,0.66,1.35,1.04,2.2,1.04h21.12C216.59,127.03,217.76,126.07,218.02,124.73z M121.63,87.74c-1.31,6.71-3.77,11.5-7.32,14.23
				c-3.61,2.78-9.37,4.18-17.14,4.18h-9.29l6.72-34.56h12.01c8.82,0,12.38,1.89,13.8,3.47C122.39,77.25,122.81,81.63,121.63,87.74"
				/>
			<path id="XMLID_22_" class="st6" d="M306.94,61.22c-6.1-6.98-15.75-10.52-28.67-10.52h-40.3c-1.37,0-2.54,0.97-2.8,2.31
				l-18.7,96.21c-0.16,0.84,0.06,1.7,0.6,2.36c0.54,0.66,1.35,1.04,2.2,1.04h20.96c1.37,0,2.54-0.97,2.8-2.31l4.52-23.27h15.6
				c8.19,0,15.06-0.89,20.43-2.64c5.49-1.79,10.54-4.81,15-8.98c3.71-3.41,6.77-7.25,9.09-11.39c2.31-4.14,3.98-8.76,4.94-13.73
				C314.99,78.04,313.08,68.26,306.94,61.22z M285.21,87.74c-1.31,6.71-3.77,11.5-7.32,14.23c-3.61,2.78-9.37,4.18-17.14,4.18h-9.29
				l6.72-34.56h12.01c8.82,0,12.38,1.89,13.8,3.47C285.97,77.25,286.39,81.63,285.21,87.74"/>
			<path id="XMLID_25_" class="st7" d="M106.61,68.74c7.96,0,13.27,1.47,15.92,4.41c2.65,2.94,3.28,7.99,1.9,15.14
				c-1.45,7.45-4.24,12.76-8.38,15.95c-4.14,3.18-10.43,4.78-18.88,4.78H84.42l7.83-40.26H106.61L106.61,68.74z M55.55,149.76H76.5
				l4.97-25.58h17.95c7.92,0,14.44-0.83,19.55-2.5c5.12-1.66,9.76-4.45,13.95-8.37c3.51-3.23,6.35-6.79,8.53-10.68
				c2.17-3.89,3.72-8.19,4.63-12.88c2.22-11.4,0.54-20.29-5.02-26.65c-5.56-6.36-14.4-9.55-26.53-9.55h-40.3L55.55,149.76"/>
			<path id="XMLID_26_" class="st7" d="M161.48,27.98h20.79l-4.97,25.58h18.52c11.65,0,19.69,2.03,24.12,6.1
				c4.42,4.07,5.75,10.65,3.98,19.76l-8.7,44.77H194.1l8.27-42.57c0.94-4.84,0.6-8.15-1.04-9.91c-1.63-1.76-5.11-2.64-10.43-2.64
				h-16.62l-10.71,55.12h-20.79L161.48,27.98"/>
			<path id="XMLID_29_" class="st7" d="M270.19,68.74c7.96,0,13.27,1.47,15.92,4.41c2.65,2.94,3.28,7.99,1.9,15.14
				c-1.45,7.45-4.24,12.76-8.38,15.95c-4.14,3.18-10.43,4.78-18.88,4.78H248l7.83-40.26H270.19L270.19,68.74z M219.12,149.76h20.96
				l4.97-25.58H263c7.92,0,14.44-0.83,19.55-2.5c5.12-1.66,9.76-4.45,13.95-8.37c3.51-3.23,6.35-6.79,8.53-10.68
				c2.17-3.89,3.72-8.19,4.63-12.88c2.22-11.4,0.54-20.29-5.01-26.65c-5.56-6.36-14.4-9.55-26.53-9.55h-40.3L219.12,149.76"/>
		</g>
	</g>
</g>
</svg>
