<?xml version="1.0" encoding="utf-8"?>
<!-- Generator: Adobe Illustrator 23.0.0, SVG Export Plug-In . SVG Version: 6.00 Build 0)  -->
<svg version="1.1" id="Layer_1" xmlns="http://www.w3.org/2000/svg" xmlns:xlink="http://www.w3.org/1999/xlink" x="0px" y="0px"
	 viewBox="0 0 50.02 37.46" style="enable-background:new 0 0 50.02 37.46;" xml:space="preserve">
<style type="text/css">
	.st0{fill:#0277BD;}
	.st1{fill:#FAFAFA;}
</style>
<path class="st0" d="M20.69,37.45c-5.86,0-11.73,0.02-17.59-0.01c-2.97-0.02-3.51-0.73-2.84-3.67c2.27-9.98,4.61-19.94,6.83-29.93
	C7.68,1.16,8.96-0.03,11.8,0c11.73,0.11,23.46,0.04,35.18,0.05c2.94,0,3.44,0.64,2.78,3.66c-2.14,9.8-4.3,19.59-6.5,29.38
	c-0.82,3.66-1.77,4.36-5.58,4.37C32.02,37.47,26.36,37.46,20.69,37.45z"/>
<g>
	<path class="st1" d="M26.12,18.67c-0.63-0.72-1.16-1.32-1.59-1.8c-2.53-2.84-4.85-5.49-7.36-8.2C16.02,7.43,15.65,6.23,17.03,5
		c1.36-1.21,2.7-1.1,3.95,0.29c3.48,3.87,6.95,7.75,10.49,11.57c1.32,1.43,1.01,2.4-0.44,3.45c-5.58,4.06-11.13,8.16-16.68,12.27
		c-1.25,0.92-2.43,1.16-3.44-0.21c-1.11-1.51-0.08-2.4,1.07-3.24c4.12-3.01,8.23-6.04,12.33-9.09
		C24.88,19.62,25.64,19.03,26.12,18.67z"/>
	<path class="st1" d="M22.68,32.29c-1.17,0-1.82-1.04-1.82-2.08c0-1.04,0.65-2.08,1.82-2.08c4.4,0,6.37,0,9.9,0
		c1.17,0,1.82,1.04,1.82,2.08c0,1.04-0.65,2.08-1.82,2.08C30.36,32.29,26.06,32.29,22.68,32.29z"/>
</g>
</svg>
