<?xml version="1.0" encoding="utf-8"?>
<!-- Generator: Adobe Illustrator 24.1.2, SVG Export Plug-In . SVG Version: 6.00 Build 0)  -->
<svg version="1.1" id="Layer_1" xmlns="http://www.w3.org/2000/svg" xmlns:xlink="http://www.w3.org/1999/xlink" x="0px" y="0px"
	 viewBox="0 0 158.4 170.2" style="enable-background:new 0 0 158.4 170.2;" xml:space="preserve">
<style type="text/css">
	.st0{fill:#5CE500;}
</style>
<g transform="matrix( 1, 0, 0, 1, 0,0) ">
	<g>
		<g id="Layer0_0_FILL">
			<path class="st0" d="M39.6,113.8L0.7,137.2l38.9,22.7V113.8 M0,70.6l57.3,33.5v66.1L93,148.8c2.3-1.4,3.6-3.8,3.6-6.4V80.7
				L42.9,49.4c-2.4-1.4-5.3-1.4-7.7,0.1L0,70.6 M75.3,1.1L35.2,25.2l78.6,45.9v92.1l41-24.6c2.3-1.4,3.6-3.8,3.6-6.4V45.1L82.9,1
				C80.6-0.4,77.6-0.3,75.3,1.1z"/>
		</g>
	</g>
</g>
</svg>
