<?xml version="1.0" encoding="utf-8"?>
<!-- Generator: Adobe Illustrator 23.0.0, SVG Export Plug-In . SVG Version: 6.00 Build 0)  -->
<svg version="1.1" id="Layer_1" xmlns="http://www.w3.org/2000/svg" xmlns:xlink="http://www.w3.org/1999/xlink" x="0px" y="0px"
	 viewBox="0 0 365 365" style="enable-background:new 0 0 365 365;" xml:space="preserve">
<style type="text/css">
	.st0{fill:#007ACC;}
	.st1{fill:#FFFFFF;}
</style>
<g>
	<polygon class="st0" points="0,182.5 0,365 182.5,365 365,365 365,182.5 365,0 182.5,0 0,0 	"/>
	<path class="st1" d="M80.72,183.71l-0.12,14.95h23.75h23.75v67.5v67.5h16.8h16.8v-67.5v-67.5h23.75h23.75V184
		c0-8.11-0.17-14.89-0.41-15.06c-0.17-0.23-29.08-0.35-64.14-0.29l-63.79,0.17L80.72,183.71z"/>
	<path class="st1" d="M294.52,168.4c9.27,2.32,16.34,6.43,22.83,13.15c3.36,3.59,8.34,10.14,8.75,11.7
		c0.12,0.46-15.76,11.12-25.38,17.09c-0.35,0.23-1.74-1.27-3.3-3.59c-4.69-6.84-9.62-9.79-17.15-10.31
		c-11.07-0.75-18.19,5.04-18.13,14.72c0,2.84,0.41,4.52,1.56,6.84c2.43,5.04,6.95,8.05,21.15,14.19
		c26.13,11.24,37.31,18.66,44.26,29.2c7.76,11.76,9.5,30.53,4.23,44.5c-5.79,15.18-20.16,25.49-40.38,28.91
		c-6.26,1.1-21.09,0.93-27.81-0.29c-14.66-2.61-28.56-9.85-37.14-19.35c-3.36-3.71-9.91-13.38-9.5-14.08
		c0.17-0.23,1.68-1.16,3.36-2.14c1.62-0.93,7.76-4.46,13.56-7.82l10.49-6.08l2.2,3.24c3.07,4.69,9.79,11.12,13.85,13.27
		c11.65,6.14,27.64,5.27,35.52-1.8c3.36-3.07,4.75-6.26,4.75-10.95c0-4.23-0.52-6.08-2.72-9.27c-2.84-4.06-8.63-7.47-25.09-14.6
		c-18.83-8.11-26.94-13.15-34.36-21.15c-4.29-4.63-8.34-12.05-10.02-18.25c-1.39-5.16-1.74-18.08-0.64-23.29
		c3.88-18.19,17.61-30.88,37.43-34.65C273.26,166.37,288.2,166.83,294.52,168.4z"/>
</g>
</svg>
