<?xml version="1.0" encoding="utf-8"?>
<!-- Generator: Adobe Illustrator 23.0.3, SVG Export Plug-In . SVG Version: 6.00 Build 0)  -->
<svg version="1.1" id="Layer_1" xmlns="http://www.w3.org/2000/svg" xmlns:xlink="http://www.w3.org/1999/xlink" x="0px" y="0px"
	 viewBox="0 0 164 40.8" style="enable-background:new 0 0 164 40.8;" xml:space="preserve">
<style type="text/css">
	.st0{fill:#353748;}
</style>
<g>
	<path class="st0" d="M58.9,24.4v12.5h-2.1V5.8h7.5c3.2,0,5.6,0.7,7.3,2.2c1.7,1.5,2.5,3.7,2.5,6.5c0,2.9-0.9,5.3-2.8,7.1
		c-1.9,1.9-4.5,2.8-7.9,2.8H58.9z M58.9,7.7v14.7h4.4c2.8,0,4.9-0.7,6.4-2s2.2-3.2,2.2-5.7c0-4.7-2.7-7-8.1-7H58.9z"/>
	<path class="st0" d="M86.9,37.4c-3.2,0-5.8-1.1-7.7-3.2c-1.9-2.1-2.8-4.9-2.8-8.3c0-3.7,1-6.6,3-8.7c2-2.1,4.6-3.1,7.8-3.1
		c3.2,0,5.7,1,7.5,3.1s2.8,4.9,2.8,8.6c0,3.5-0.9,6.3-2.8,8.4C92.7,36.4,90.2,37.4,86.9,37.4z M87.1,15.9c-2.6,0-4.7,0.9-6.3,2.6
		c-1.6,1.8-2.3,4.2-2.3,7.4c0,2.9,0.8,5.2,2.3,7c1.5,1.8,3.6,2.6,6.2,2.6c2.7,0,4.7-0.9,6.2-2.6c1.4-1.7,2.2-4.1,2.2-7.2
		c0-3.2-0.7-5.6-2.2-7.3S89.7,15.9,87.1,15.9z"/>
	<path class="st0" d="M115.7,36.9l-10.6-11H105v11h-2V4h2v21.2h0.1l10.1-10.5h2.6l-10.6,10.8l11.4,11.5H115.7z"/>
	<path class="st0" d="M123.2,25.9c0,3.1,0.7,5.4,2.1,7.2c1.4,1.7,3.3,2.6,5.8,2.6c2.5,0,4.9-0.9,7.3-2.8V35
		c-2.3,1.6-4.9,2.5-7.7,2.5c-2.9,0-5.2-1-6.9-3.1s-2.6-5-2.6-8.7c0-3.2,0.9-6,2.8-8.2c1.8-2.2,4.2-3.3,7.2-3.3c2.8,0,4.9,1,6.4,2.9
		s2.2,4.6,2.2,7.9v0.9H123.2z M137.5,24c-0.1-2.6-0.7-4.6-1.8-6s-2.7-2.1-4.7-2.1c-2.1,0-3.8,0.7-5.2,2.1c-1.4,1.4-2.2,3.4-2.5,6
		H137.5z"/>
	<path class="st0" d="M161.5,36.9l-4.1-9.1c-0.9-1.9-1.7-3.1-2.6-3.8c-0.9-0.6-1.9-1-3.2-1h-3.9v13.9h-2.1V5.8h8.6
		c2.8,0,4.9,0.7,6.5,2.2c1.6,1.5,2.4,3.4,2.4,5.9c0,2.2-0.6,4.1-1.9,5.6c-1.3,1.5-3.1,2.5-5.4,2.9v0.1c1.2,0.5,2.4,2,3.6,4.5
		l4.6,9.9H161.5z M147.7,7.7v13.3h5.4c2.4,0,4.3-0.6,5.7-1.9c1.4-1.2,2.1-3,2.1-5.1c0-2-0.6-3.5-1.9-4.7s-3.1-1.7-5.4-1.7H147.7z"/>
</g>
<path class="st0" d="M20.1,0c-0.6,0-1.1,0.1-1.7,0.3L2.7,6.9c-2.2,0.9-3.2,3.4-2.3,5.6L11,38.1c0.7,1.7,2.2,2.6,3.9,2.7
	c0.6,0,1.1-0.1,1.7-0.3l15.8-6.5c1.6-0.7,2.6-2.3,2.6-3.9c0-0.5-0.1-1.2-0.3-1.7L24,2.7C23.4,1,21.8,0,20.1,0 M27.6,0L35,17.9V4.3
	C35,1.9,33.1,0,30.7,0 M39.3,3.3v19.4l5.2-12.6c0.9-2.2-0.1-4.7-2.3-5.6 M20.1,4.2L30.8,30l-15.9,6.6L4.3,10.8"/>
</svg>
