<?xml version="1.0" encoding="utf-8"?>
<!-- Generator: Adobe Illustrator 22.1.0, SVG Export Plug-In . SVG Version: 6.00 Build 0)  -->
<svg version="1.1" id="Layer_1" xmlns="http://www.w3.org/2000/svg" xmlns:xlink="http://www.w3.org/1999/xlink" x="0px" y="0px"
	 viewBox="0 0 2566.3 347.5" style="enable-background:new 0 0 2566.3 347.5;" xml:space="preserve">
<style type="text/css">
	.st0{fill:#422736;}
</style>
<g transform="matrix( 1, 0, 0, 1, 0,0) ">
	<g>
		<g>
			<g id="Layer0_0_FILL_8_">
				<path class="st0" d="M226.3,215.6c-8.2-8.3-13.7-17.7-16.4-28.2L108.5,288.7h-31v58.8h139v-58.8h-13.3l55.8-55.8
					C246.6,230.7,235.7,224.9,226.3,215.6 M205.3,299.1v37.4H89.5v-37.4H205.3 M270.6,118.5c-4.5,0-8.8,0.5-12.9,1.4
					c-9.1,2.2-17.3,6.9-24.4,14c-10.3,10.3-15.4,22.7-15.4,37.3c0,1.1,0,2.2,0.1,3.3c0.1,1.4,0.2,2.9,0.4,4.3
					c1.5,11.3,6.5,21.2,14.9,29.7c9.7,9.7,21.3,14.8,34.7,15.4c0.9,0,1.7,0,2.6,0c14.6,0,27-5.1,37.3-15.4
					c10.3-10.3,15.5-22.7,15.5-37.3s-5.2-27-15.5-37.3C297.6,123.6,285.2,118.5,270.6,118.5 M270.6,132.7c1,0,2.1,0,3.1,0.1
					c9.3,0.7,17.4,4.4,24.1,11.1c7.6,7.5,11.4,16.6,11.4,27.3c0,10.6-3.8,19.7-11.4,27.2c-5,5-10.8,8.4-17.3,10
					c-3.1,0.8-6.5,1.3-10,1.3c-10.6,0-19.7-3.8-27.2-11.3c-4.3-4.3-7.4-9.2-9.3-14.5c-1.3-3.9-2-8.2-2-12.7c0-2.3,0.2-4.6,0.5-6.8
					c1.3-7.8,4.9-14.6,10.8-20.5C251,136.5,260,132.7,270.6,132.7 M262.9,151.5c-2.6,1-5,2.6-7.2,4.8c-4.1,4.1-6.1,9.1-6.1,14.9
					c0,1,0.1,2.1,0.2,3.1c0.2,1.6,0.6,3,1.1,4.4c1,2.7,2.6,5.2,4.9,7.4c2.2,2.2,4.7,3.8,7.4,4.8c2.3,0.9,4.9,1.4,7.5,1.4
					c5.8,0,10.8-2.1,14.9-6.1c4.1-4.1,6.2-9.1,6.2-14.9c0-5.8-2.1-10.8-6.2-14.9c-4.1-4.1-9.1-6.1-14.9-6.1
					C267.9,150.1,265.3,150.6,262.9,151.5 M123.2,42.3l5.2-9l-22-12.7L100,31.8L89.1,3c-0.3-0.9-0.9-1.6-1.7-2.2
					C86.6,0.3,85.8,0,84.8,0L15.2,2.6C14,2.6,12.9,3.1,12,4s-1.3,2-1.3,3.3c0.1,1.3,0.5,2.3,1.4,3.2s2,1.3,3.3,1.2l66.4-2.4L94.1,42
					L74,76.7l-34.4,5.7L8.5,23.7c-0.6-1.1-1.5-1.8-2.7-2.2c-1.2-0.4-2.3-0.2-3.4,0.3c-1.1,0.6-1.9,1.5-2.3,2.7
					C-0.2,25.7,0,26.9,0.5,28l32.6,61.6c0.5,0.9,1.1,1.5,2,1.9s1.8,0.6,2.8,0.4l30.3-5L61.8,98l22,12.7l5.9-10.3L208,168.7
					c0.6-16.3,6.7-30.2,18.3-41.8c6-6,12.6-10.6,19.9-13.7L123.2,42.3z"/>
			</g>
		</g>
	</g>
</g>
<g>
	<g>
		<path class="st0" d="M472,115h48.6v13H472v64.9c0,6.9,0.6,12.6,1.8,16.9c1.2,4.3,2.9,7.7,5.1,10c2.2,2.4,4.9,3.9,8,4.7
			c3.1,0.8,6.6,1.2,10.4,1.2c6.5,0,11.6-0.7,15.6-2.2c3.9-1.5,7-2.9,9.2-4.1l3.8,12.8c-2.2,1.4-6.1,3-11.6,4.8
			c-5.5,1.8-11.5,2.7-17.9,2.7c-7.6,0-13.9-1-19-3c-5.1-2-9.2-5-12.3-9c-3.1-4-5.2-9-6.5-15c-1.3-6-1.9-13.1-1.9-21.3V79.1l15.3-2.8
			V115z"/>
		<path class="st0" d="M549,237V56.6l15.3-2.8v64.7c5-1.9,10.2-3.3,15.3-4.4c5.2-1,10.4-1.5,15.6-1.5c9.4,0,17.3,1.3,23.6,4
			c6.3,2.7,11.3,6.5,15.1,11.5s6.4,10.9,7.9,17.8c1.5,6.9,2.2,14.6,2.2,22.9V237h-15.3v-63.3c0-8.7-0.6-16-1.8-22
			c-1.2-6-3.2-10.9-5.9-14.6c-2.8-3.8-6.4-6.5-11-8.1c-4.6-1.7-10.3-2.5-17.2-2.5c-2.7,0-5.5,0.2-8.6,0.7c-3.1,0.5-5.9,1-8.6,1.5
			c-2.7,0.6-5.1,1.1-7.2,1.8c-2.1,0.6-3.5,1.1-4.1,1.4V237H549z"/>
		<path class="st0" d="M720.4,112.1c8,0,14.8,1.1,20.4,3.4c5.6,2.3,10.1,5.4,13.6,9.4c3.5,4,6,8.8,7.6,14.3
			c1.6,5.5,2.4,11.5,2.4,17.9v77c-1.6,0.5-3.9,1-6.8,1.5c-3,0.6-6.5,1.1-10.4,1.8c-3.9,0.6-8.3,1.1-13.1,1.5
			c-4.8,0.4-9.7,0.6-14.8,0.6c-6.5,0-12.4-0.7-17.8-2.1c-5.4-1.4-10.2-3.7-14.2-6.7c-4-3.1-7.2-7-9.4-11.8
			c-2.3-4.8-3.4-10.7-3.4-17.6c0-6.6,1.3-12.3,3.8-17c2.5-4.7,6.1-8.6,10.6-11.7c4.6-3.1,10-5.3,16.3-6.7c6.3-1.4,13.1-2.1,20.5-2.1
			c2.2,0,4.5,0.1,7,0.4c2.4,0.2,4.8,0.6,7.1,0.9c2.3,0.4,4.3,0.8,5.9,1.2c1.7,0.4,2.8,0.7,3.4,1.1v-7.6c0-4.3-0.3-8.4-0.9-12.4
			c-0.6-4-2-7.6-4.1-10.9c-2.1-3.2-5.1-5.8-9-7.8c-3.9-2-8.9-3-15.2-3c-9,0-15.7,0.6-20.1,1.9c-4.4,1.3-7.6,2.3-9.7,3.1l-2.1-13.5
			c2.7-1.3,6.8-2.4,12.4-3.5C705.8,112.7,712.5,112.1,720.4,112.1z M721.8,225.9c6,0,11.2-0.2,15.7-0.6c4.5-0.4,8.3-0.9,11.5-1.5
			v-43c-1.7-0.8-4.5-1.6-8.3-2.5c-3.8-0.9-9-1.3-15.6-1.3c-3.8,0-7.7,0.3-11.8,0.8c-4.1,0.6-7.9,1.7-11.3,3.5
			c-3.5,1.8-6.3,4.3-8.5,7.4c-2.2,3.2-3.3,7.3-3.3,12.5c0,4.6,0.7,8.4,2.2,11.6c1.5,3.2,3.6,5.7,6.4,7.6c2.8,1.9,6.1,3.3,9.9,4.1
			C712.6,225.5,717,225.9,721.8,225.9z"/>
		<path class="st0" d="M817.9,115h48.6v13h-48.6v64.9c0,6.9,0.6,12.6,1.8,16.9c1.2,4.3,2.9,7.7,5.1,10c2.2,2.4,4.9,3.9,8,4.7
			c3.1,0.8,6.6,1.2,10.4,1.2c6.5,0,11.6-0.7,15.6-2.2c3.9-1.5,7-2.9,9.2-4.1l3.8,12.8c-2.2,1.4-6.1,3-11.6,4.8
			c-5.5,1.8-11.5,2.7-17.9,2.7c-7.6,0-13.9-1-19-3c-5.1-2-9.2-5-12.3-9c-3.1-4-5.2-9-6.5-15c-1.3-6-1.9-13.1-1.9-21.3V79.1l15.3-2.8
			V115z"/>
		<path class="st0" d="M990.3,112.6c5,0,9.8,0.4,14.3,1.2c4.5,0.8,7.6,1.6,9.3,2.4l-3.1,13.2c-1.3-0.6-3.8-1.3-7.7-2
			c-3.9-0.7-8.9-1.1-15.2-1.1c-6.6,0-11.9,0.5-15.9,1.4c-4,0.9-6.7,1.7-7.9,2.4v107h-15.3V120.6c3.9-1.7,9.4-3.5,16.3-5.3
			C972,113.5,980.4,112.6,990.3,112.6z"/>
		<path class="st0" d="M1141.2,176.1c0,9.6-1.4,18.3-4.1,26.2c-2.8,7.9-6.6,14.6-11.6,20.1c-5,5.5-10.8,9.8-17.6,12.9
			c-6.8,3.1-14.3,4.6-22.4,4.6c-8.2,0-15.7-1.5-22.4-4.6c-6.8-3.1-12.6-7.4-17.6-12.9c-5-5.5-8.8-12.2-11.6-20.1
			c-2.8-7.9-4.1-16.6-4.1-26.2c0-9.6,1.4-18.3,4.1-26.2c2.8-7.9,6.6-14.6,11.6-20.2c5-5.6,10.8-9.9,17.6-13
			c6.8-3.1,14.2-4.6,22.4-4.6c8.2,0,15.7,1.5,22.4,4.6c6.8,3.1,12.6,7.4,17.6,13c5,5.6,8.8,12.3,11.6,20.2
			C1139.8,157.8,1141.2,166.5,1141.2,176.1z M1124.9,176.1c0-15.3-3.5-27.4-10.6-36.5c-7.1-9.1-16.7-13.6-28.8-13.6
			c-12.1,0-21.7,4.5-28.8,13.6c-7.1,9.1-10.6,21.2-10.6,36.5c0,15.3,3.5,27.4,10.6,36.4c7.1,9,16.7,13.5,28.8,13.5
			c12.1,0,21.7-4.5,28.8-13.5C1121.4,203.5,1124.9,191.4,1124.9,176.1z"/>
		<path class="st0" d="M1189.9,122.3c2.7-2,7-4.2,12.9-6.5c5.9-2.3,12.9-3.4,20.9-3.4c8.8,0,16.6,1.6,23.5,4.7
			c6.8,3.2,12.6,7.6,17.4,13.2c4.7,5.7,8.3,12.4,10.7,20.2c2.4,7.8,3.7,16.3,3.7,25.6c0,9.9-1.5,18.8-4.4,26.7
			c-2.9,7.9-7,14.6-12.3,20.1c-5.3,5.5-11.6,9.7-18.9,12.6c-7.3,2.9-15.5,4.4-24.4,4.4c-10.9,0-19.8-0.7-26.9-2.1
			c-7.1-1.4-12.9-2.9-17.5-4.5V56.6l15.3-2.8V122.3z M1189.9,222.6c2.4,0.8,5.9,1.5,10.5,2.2c4.6,0.7,10.7,1.1,18.3,1.1
			c13.2,0,23.8-4.3,31.9-12.9c8-8.6,12-20.9,12-37c0-6.8-0.7-13.2-2.1-19.2c-1.4-6.1-3.7-11.3-6.8-15.8c-3.2-4.5-7.3-8.1-12.4-10.7
			c-5.1-2.7-11.5-4-19-4c-3.6,0-7.1,0.4-10.4,1.1c-3.3,0.7-6.4,1.6-9.2,2.7c-2.8,1.1-5.3,2.3-7.4,3.5c-2.1,1.3-3.9,2.4-5.3,3.5
			V222.6z"/>
		<path class="st0" d="M1416.3,176.1c0,9.6-1.4,18.3-4.1,26.2c-2.8,7.9-6.6,14.6-11.6,20.1c-5,5.5-10.8,9.8-17.6,12.9
			c-6.8,3.1-14.3,4.6-22.4,4.6c-8.2,0-15.7-1.5-22.4-4.6c-6.8-3.1-12.6-7.4-17.6-12.9c-5-5.5-8.8-12.2-11.6-20.1
			c-2.8-7.9-4.1-16.6-4.1-26.2c0-9.6,1.4-18.3,4.1-26.2c2.8-7.9,6.6-14.6,11.6-20.2c5-5.6,10.8-9.9,17.6-13
			c6.8-3.1,14.2-4.6,22.4-4.6c8.2,0,15.7,1.5,22.4,4.6c6.8,3.1,12.6,7.4,17.6,13c5,5.6,8.8,12.3,11.6,20.2
			C1414.9,157.8,1416.3,166.5,1416.3,176.1z M1400,176.1c0-15.3-3.5-27.4-10.6-36.5c-7.1-9.1-16.7-13.6-28.8-13.6
			c-12.1,0-21.7,4.5-28.8,13.6c-7.1,9.1-10.6,21.2-10.6,36.5c0,15.3,3.5,27.4,10.6,36.4c7.1,9,16.7,13.5,28.8,13.5
			c12.1,0,21.7-4.5,28.8-13.5C1396.5,203.5,1400,191.4,1400,176.1z"/>
		<path class="st0" d="M1464,115h48.6v13H1464v64.9c0,6.9,0.6,12.6,1.8,16.9c1.2,4.3,2.9,7.7,5.1,10c2.2,2.4,4.9,3.9,8,4.7
			c3.1,0.8,6.6,1.2,10.4,1.2c6.5,0,11.6-0.7,15.6-2.2c3.9-1.5,7-2.9,9.2-4.1l3.8,12.8c-2.2,1.4-6.1,3-11.6,4.8
			c-5.5,1.8-11.5,2.7-17.9,2.7c-7.6,0-13.9-1-19-3c-5.1-2-9.2-5-12.3-9c-3.1-4-5.2-9-6.5-15c-1.3-6-1.9-13.1-1.9-21.3V79.1l15.3-2.8
			V115z"/>
		<path class="st0" d="M1645.4,239.6c-9.4,0-17.8-1.5-25-4.5c-7.2-3-13.3-7.3-18.1-12.9c-4.8-5.6-8.5-12.3-11-20.1
			c-2.5-7.8-3.8-16.4-3.8-25.9c0-9.6,1.3-18.3,3.9-26.2c2.6-7.9,6.3-14.6,11.2-20.3c4.9-5.7,10.8-10,17.7-13.1
			c6.9-3.1,14.7-4.6,23.4-4.6c6.6,0,12.8,0.6,18.5,1.7c5.7,1.1,10.2,2.5,13.3,4.3l-4,13.2c-3.2-1.6-6.7-2.8-10.6-3.8
			c-3.9-0.9-9.2-1.4-15.8-1.4c-13.5,0-23.8,4.4-30.8,13.1c-7,8.7-10.5,21.1-10.5,37.2c0,7.2,0.8,13.9,2.4,20
			c1.6,6.1,4.1,11.3,7.7,15.6c3.5,4.3,8.1,7.7,13.7,10.2c5.6,2.4,12.4,3.7,20.4,3.7c6.6,0,12.2-0.7,16.6-2.2
			c4.5-1.5,7.8-2.8,9.8-3.9l3.3,13.2c-2.8,1.6-7.3,3.1-13.3,4.6C1658.3,238.9,1652,239.6,1645.4,239.6z"/>
		<path class="st0" d="M1807.6,176.1c0,9.6-1.4,18.3-4.1,26.2c-2.8,7.9-6.6,14.6-11.6,20.1c-5,5.5-10.8,9.8-17.6,12.9
			c-6.8,3.1-14.3,4.6-22.4,4.6c-8.2,0-15.7-1.5-22.4-4.6c-6.8-3.1-12.6-7.4-17.6-12.9c-5-5.5-8.8-12.2-11.6-20.1
			c-2.8-7.9-4.1-16.6-4.1-26.2c0-9.6,1.4-18.3,4.1-26.2c2.8-7.9,6.6-14.6,11.6-20.2c5-5.6,10.8-9.9,17.6-13
			c6.8-3.1,14.2-4.6,22.4-4.6c8.2,0,15.7,1.5,22.4,4.6c6.8,3.1,12.6,7.4,17.6,13c5,5.6,8.8,12.3,11.6,20.2
			C1806.2,157.8,1807.6,166.5,1807.6,176.1z M1791.3,176.1c0-15.3-3.5-27.4-10.6-36.5c-7.1-9.1-16.7-13.6-28.8-13.6
			c-12.1,0-21.7,4.5-28.8,13.6c-7.1,9.1-10.6,21.2-10.6,36.5c0,15.3,3.5,27.4,10.6,36.4c7.1,9,16.7,13.5,28.8,13.5
			c12.1,0,21.7-4.5,28.8-13.5C1787.7,203.5,1791.3,191.4,1791.3,176.1z"/>
		<path class="st0" d="M1840.9,119.2c4.6-1.3,10.5-2.7,17.8-4.3c7.3-1.6,16.8-2.4,28.5-2.4c15.4,0,26.6,4.5,33.5,13.5
			c0.8-0.6,2.3-1.7,4.6-3.2c2.3-1.5,5.2-3,8.6-4.6c3.5-1.6,7.5-2.9,12.2-4c4.6-1.1,9.8-1.7,15.5-1.7c9.3,0,16.8,1.4,22.6,4.1
			c5.7,2.8,10.2,6.6,13.3,11.6c3.1,5,5.3,10.9,6.4,17.8c1.1,6.9,1.7,14.5,1.7,22.7V237h-15.3v-63.3c0-8-0.4-15-1.1-20.9
			c-0.7-5.9-2.1-10.8-4.3-14.6c-2.1-3.9-5.2-6.8-9.1-8.7c-3.9-2-9.1-3-15.3-3c-4.7,0-9,0.4-12.9,1.3c-3.9,0.9-7.2,1.9-10,3.2
			c-2.8,1.3-5.2,2.5-7,3.8c-1.8,1.3-3.1,2.2-3.9,2.8c1.4,4.1,2.5,8.7,3.2,13.8c0.7,5.1,1.1,10.5,1.1,16.2V237h-15.3v-63.3
			c0-8-0.4-15-1.1-20.9c-0.7-5.9-2.2-10.8-4.4-14.6c-2.2-3.9-5.3-6.8-9.3-8.7c-4-2-9.3-3-15.9-3c-7.4,0-13.7,0.4-18.8,1.2
			c-5.1,0.8-8.4,1.5-9.8,2.1V237h-15.3V119.2z"/>
		<path class="st0" d="M2060,280.7h-15.3V119.2c4.6-1.6,10.4-3.1,17.5-4.5c7.1-1.4,16.1-2.1,26.9-2.1c9,0,17.1,1.5,24.4,4.4
			c7.3,2.9,13.6,7.1,18.9,12.6c5.3,5.5,9.4,12.2,12.3,20.1c2.9,7.9,4.4,16.8,4.4,26.7c0,9.3-1.2,17.8-3.7,25.6
			c-2.4,7.8-6,14.5-10.7,20.1c-4.7,5.6-10.5,10-17.4,13.1c-6.8,3.1-14.7,4.7-23.5,4.7c-8,0-15-1.1-20.9-3.4
			c-5.9-2.3-10.2-4.4-12.9-6.5V280.7z M2060,215.1c1.4,1.1,3.2,2.3,5.3,3.5c2.1,1.3,4.6,2.4,7.4,3.5c2.8,1.1,5.9,2,9.2,2.7
			c3.3,0.7,6.8,1.1,10.4,1.1c7.6,0,13.9-1.3,19-3.9c5.1-2.6,9.2-6.1,12.4-10.6c3.1-4.5,5.4-9.8,6.8-15.8c1.4-6.1,2.1-12.5,2.1-19.2
			c0-16.1-4-28.4-12-37c-8-8.6-18.7-12.9-31.9-12.9c-7.6,0-13.7,0.4-18.3,1.1c-4.6,0.7-8.1,1.5-10.5,2.2V215.1z"/>
		<path class="st0" d="M2219.4,112.1c8,0,14.8,1.1,20.4,3.4c5.6,2.3,10.1,5.4,13.6,9.4c3.5,4,6,8.8,7.6,14.3
			c1.6,5.5,2.4,11.5,2.4,17.9v77c-1.6,0.5-3.9,1-6.8,1.5c-3,0.6-6.5,1.1-10.4,1.8c-3.9,0.6-8.3,1.1-13.1,1.5
			c-4.8,0.4-9.7,0.6-14.8,0.6c-6.5,0-12.4-0.7-17.8-2.1c-5.4-1.4-10.2-3.7-14.2-6.7c-4-3.1-7.2-7-9.4-11.8
			c-2.3-4.8-3.4-10.7-3.4-17.6c0-6.6,1.3-12.3,3.8-17c2.5-4.7,6.1-8.6,10.6-11.7c4.6-3.1,10-5.3,16.3-6.7c6.3-1.4,13.1-2.1,20.5-2.1
			c2.2,0,4.5,0.1,7,0.4c2.4,0.2,4.8,0.6,7.1,0.9c2.3,0.4,4.3,0.8,5.9,1.2c1.7,0.4,2.8,0.7,3.4,1.1v-7.6c0-4.3-0.3-8.4-0.9-12.4
			c-0.6-4-2-7.6-4.1-10.9c-2.1-3.2-5.1-5.8-9-7.8c-3.9-2-8.9-3-15.2-3c-9,0-15.7,0.6-20.1,1.9c-4.4,1.3-7.6,2.3-9.7,3.1l-2.1-13.5
			c2.7-1.3,6.8-2.4,12.4-3.5C2204.8,112.7,2211.5,112.1,2219.4,112.1z M2220.8,225.9c6,0,11.2-0.2,15.7-0.6
			c4.5-0.4,8.3-0.9,11.5-1.5v-43c-1.7-0.8-4.5-1.6-8.3-2.5c-3.8-0.9-9-1.3-15.6-1.3c-3.8,0-7.7,0.3-11.8,0.8
			c-4.1,0.6-7.9,1.7-11.3,3.5c-3.5,1.8-6.3,4.3-8.5,7.4c-2.2,3.2-3.3,7.3-3.3,12.5c0,4.6,0.7,8.4,2.2,11.6c1.5,3.2,3.6,5.7,6.4,7.6
			c2.8,1.9,6.1,3.3,9.9,4.1C2211.6,225.5,2215.9,225.9,2220.8,225.9z"/>
		<path class="st0" d="M2302.5,119.2c4.6-1.3,10.7-2.7,18.4-4.3c7.7-1.6,17.2-2.4,28.3-2.4c9.3,0,17,1.3,23.3,4
			c6.2,2.7,11.2,6.5,14.9,11.5c3.7,5,6.3,10.9,7.9,17.8c1.6,6.9,2.4,14.6,2.4,22.9V237h-15.3v-63.3c0-8.7-0.6-16-1.8-22
			c-1.2-6-3.2-10.9-5.9-14.6c-2.8-3.8-6.4-6.5-10.9-8.1c-4.5-1.7-10.1-2.5-16.9-2.5c-7.2,0-13.5,0.4-18.8,1.2
			c-5.3,0.8-8.7,1.5-10.3,2.1V237h-15.3V119.2z"/>
		<path class="st0" d="M2468.5,239.6c-5.1-9.6-10.1-19.6-14.9-30c-4.8-10.4-9.3-20.9-13.5-31.5c-4.2-10.6-8-21.2-11.5-31.9
			c-3.5-10.6-6.5-21.1-9-31.3h16.3c1.7,7.6,3.9,15.7,6.6,24.4c2.7,8.7,5.7,17.8,9.1,27c3.4,9.3,7.1,18.8,11.2,28.6
			s8.5,19.4,13.4,28.8c3.5-9.7,6.6-18.9,9.3-27.6c2.7-8.6,5.2-17.3,7.5-25.8c2.3-8.6,4.5-17.3,6.7-26.3c2.1-9,4.3-18.7,6.6-29.1
			h15.4c-5.1,22.8-10.9,45.1-17.3,66.7c-6.4,21.6-13.4,41.3-20.9,59.2c-3,7.1-6.1,13.2-9.2,18.3c-3.2,5.1-6.7,9.3-10.5,12.6
			c-3.9,3.3-8.4,5.7-13.5,7.3c-5.1,1.6-11.2,2.4-18.1,2.4c-4,0-7.6-0.5-10.8-1.4c-3.2-0.9-5.3-1.7-6-2.1l3.1-12.8
			c0.6,0.5,2.4,1.1,5.3,2c2.9,0.9,6,1.3,9.1,1.3c4.4,0,8.4-0.5,12-1.4c3.5-0.9,6.7-2.6,9.6-4.8c2.8-2.3,5.4-5.2,7.7-8.9
			C2464.2,249.7,2466.4,245.1,2468.5,239.6z"/>
		<path class="st0" d="M2566.3,226.9c0,3.6-1.1,6.7-3.4,9.2c-2.3,2.5-5.5,3.8-9.6,3.8c-4.1,0-7.3-1.3-9.6-3.8
			c-2.3-2.5-3.4-5.6-3.4-9.2c0-3.6,1.1-6.7,3.4-9.2c2.3-2.5,5.5-3.8,9.6-3.8c4.1,0,7.3,1.3,9.6,3.8
			C2565.1,220.2,2566.3,223.3,2566.3,226.9z"/>
	</g>
</g>
</svg>
