<?xml version="1.0" encoding="utf-8"?>
<!-- Generator: Adobe Illustrator 22.1.0, SVG Export Plug-In . SVG Version: 6.00 Build 0)  -->
<svg version="1.1" id="Layer_1" xmlns="http://www.w3.org/2000/svg" xmlns:xlink="http://www.w3.org/1999/xlink" x="0px" y="0px"
	 viewBox="0 0 902.7 270" style="enable-background:new 0 0 902.7 270;" xml:space="preserve">
<style type="text/css">
	.st0{fill:#B42F26;}
</style>
<g transform="matrix( 1, 0, 0, 1, 0,0) ">
	<g>
		<g id="Layer1_0_FILL">
			<path class="st0" d="M901.8,104.1h-17.5l-19.3,31.8l-19.2-31.8h-17.2l28.5,43.1l-29.3,44.3H845l20.2-32.8l20.2,32.8h17.3
				l-29.5-44.3L901.8,104.1 M782.3,102.6c-6.6,0-12.8,1.8-18.6,5.3c-5.8,3.5-10.5,8.6-14.1,15.3c-3.7,6.7-5.5,14.8-5.5,24.3v3.4
				c0,12.3,3.7,22.4,11,30.4c7.3,7.9,17,11.9,29.1,11.9c8.6,0,15.5-1.7,20.8-5.2c5.2-3.5,9.3-7.4,12.1-11.7l-9-7.2
				c-2.8,3.6-6,6.5-9.6,8.6c-3.6,2.2-8.1,3.3-13.4,3.3c-8,0-14.2-2.8-18.8-8.4c-4.6-5.7-7-12.5-7.2-20.5h59.1v-6.7
				c0-12.2-2.9-22.4-8.5-30.5C803.9,106.7,794.8,102.6,782.3,102.6 M782.3,114.9c7.6,0,13,2.5,16,7.5c3,5.1,4.6,10.5,5,16.3v1.2
				h-43.6c1-8.1,3.6-14.3,7.6-18.6C771.4,117,776.4,114.9,782.3,114.9 M675.1,74h-33.3v117.5h31.8c16.3,0,29.3-4.9,38.9-14.9
				c9.6-9.9,14.4-23.3,14.4-40.3v-7.1c0-17-4.8-30.4-14.3-40.4C703,79,690.5,74,675.1,74 M657.4,86.8h17.7
				c11.6,0,20.5,3.7,26.9,11.1c6.4,7.4,9.5,17.8,9.5,31.3v7.2c0,12.9-3.2,23.2-9.5,30.9c-6.3,7.8-15.8,11.7-28.3,11.7h-16.3V86.8
				 M624.3,104.1H612l-33.5,32.8l-9.1,9.9V67.6h-9.7v123.9h9.7v-33.4l11-10.6l35.3,44h11.6L587.2,141L624.3,104.1 M484.1,125.9
				c0-3.6,1.6-7.1,4.9-10.3c3.3-3.2,8.7-4.8,16.3-4.8c7.3,0,12.8,1.9,16.7,5.6c3.9,3.7,5.8,7.8,5.8,12.3h9.8
				c0-7.5-2.9-13.7-8.5-18.6c-5.7-5-13.6-7.4-23.7-7.4c-9.5,0-17,2.4-22.5,7.1c-5.5,4.6-8.3,10.2-8.3,16.7c0,7.2,2.6,12.6,7.9,16.1
				c5.3,3.5,12.8,6.3,22.5,8.4c9.7,2.1,16.1,4.8,19,8.1c2.9,3.3,4.3,6.7,4.3,10.3c0,4.1-1.9,7.7-5.7,10.9c-3.9,3.2-9.5,4.8-16.8,4.8
				c-5.5,0-10.9-1.3-16.1-3.8c-5.2-2.5-8-7.3-8.5-14.2h-9.6c0,6.8,2.9,12.9,8.8,18.3c5.9,5.3,14.3,7.9,25.4,7.9
				c9.8,0,17.6-2.2,23.5-6.8c5.8-4.5,8.7-10.4,8.7-17.6c0-7.5-2.9-13.3-8.7-17.3c-5-3.4-12.3-6.3-22-8.4c-9.8-2.3-16.1-4.7-18.9-7.4
				C485.5,133,484.1,129.8,484.1,125.9 M422.5,102.6c-9.9,0-18.6,4-26.1,12.1c-7.5,8-11.3,18.7-11.3,32.2v3.4
				c0,12.5,3.7,22.8,11,30.9c7.4,8,16.8,12,28.1,12c7.8,0,14.2-1.5,19.2-4.5c5-3.1,8.9-6.7,11.8-11l-6.1-4.6
				c-6,8-14.2,11.9-24.5,11.9c-8.9,0-16-3.4-21.5-10.1c-5.5-6.8-8.3-15-8.3-24.6v-1.9h62.3v-5.9c0-11.6-3-21.1-9-28.6
				C442.2,106.3,433.6,102.6,422.5,102.6 M404.1,118.9c4.9-5.4,11-8.1,18.4-8.1c8.2,0,14.4,2.9,18.5,8.7c4.1,5.8,6.2,12.3,6.4,19.6
				v1h-52.2C396.2,131.3,399.2,124.3,404.1,118.9 M353.4,88.6C344,78.9,332,74,317.4,74h-32.9v117.5h32.1c15.1,0,27.4-4.8,36.8-14.6
				c9.4-9.7,14.1-22.7,14.1-38.8v-10.8C367.5,111.3,362.8,98.3,353.4,88.6 M294.4,82.4h23c12.1,0,21.8,4.1,29.2,12.2
				c7.4,8.1,11.1,19,11.1,32.5v11c0,13.3-3.7,24.2-11.1,32.6c-7.4,8.3-17.4,12.4-29.9,12.4h-22.2V82.4 M52.3,69.6
				c13.3,2.2,25,8.4,35.1,18.4c13,13,19.5,28.6,19.5,46.9s-6.5,34-19.5,46.9c-10.1,10.1-21.8,16.3-35.1,18.5V270
				c32.4-2.5,60.4-15.6,83.9-39.3c26.5-26.4,39.7-58.3,39.7-95.8s-13.2-69.3-39.7-95.8C112.7,15.6,84.7,2.5,52.3,0V69.6 M28.2,96.3
				c-6.1,1.9-11.5,5.2-16.3,10.1C4,114.3,0,123.8,0,134.9c0,11.2,4,20.7,11.8,28.6c4.8,4.9,10.3,8.2,16.3,10.1
				c3.9,1.2,8,1.8,12.3,1.8c4.2,0,8.1-0.5,11.8-1.6c6.2-1.9,11.8-5.3,16.8-10.3c7.9-7.9,11.8-17.4,11.8-28.6
				c0-11.2-3.9-20.7-11.8-28.6c-5-5-10.6-8.4-16.8-10.2c-3.7-1.1-7.6-1.6-11.8-1.6C36.2,94.5,32.1,95.1,28.2,96.3z"/>
		</g>
	</g>
</g>
</svg>
