<?xml version="1.0" encoding="utf-8"?>
<!-- Generator: Adobe Illustrator 22.1.0, SVG Export Plug-In . SVG Version: 6.00 Build 0)  -->
<svg version="1.1" id="Layer_1" xmlns="http://www.w3.org/2000/svg" xmlns:xlink="http://www.w3.org/1999/xlink" x="0px" y="0px"
	 viewBox="0 0 146.8 55.9" style="enable-background:new 0 0 146.8 55.9;" xml:space="preserve">
<style type="text/css">
	.st0{fill:#4285F4;}
</style>
<g transform="matrix( 1, 0, 0, 1, 0,0) ">
	<g>
		<g id="Layer0_0_FILL">
			<path class="st0" d="M146.8,0h-3.4v17.1c-2.1-3.2-5.3-4.8-9.4-4.8c-3.6,0-6.5,1.4-8.7,4.3c-2.1,2.8-3.1,6.6-3.1,11.3v0.6
				c0,4.6,1,8.3,3.1,11.2c2.1,2.9,5,4.4,8.6,4.4c4.2,0,7.4-1.6,9.6-4.7l0.2,4.1h3.1V0 M134.7,15.3c2.5,0,4.4,0.6,5.8,1.8
				c1.4,1.2,2.4,2.6,3,4.1v14.4c-0.8,1.6-1.8,2.9-3.3,4c-1.4,1-3.3,1.5-5.6,1.5c-3.1,0-5.3-1.2-6.8-3.6c-1.5-2.4-2.2-5.4-2.2-9v-0.6
				c0-3.6,0.7-6.6,2.2-9C129.3,16.5,131.6,15.3,134.7,15.3 M104.2,15.2c2.2,0,4,0.6,5.3,1.8s1.9,3.3,1.9,6.4v20.1h3.4V23.4
				c0-4-0.9-6.9-2.7-8.6c-1.7-1.7-4.1-2.5-7.1-2.5c-2.2,0-4.1,0.5-5.9,1.6c-1.7,1-3.1,2.4-4.1,4.2l-0.2-5.2h-3.3v30.7H95V22.4
				c0.7-1.9,1.8-3.5,3.3-5C99.8,15.9,101.7,15.2,104.2,15.2 M64.2,12.8h-3.6l11.5,30.4l-1.5,4.1c-0.6,1.8-1.4,3.2-2.4,4.1
				c-1,0.9-2.4,1.3-4.3,1.3c-0.7,0-1.2-0.1-1.7-0.1v2.8c0.7,0.3,1.6,0.4,2.6,0.4c1.9,0,3.4-0.4,4.5-1.3s2-1.9,2.6-3
				c0.6-1.2,1.1-2.2,1.4-3.1l13-35.6h-3.6l-8.9,25.8L64.2,12.8 M80.4,1.6c-1.6,0-2.4,0.8-2.4,2.3c0,1.5,0.8,2.3,2.4,2.3
				c1.6,0,2.4-0.8,2.4-2.3C82.8,2.4,82,1.6,80.4,1.6 M68,1.6c-1.5,0-2.3,0.8-2.3,2.3c0,1.5,0.8,2.3,2.3,2.3c1.6,0,2.3-0.8,2.3-2.3
				C70.3,2.4,69.6,1.6,68,1.6 M39.7,13.8c-1.7,1-3.1,2.4-4.1,4.2V0h-3.4v43.5h3.4V22.4c0.7-1.9,1.8-3.5,3.3-5
				c1.5-1.5,3.4-2.3,5.8-2.3c2.2,0,3.9,0.6,5.3,1.8s2,3.3,2,6.4v20.1h3.4V23.4c0-4-0.9-6.9-2.6-8.6c-1.7-1.7-4.1-2.5-7.1-2.5
				C43.4,12.3,41.4,12.8,39.7,13.8 M21.7,16.6c-2.1-2.8-5-4.2-8.7-4.3c-4.2,0-7.4,1.6-9.6,4.9l-0.2-4.4H0v42.5h3.4V39.6
				c2.2,3,5.4,4.5,9.6,4.5c3.7,0,6.6-1.4,8.7-4.4c2-2.9,3-6.6,3-11.2v-0.6C24.7,23.1,23.7,19.4,21.7,16.6 M6.4,17
				c1.4-1.2,3.3-1.8,5.7-1.8c3.1,0,5.4,1.2,6.9,3.6c1.5,2.4,2.2,5.4,2.2,9v0.6c0,3.6-0.7,6.6-2.2,9c-1.5,2.5-3.8,3.7-6.9,3.7
				c-2.3,0-4.1-0.5-5.5-1.5c-1.4-1-2.5-2.3-3.3-3.9V21.1C4.1,19.6,5.1,18.2,6.4,17z"/>
		</g>
	</g>
</g>
</svg>
