<?xml version="1.0" encoding="utf-8"?>
<!-- Generator: Adobe Illustrator 22.1.0, SVG Export Plug-In . SVG Version: 6.00 Build 0)  -->
<svg version="1.1" id="Layer_1" xmlns="http://www.w3.org/2000/svg" xmlns:xlink="http://www.w3.org/1999/xlink" x="0px" y="0px"
	 viewBox="0 0 2144.7 512" style="enable-background:new 0 0 2144.7 512;" xml:space="preserve">
<style type="text/css">
	.st0{fill:#FFFFFF;}
</style>
<g transform="matrix( 1, 0, 0, 1, 0,0) ">
	<g>
		<g id="Layer1_0_FILL">
			<path class="st0" d="M41.1,461l184.3,51l185.1-51.2L451.5,0H0L41.1,461 M225.9,472.8L76,431.1L40.8,37.8h369.5l-35.1,393.3
				L225.9,472.8z"/>
		</g>
	</g>
</g>
<g transform="matrix( 1, 0, 0, 1, 0,0) ">
	<g>
		<g id="Layer0_0_FILL">
			<path class="st0" d="M1445.7,157.9h-25.5V237h-100.2v-79.1h-25.5v192.7h25.5v-90.8h100.2v90.8h25.5V157.9 M1626.5,180.6v-22.7
				h-152.8v22.7h63.5v170h25.5v-170H1626.5 M1901.4,157.9h-25.5v192.7h120.4v-22.8h-94.9V157.9 M1835.9,157.9h-34.4L1755.4,292
				c-4.6,13.6-8.1,23.8-10.3,30.9c-1.9-6.3-5-15.8-9.2-28.5l-45.6-136.4H1652v192.7h24.6v-164l55.7,164h23l56-161.3v161.3h24.6
				V157.9 M2135.7,160.5h-95.8l-18.7,98.9l22.2,2.9c3.5-5.5,8.3-10,14.4-13.5c6.2-3.5,13-5.2,20.7-5.2c12.3,0,22.2,3.9,29.8,11.7
				c7.5,7.8,11.3,18.5,11.3,31.9c0,14.2-3.9,25.6-11.8,34.2c-7.9,8.6-17.6,12.9-28.9,12.9c-9.4,0-17.5-3-24.2-9.1
				c-6.8-6.1-11.1-15.2-12.9-27.4l-24.9,2.1c1.6,16.2,7.9,29.3,19.1,39.1c11.1,9.8,25.3,14.7,42.8,14.7c21.4,0,38.3-7.8,50.6-23.4
				c10.2-12.7,15.2-27.8,15.2-45.3c0-18.3-5.8-33.3-17.3-44.9c-11.6-11.6-25.8-17.5-42.6-17.5c-12.7,0-24.8,4-36.4,12.1l10.4-51.8
				h76.9V160.5 M1151.3,227.3c-12.1,13-18.1,31.2-18.1,54.7c0,22.7,6,40.4,18,53c11.9,12.5,28.1,18.7,48.5,18.7
				c16.2,0,29.5-3.9,40-11.8c10.4-7.9,17.6-19,21.4-33.3l-24.5-3c-3.6,10-8.4,17.3-14.6,21.8c-6.1,4.5-13.5,6.8-22.2,6.8
				c-11.6,0-21.4-4.1-29.2-12.2c-7.8-8.2-12.1-19.9-13-35.3h104.1c0.1-2.8,0.1-4.9,0.1-6.3c0-23-5.9-40.9-17.7-53.6
				c-11.9-12.7-27.1-19.1-45.8-19.1C1179.1,207.8,1163.4,214.3,1151.3,227.3 M1171.3,238.2c7.4-7.3,16.5-10.9,27.4-10.9
				c12,0,21.8,4.6,29.3,13.7c4.9,5.9,7.9,14.7,8.9,26.4H1159C1159.7,255.2,1163.8,245.4,1171.3,238.2 M1071.9,232.1
				c4,2.6,6.8,5.9,8.4,10.1c1.5,4.1,2.2,10.9,2.2,20.4v87.9h23.5v-95.8c0-15.9-3.7-27.7-11.2-35.3c-7.5-7.7-18.1-11.6-31.9-11.6
				c-17.7,0-32.1,8.2-43.1,24.5c-2.7-7.7-7.4-13.7-14-18c-6.7-4.3-15.2-6.4-25.5-6.4c-9.3,0-17.6,2.1-24.9,6.3
				c-7.3,4.1-13.1,9.6-17.5,16.4V211h-21.2v139.6h23.7v-72.4c0-12.7,1.3-22.4,3.8-29.2c2.6-6.7,6.7-11.8,12.4-15.4
				c5.6-3.5,11.8-5.2,18.4-5.2c8.8,0,15,2.6,18.9,7.8c3.9,5.3,5.8,13.2,5.8,23.7v90.7h23.7v-81.1c0-14.4,3.3-24.8,9.8-31.3
				c6.5-6.5,14.6-9.8,24.4-9.8C1063.1,228.4,1067.8,229.6,1071.9,232.1 M880.8,211h-23.7v139.6h23.7V211 M880.8,157.9h-23.7v27.2
				h23.7V157.9 M817.6,232.3c5.8,0,11.6,1.7,17.3,5.1l8.2-21.9c-8.2-5.1-16.4-7.7-24.4-7.7c-5.5,0-10.6,1.6-15.1,4.7
				c-4.6,3.2-9.7,9.7-15.1,19.6V211h-21.3v139.6h23.7v-73.1c0-10,1.3-19.2,4-27.6c1.7-5.5,4.7-9.8,8.8-12.9
				C807.7,233.9,812.4,232.3,817.6,232.3 M692.9,159.8c-6.8-1.2-16.5-1.8-29.3-1.8h-72.7v192.7h25.5v-78.4h49.4
				c27.2,0,46.1-5.7,56.5-17c10.5-11.4,15.7-25.3,15.7-41.6c0-9.6-1.9-18.3-5.8-26.3c-4-7.9-9.1-14.1-15.5-18.5
				C710.3,164.4,702.3,161.3,692.9,159.8 M616.4,180.6h49.3c11.6,0,19.5,0.6,23.8,1.7c6.7,1.8,12.1,5.7,16.2,11.5
				c4,5.7,6,12.6,6,20.6c0,11.1-3.5,19.8-10.4,25.9c-6.9,6.2-18.6,9.2-35.1,9.2h-49.8V180.6 M208.1,133.1c-2.8,0.4-5.4,0.8-7.9,1.3
				s-4.8,1.1-6.8,1.7v100.7h21.7v-28.8c2.5,1.1,5,1.9,7.6,2.5c0.7,0.2,1.5,0.3,2.3,0.4c1.9,0.3,4,0.4,6.2,0.4
				c5.3,0,10.1-0.9,14.4-2.8c4.2-2,7.6-4.7,10.4-8.2c2.8-3.5,4.9-7.7,6.4-12.5c1.5-4.9,2.3-10.3,2.3-16.2c0-6.1-0.9-11.6-2.7-16.5
				c-1.8-5-4.4-9.1-7.8-12.6c-3.4-3.4-7.5-6.1-12.5-8c-4.9-1.9-10.4-2.8-16.6-2.8c-0.1,0-0.2,0-0.3,0c-2.6,0-5.3,0.1-8.1,0.3
				C213.7,132.3,210.8,132.7,208.1,133.1 M237.9,156.3c3.1,4,4.6,9.4,4.6,16.1c0,13.8-5.2,20.7-15.6,20.7c-0.7,0-1.3,0-1.9-0.1
				c-1.5-0.1-3.1-0.4-4.6-0.8c-2.2-0.6-4-1.3-5.3-2.3v-39c1.1-0.2,2.4-0.4,4.1-0.6c1.7-0.1,3.4-0.1,5.4-0.1c0.2,0,0.3,0,0.4,0
				C230.7,150.4,235,152.4,237.9,156.3 M293.6,277.6h-46.5v21.7h46.5V277.6 M118.3,222.6c-7.2,0-13.9,1.4-20.2,4.2
				c-6.2,2.9-11.7,6.5-16.3,10.9l11.8,16.6c0.8-0.7,1.9-1.7,3.3-2.9c1.6-1.3,3.4-2.5,5.5-3.8c2.1-1.2,4.4-2.3,6.9-3.2
				c2.5-0.9,5.2-1.4,8.1-1.4c3.9,0,7.2,1,9.9,2.9c2.7,1.9,4.1,5.2,4.1,9.9c0,2.2-0.5,4.3-1.5,6.3c-0.9,2.1-2.3,4.2-4,6.3
				c-1.7,2.1-3.7,4.3-5.9,6.5c-2.2,2.2-4.6,4.5-7.2,7c-3.3,3.2-6.7,6.4-10.1,9.6c-3.4,3.2-6.4,6.6-9.1,10.3c-2.7,3.7-4.8,7.7-6.5,12
				c-1.6,4.3-2.4,9-2.4,14.1c0,0.7,0,2,0,3.9c0,1.7,0.1,3.2,0.3,4.4h74.1v-20h-47.8c0.3-1.1,1.1-2.4,2.4-4.1
				c1.3-1.7,2.9-3.5,4.6-5.4c1.7-1.9,3.4-3.9,5.3-5.8c1.9-1.8,3.6-3.5,5.3-5c3.1-2.8,6.2-5.9,9.5-9.2c3.2-3.2,6.1-6.5,8.6-10
				c2.5-3.4,4.6-7,6.3-10.8c1.7-3.7,2.5-7.6,2.5-11.7c0-4.9-0.8-9.3-2.3-13.1c-1.4-3.9-3.6-7.2-6.7-9.9c-3.1-2.8-6.9-4.9-11.6-6.4
				C130.5,223.4,124.9,222.6,118.3,222.6 M362.2,225.3h-16.7c-2.3,2.4-5,4.7-7.9,6.9c-2.9,2.2-6,4.3-9.3,6.3c-3.2,2-6.5,3.8-9.9,5.4
				c-3.3,1.7-6.6,3.1-9.6,4.4l7.3,18.4c3.7-1.3,7.6-2.8,11.5-4.6c4-1.8,7.6-3.8,10.8-5.9v80h23.8V225.3z"/>
		</g>
	</g>
</g>
</svg>
