<?xml version="1.0" encoding="utf-8"?>
<!-- Generator: Adobe Illustrator 23.0.3, SVG Export Plug-In . SVG Version: 6.00 Build 0)  -->
<svg version="1.1" id="Layer_1" xmlns="http://www.w3.org/2000/svg" xmlns:xlink="http://www.w3.org/1999/xlink" x="0px" y="0px"
	 viewBox="0 0 351.6 61.8" style="enable-background:new 0 0 351.6 61.8;" xml:space="preserve">
<style type="text/css">
	.st0{fill:#007BFF;}
</style>
<g>
	<path class="st0" d="M15.8,5.3v41.5h-3V5.3H0V2.5h28.6v2.8H15.8z"/>
	<path class="st0" d="M57.1,46.9v-19c0-3.8-0.7-6.5-2-8.2c-1.4-1.7-3.5-2.6-6.4-2.6c-2.7,0-5.1,1.1-7.2,3.2
		c-2.1,2.1-3.1,5.2-3.1,9.1v17.5h-2.8V0h2.8v20.9h0.1c2.5-4.3,6.1-6.5,10.9-6.5c3.4,0,6,1.1,7.8,3.3c1.8,2.2,2.7,5.4,2.7,9.5v19.6
		H57.1z"/>
	<path class="st0" d="M70.1,31.2c0,4.4,1,7.8,3,10.2c2,2.5,4.8,3.7,8.3,3.7c3.5,0,7-1.3,10.4-3.9v3c-3.3,2.3-6.9,3.5-11,3.5
		c-4.1,0-7.4-1.5-9.9-4.4c-2.5-2.9-3.8-7.1-3.8-12.4c0-4.6,1.3-8.5,3.9-11.7c2.6-3.2,6-4.7,10.3-4.7c3.9,0,7,1.4,9.1,4.1
		c2.1,2.8,3.2,6.5,3.2,11.3v1.3H70.1z M90.6,28.6c-0.1-3.6-1-6.5-2.6-8.5c-1.6-2-3.9-3-6.7-3c-3,0-5.4,1-7.4,3
		c-1.9,2-3.1,4.8-3.6,8.6H90.6z"/>
	<path class="st0" d="M118,45.3v-3.5c3.2,2,6.4,3,9.6,3c3.5,0,6.1-0.7,7.9-2.1c1.8-1.4,2.7-3.4,2.7-6c0-2.3-0.6-4.1-1.8-5.4
		c-1.2-1.4-3.8-3.2-7.8-5.5c-4.5-2.6-7.3-4.8-8.5-6.6c-1.2-1.8-1.8-3.8-1.8-6.1c0-3.1,1.2-5.8,3.6-8c2.4-2.2,5.7-3.3,9.7-3.3
		c2.6,0,5.3,0.4,7.9,1.3v3.2c-2.6-1.2-5.4-1.8-8.3-1.8c-3,0-5.4,0.8-7.2,2.3c-1.8,1.5-2.6,3.5-2.6,5.8c0,2.3,0.6,4.1,1.8,5.4
		s3.8,3.2,7.8,5.5c4.1,2.4,6.9,4.4,8.3,6.3c1.4,1.8,2.1,3.9,2.1,6.3c0,3.4-1.2,6.2-3.5,8.3c-2.4,2.1-5.7,3.2-10,3.2
		c-1.5,0-3.3-0.2-5.3-0.7C120.6,46.5,119.1,45.9,118,45.3z"/>
	<path class="st0" d="M163,47.7c-4.6,0-8.3-1.5-11-4.6s-4-7-4-11.9c0-5.3,1.4-9.4,4.2-12.3s6.5-4.5,11.1-4.5c4.5,0,8.1,1.5,10.7,4.4
		c2.6,2.9,3.9,7,3.9,12.2c0,4.9-1.3,8.9-4,12C171.3,46.1,167.6,47.7,163,47.7z M163.2,17c-3.7,0-6.7,1.3-8.9,3.8
		c-2.2,2.5-3.3,6-3.3,10.5c0,4.1,1.1,7.5,3.2,10c2.2,2.5,5.1,3.8,8.9,3.8c3.8,0,6.8-1.2,8.8-3.7c2.1-2.5,3.1-5.9,3.1-10.3
		c0-4.5-1-8-3.1-10.4C169.9,18.2,166.9,17,163.2,17z"/>
	<path class="st0" d="M207.3,46.9V28.5c0-7.6-2.7-11.4-8.2-11.4c-3.1,0-5.6,1.1-7.5,3.4c-2,2.2-2.9,5-2.9,8.3v18.2h-2.8V15.2h2.8V21
		h0.1c2.3-4.3,5.9-6.5,10.8-6.5c3.4,0,6,1.1,7.9,3.4c1.8,2.3,2.7,5.5,2.7,9.8v19.3H207.3z"/>
	<path class="st0" d="M245,44.5c0,6-1.3,10.3-3.9,13.1s-6.6,4.1-12.1,4.1c-3.1,0-6.2-0.8-9.4-2.4v-3c3.3,1.9,6.5,2.8,9.5,2.8
		c8.7,0,13.1-4.6,13.1-13.9v-4.1h-0.1c-2.5,4.3-6.3,6.5-11.4,6.5c-3.9,0-7.1-1.4-9.5-4.2c-2.5-2.8-3.7-6.8-3.7-11.8s1.3-9.2,4-12.4
		c2.7-3.2,6.2-4.8,10.5-4.8c4.7,0,8,1.9,10.1,5.8h0.1v-5h2.8V44.5z M242.2,27.4c0-2.8-0.9-5.2-2.8-7.3S235,17,232,17
		c-3.5,0-6.3,1.3-8.4,3.9c-2.1,2.6-3.2,6.1-3.2,10.4c0,4.3,1,7.7,2.9,10.1c1.9,2.4,4.5,3.6,7.7,3.6c3.4,0,6.1-1.1,8.1-3.3
		s3-4.9,3-8.1V27.4z"/>
	<path class="st0" d="M273.1,46.9V2.5h3.1v41.6H294v2.8H273.1z"/>
	<path class="st0" d="M302.9,7.2c-0.6,0-1.2-0.2-1.6-0.7c-0.5-0.5-0.7-1-0.7-1.7c0-0.7,0.2-1.2,0.7-1.7s1-0.6,1.6-0.6
		c0.6,0,1.2,0.2,1.7,0.6c0.5,0.4,0.7,1,0.7,1.7c0,0.7-0.2,1.2-0.7,1.7C304.1,7,303.6,7.2,302.9,7.2z M301.5,46.9V15.2h2.8v31.7
		H301.5z"/>
	<path class="st0" d="M312.9,45.5v-3.4c1.1,0.9,2.4,1.7,3.9,2.2c1.5,0.5,2.8,0.8,4,0.8c5,0,7.5-2,7.5-6.1c0-1.4-0.5-2.6-1.6-3.6
		c-1.1-1-2.9-2-5.3-3.1c-3-1.3-5.2-2.7-6.4-4.1s-1.8-3.1-1.8-5.1c0-2.6,1-4.7,3-6.2c2-1.6,4.4-2.4,7.3-2.4c2.7,0,5.1,0.6,7,1.7v3.2
		c-2.4-1.5-4.8-2.3-7.3-2.3c-2.1,0-3.8,0.5-5,1.6c-1.3,1.1-1.9,2.5-1.9,4.2c0,1.5,0.4,2.7,1.2,3.7c0.8,0.9,2.6,2,5.3,3.2
		c3.3,1.5,5.6,2.9,6.8,4.1c1.2,1.3,1.9,3,1.9,5.1c0,2.5-0.9,4.6-2.8,6.2c-1.9,1.6-4.5,2.5-7.8,2.5C317.5,47.7,314.9,46.9,312.9,45.5
		z"/>
	<path class="st0" d="M351.6,46.5c-1.5,0.7-2.9,1.1-4.2,1.1c-4.7,0-7-2.8-7-8.4V17.8h-5.7v-2.6h5.7V7c0.5-0.2,0.9-0.3,1.4-0.5
		c0.5-0.1,1-0.3,1.4-0.5v9.2h8.3v2.6h-8.3v20.9c0,2.2,0.3,3.8,1,4.7c0.7,1,1.9,1.5,3.5,1.5c1.2,0,2.4-0.4,3.8-1.1V46.5z"/>
</g>
</svg>
