<?xml version="1.0" encoding="utf-8"?>
<!-- Generator: Adobe Illustrator 19.1.0, SVG Export Plug-In . SVG Version: 6.00 Build 0)  -->
<svg version="1.1" id="Selected_Items" xmlns="http://www.w3.org/2000/svg" xmlns:xlink="http://www.w3.org/1999/xlink" x="0px"
	 y="0px" viewBox="0 0 670.1 376.3" style="enable-background:new 0 0 670.1 376.3;" xml:space="preserve">
<style type="text/css">
	.st0{fill-rule:evenodd;clip-rule:evenodd;fill:#3F3F3F;}
	.st1{fill-rule:evenodd;clip-rule:evenodd;fill:#D29612;}
	.st2{fill-rule:evenodd;clip-rule:evenodd;fill:#AED000;}
	
		.st3{fill-rule:evenodd;clip-rule:evenodd;fill:none;stroke:#3F3F3F;stroke-linecap:square;stroke-linejoin:round;stroke-miterlimit:3;}
	.st4{fill:#333333;}
	
		.st5{fill-rule:evenodd;clip-rule:evenodd;fill:none;stroke:#333333;stroke-width:3;stroke-linecap:square;stroke-linejoin:round;stroke-miterlimit:3;}
	
		.st6{fill-rule:evenodd;clip-rule:evenodd;fill:none;stroke:#000000;stroke-linecap:round;stroke-linejoin:round;stroke-miterlimit:3;stroke-opacity:0.251;}
	
		.st7{fill-rule:evenodd;clip-rule:evenodd;fill:none;stroke:#AED000;stroke-width:2.5;stroke-linecap:round;stroke-linejoin:round;stroke-miterlimit:3;}
	
		.st8{fill-rule:evenodd;clip-rule:evenodd;fill:none;stroke:#FF00FF;stroke-linecap:round;stroke-linejoin:round;stroke-miterlimit:3;stroke-opacity:0;}
	
		.st9{fill-rule:evenodd;clip-rule:evenodd;fill:none;stroke:#A8780E;stroke-width:3;stroke-linecap:square;stroke-linejoin:round;stroke-miterlimit:3;}
</style>
<symbol  id="legend" viewBox="0 -55.8 94.7 55.8">
	<g id="Layer_3_1_">
		<path class="st0" d="M94.7-0.4c-0.1,0.1-0.2,0.3-0.3,0.4h0.3V-0.4z M82.6-12.9h-4.3V-17h3.1v-2.3h-3.1v-4.1h4.3v-2.3h-6.5v15.1
			h6.5V-12.9z M91.1-35.1v-2.3h-4.3v-4.1H90v-2.3h-3.1V-48h4.3v-2.3h-6.5v15.1H91.1z M82.6-40.3h-2.4v1.8c0,0.4-0.1,0.7-0.4,0.9
			c-0.3,0.3-0.6,0.4-0.9,0.4c-0.4,0-0.7-0.1-1-0.4c-0.2-0.3-0.4-0.6-0.4-0.9v-8.3c0-0.4,0.1-0.7,0.4-1c0.3-0.2,0.6-0.4,1-0.4
			c0.3,0,0.6,0.1,0.9,0.4c0.3,0.3,0.4,0.6,0.4,1v2.9H79v2.3h3.6v-5.3c0-1-0.4-1.9-1.1-2.5c-0.7-0.7-1.5-1.1-2.5-1.1
			s-1.9,0.4-2.5,1.1c-0.7,0.7-1.1,1.6-1.1,2.5v8.3c0,1,0.4,1.8,1.1,2.5c0.7,0.7,1.5,1,2.5,1s1.9-0.3,2.5-1c0.7-0.7,1.1-1.6,1.1-2.5
			V-40.3z M74-10.6v-11.7c0-1-0.3-1.9-1-2.6c-0.7-0.7-1.5-1-2.5-1s-1.9,0.4-2.6,1c-0.7,0.7-1,1.6-1,2.6v11.7H69v-11.7
			c0-0.4,0.1-0.7,0.4-0.9c0.3-0.3,0.6-0.4,0.9-0.4c0.4,0,0.7,0.1,0.9,0.4c0.3,0.2,0.4,0.5,0.4,0.9v11.7H74z M63.8-11.6
			c0.7-0.7,1.1-1.6,1.1-2.6v-7.9c0-1-0.4-1.9-1.1-2.6c-0.7-0.7-1.5-1-2.5-1h-3.5v15.1h3.5C62.3-10.6,63.1-11,63.8-11.6z M62.3-13.4
			C62-13.1,61.7-13,61.4-13H60v-10.5h1.4c0.4,0,0.7,0.1,0.9,0.4c0.3,0.3,0.4,0.6,0.4,1v7.9C62.6-13.9,62.5-13.6,62.3-13.4z
			 M54.5-11.6c0.5-0.6,0.8-1.5,0.8-2.6v-2.2c0-1.1-0.4-2-1.2-2.7l1.7-6.6h-2.5L51.9-20c-0.1,0-0.1,0-0.2,0h-1.4v-5.7h-2.3v15.1h3.5
			C53-10.6,53.9-11,54.5-11.6z M46-10.6v-11.7c0-1-0.3-1.9-1-2.6c-0.7-0.7-1.5-1-2.5-1s-1.9,0.4-2.6,1c-0.7,0.7-1,1.6-1,2.6v11.7H41
			v-11.7c0-0.4,0.1-0.7,0.4-0.9c0.3-0.3,0.6-0.4,0.9-0.4c0.4,0,0.7,0.1,0.9,0.4c0.3,0.2,0.4,0.5,0.4,0.9v11.7H46z M50.4-17.8h1.4
			c0.4,0,0.7,0.1,0.9,0.4c0.3,0.3,0.4,0.6,0.4,0.9v2.3c0,0.9-0.4,1.3-1.3,1.3h-1.4V-17.8z M59.7-35.1c1.3,0,2.3-0.4,2.8-1
			c0.5-0.6,0.8-1.5,0.8-2.6V-41c0-1.1-0.4-2-1.2-2.7l1.7-6.6h-2.5L60-44.5c-0.1,0-0.1,0-0.2,0h-1.4v-5.7h-2.3v15.1H59.7z M46.2-35.1
			l-2.8-15.1h-3.1l-2.7,15.1H40L41.9-47l1.9,11.9H46.2z M50.4-41.5h3.1v-2.3h-3.1V-48h4.3v-2.3h-6.5v15.1h6.5v-2.3h-4.3V-41.5z
			 M58.4-42.3h1.4c0.4,0,0.7,0.1,0.9,0.4c0.3,0.3,0.4,0.6,0.4,0.9v2.3c0,0.9-0.4,1.3-1.3,1.3h-1.4V-42.3z M69.7-38.6l-0.8-5.9h1.6
			L69.7-38.6z M68.5-46.8L68-50.3h-2.4l2.5,15.1h3.1l2.6-15.1h-2.4l-0.6,3.5H68.5z M36.1-11.6c0.6-0.7,0.9-1.5,0.9-2.6v-2.2
			c0-1-0.4-1.8-1-2.5c-0.7-0.7-1.5-1-2.5-1h-1.4v-5.7h-2.3v15.1h3.5C34.5-10.6,35.4-11,36.1-11.6z M32.1-13v-4.8h1.4
			c0.4,0,0.7,0.1,0.9,0.4c0.3,0.3,0.4,0.6,0.4,0.9v2.3c0,0.4-0.1,0.7-0.3,1c-0.2,0.2-0.6,0.3-1,0.3H32.1z M35.5-35.1l2.6-15.1h-2.4
			l-0.6,3.5h-2.4l-0.5-3.5h-2.4l2.5,15.1H35.5z M34.8-44.5L34-38.6l-0.8-5.9H34.8z"/>
		<path class="st1" d="M85.8-31.5H9.5c-2.5,0.2-4.6,1.3-6.4,3.1C1-26.4,0-23.9,0-21c0,2.9,1,5.5,3.1,7.6c2.1,2.1,4.6,3.1,7.5,3.1
			c2.9,0,5.4-1,7.5-3.1c2-2,3.1-4.4,3.1-7.2c0.3-4.6,2.8-6.9,7.6-7h56.9c0.5,0,0.9-0.2,1.3-0.6c0.4-0.4,0.6-0.9,0.6-1.4
			c0-0.5-0.2-1-0.6-1.4C86.7-31.4,86.3-31.5,85.8-31.5z"/>
		<path class="st2" d="M87.1-52.5c0.4-0.4,0.6-0.9,0.6-1.4c0-0.5-0.2-1-0.6-1.4c-0.4-0.4-0.8-0.6-1.3-0.6h-66
			c-1.9,0-3.5,0.7-4.9,2.1c-1.4,1.4-2.1,3.1-2.1,5.1c0,2,0.7,3.6,2.1,5c1.4,1.4,3.1,2.1,5.1,2.1c2,0,3.6-0.7,5-2.1
			c1.3-1.3,2-2.8,2.1-4.5c0,0,0-0.1,0-0.1v-0.3c0.3-1.7,0.9-2.7,1.9-3.2c0.3-0.1,0.5-0.2,0.8-0.2h56C86.3-51.9,86.7-52.1,87.1-52.5z
			"/>
	</g>
</symbol>
<symbol  id="timetable" viewBox="24.7 -273.7 254.3 273.7">
	<g id="Layer_3_2_">
		<path class="st2" d="M108.9-53.5l-4,5.7c17.1,12.5,36.7,18.7,58.9,18.7c28,0,51.9-9.9,71.7-29.7c19.8-19.8,29.8-43.7,29.8-71.7
			s-9.9-51.9-29.8-71.7c-19.8-19.8-43.7-29.8-71.7-29.8c-2.4,0-4.7,0.1-7,0.2c0,0-0.1,0-0.1,0c-7.2,0.5-14.2,1.6-20.8,3.4l1.9,6.7
			c6.2-1.7,12.7-2.8,19.5-3.2c2.2-0.1,4.3-0.2,6.5-0.2c26.1,0,48.4,9.2,66.8,27.7c18.5,18.4,27.7,40.7,27.7,66.8
			c0,26.1-9.2,48.4-27.7,66.8C212.1-45.3,189.9-36,163.8-36C143-36,124.8-41.9,108.9-53.5z"/>
		<path class="st1" d="M155.8-245.6L155.8-245.6l0.2,2.6L155.8-245.6l0.2,2.6l0.8,11.2c2.3-0.1,4.6-0.2,7-0.2
			c28,0,51.9,9.9,71.7,29.8c19.8,19.8,29.8,43.7,29.8,71.7s-9.9,51.9-29.8,71.7c-19.8,19.8-43.7,29.7-71.7,29.7
			c-22.2,0-41.8-6.2-58.9-18.7l4-5.7c-4.2-3-8.2-6.4-12-10.3c-2.9-2.9-5.5-5.8-7.9-8.8L72.5-59.8c2.9,3.7,6.2,7.3,9.7,10.8
			c4.7,4.7,9.5,8.8,14.5,12.5l0,0c19.4,14.1,41.7,21.2,67,21.2c31.8,0,59-11.3,81.5-33.8c22.5-22.5,33.8-49.7,33.8-81.5
			c0-31.8-11.3-59-33.8-81.5c-22.5-22.5-49.7-33.8-81.5-33.8C161-245.9,158.4-245.8,155.8-245.6z"/>
		<path class="st0" d="M163.9-5c0-0.9-0.3-1.7-0.9-2.3c-0.6-0.6-1.4-1-2.4-1.1l-1.2,0l0.3-5l-2-0.1l-1,13.3l3.5,0.2
			c1.1,0.1,2-0.2,2.6-0.8c0.6-0.6,0.9-1.4,0.9-2.3L163.9-5z M240.4-104.1c1.8-1.8,2.8-4,2.8-6.6c0-2.6-0.9-4.9-2.8-6.7
			c-1.9-1.9-4.1-2.8-6.7-2.8c-1.2,0-2.3,0.2-3.3,0.6c-0.6,0.3-1.3,0.6-1.9,0.9c-34.2,17.2-75,21.2-122.3,12.2
			c-1.2-0.5-2.4-0.7-3.8-0.7c-2.6,0-4.9,0.9-6.7,2.8c-0.4,0.4-0.7,0.8-1,1.2v0.4h-0.3c-1,1.5-1.5,3.2-1.5,5.1c0,2.6,0.9,4.8,2.8,6.7
			c0.8,0.8,1.7,1.5,2.7,2c0.7,0.3,1.4,0.5,2.1,0.7c49.9,13.6,95.4,9.1,136.6-13.5c0.6-0.2,1.1-0.5,1.6-0.9c0.3-0.3,0.7-0.6,1.1-0.9
			C240.1-103.9,240.3-104,240.4-104.1z M224.4-138.3c0.8-0.4,1.6-0.9,2.3-1.5c1.5-1.6,2.3-3.4,2.3-5.5c0-2.1-0.8-4-2.3-5.6
			c-1.5-1.5-3.4-2.2-5.5-2.2c-0.9,0-1.7,0.1-2.5,0.3c-0.7,0.3-1.4,0.6-2,1c-33.4,16.9-68.5,20.9-105.3,12.2
			c-0.6-0.2-1.2-0.4-1.9-0.5c-0.3,0-0.6,0-1,0c-2.1,0-3.9,0.8-5.5,2.3c-1.5,1.5-2.3,3.4-2.3,5.5c0,2.1,0.8,3.9,2.3,5.5
			c0.8,0.8,1.6,1.3,2.6,1.7c0.4,0.2,0.8,0.3,1.1,0.4l0.5,0c0.1,0,0.3,0.1,0.4,0.1c42.8,11.1,81.6,6.6,116.6-13.6c0,0-0.1,0-0.1,0
			L224.4-138.3L224.4-138.3z M212.5-170c0.3-0.2,0.5-0.4,0.7-0.6c1.2-1.2,1.8-2.6,1.8-4.4c0-1.7-0.6-3.1-1.8-4.3
			c-1.2-1.2-2.7-1.8-4.4-1.8c-0.6,0-1.2,0.1-1.8,0.2c-0.7,0.2-1.3,0.5-1.9,1c-25.6,13.2-56,16.7-91.2,10.4c-1-0.1-1.9-0.3-2.9-0.6
			c-0.1,0-0.2,0-0.3,0h0c-1.4,0.2-2.6,0.8-3.7,1.8c-1.2,1.2-1.9,2.6-1.9,4.3c0,1.7,0.6,3.1,1.9,4.3c1,1,2.1,1.6,3.3,1.8
			c0.3,0,0.6,0,1,0c0,0,0.1,0,0.2,0c37.6,9,70.6,5.2,99-11.3C211.2-169.2,211.9-169.5,212.5-170z M159-2.1l0.3-4.3l1.3,0
			c0.3,0.1,0.6,0.2,0.9,0.4c0.3,0.3,0.4,0.5,0.3,0.8v2c0,0.3-0.2,0.6-0.4,0.8c-0.3,0.2-0.6,0.3-1,0.3L159-2.1z M154.6-0.4l1-10.3
			c0.1-0.9-0.1-1.6-0.7-2.3c-0.6-0.7-1.3-1.1-2.3-1.2c-0.9-0.1-1.7,0.2-2.4,0.7c-0.7,0.5-1.1,1.1-1.2,2l-1.4,10.3l2.1,0.3l1.3-10.3
			c0.1-0.3,0.2-0.5,0.5-0.8c0.3-0.2,0.6-0.3,0.9-0.2c0.3,0,0.6,0.2,0.9,0.4c0.2,0.3,0.3,0.5,0.2,0.9l-1.1,10.2L154.6-0.4z M145-4.8
			l0.3-1.5L143-6.6L142.8-5c0,0.3-0.2,0.5-0.5,0.7c-0.2,0.2-0.5,0.3-0.9,0.1c-0.3,0-0.6-0.2-0.8-0.5c-0.2-0.2-0.3-0.5-0.2-0.8
			l1.5-7.1c0.1-0.4,0.3-0.6,0.5-0.8c0.3-0.2,0.6-0.2,0.9-0.1c0.3,0,0.5,0.1,0.7,0.4c0.2,0.3,0.3,0.6,0.3,0.9l-0.5,2.6l-1.2-0.2
			l-0.4,2l3.4,0.5l0.8-4.5c0.1-0.9-0.1-1.6-0.6-2.4c-0.5-0.8-1.2-1.2-2.1-1.4c-0.8-0.2-1.6,0-2.4,0.5c-0.7,0.5-1.2,1.1-1.4,2
			L138.2-6c-0.2,0.9,0,1.6,0.5,2.4c0.5,0.8,1.3,1.3,2.3,1.5c1,0.2,1.9,0,2.6-0.5C144.4-3.2,144.8-3.9,145-4.8z M135.6-3.5l3-13
			l-2.1-0.5c-1.6,2.5-3.3,5-5,7.5l2.3-8.2l-2-0.5l-3.6,12.8l2.4,0.6c1.5-2.2,3.2-4.8,5.1-8L133.4-4L135.6-3.5z M126.3-6l3.8-12.8
			l-1.9-0.6L124-6.7L126.3-6z M124.4-20.7c-1.4,1.7-2.7,3.1-3.9,4.4l-0.2-1.3l1.5-4l-1.9-0.8L115-10l2,0.8l1.8-4.5
			c0.1,1.1,0.4,2.9,0.8,5.5l2.3,0.7l-1.1-6.1c2.3-2.4,4.2-4.5,5.8-6.3C125.4-20.3,124.6-20.6,124.4-20.7z M106-13.9
			c1.5-5.2,2.8-9.6,3.9-13l-1.8-0.8l-4.4,5.9l2.4-7l-1.6-1c-2.5,3.1-5.4,6.6-8.8,10.4l2,1.1l4.5-5.6L99.8-17l2.1,1.1
			c1.3-1.6,2.7-3.6,4.3-5.8l-2.3,6.8L106-13.9z M113.5-19.5l-2.9,4.4l1.5-5.1L113.5-19.5z M114.6-21.3l-2-0.9l0.9-3l-1.9-0.9
			c-1.2,4-2.4,8.4-3.6,13.1l2.8,1.3c2.5-3.6,4.9-7.4,7.4-11.4l-2-0.9L114.6-21.3z M49.4-45l1.1-5.8l1.1,5.8h1.7V-53H52v5.1L51-53h-1
			L48.8-48V-53h-1.2v8.1H49.4z M45.2-45l1.3-8.1h-1.3L45-51.2h-1.3L43.4-53h-1.3l1.4,8.1H45.2z M24.8-46.7c0,0.5,0.2,0.9,0.5,1.3
			c0.4,0.4,0.8,0.5,1.4,0.5h0.1c0.6,0,1-0.2,1.4-0.5c0.3-0.4,0.5-0.8,0.5-1.3v-0.4c0-0.5-0.2-1-0.5-1.3c-0.1-0.1-0.3-0.3-0.5-0.3
			c0.4-0.2,0.6-0.5,0.9-0.9c0.1-0.2,0.1-0.4,0.1-0.8v-0.8c0-0.5-0.2-1-0.5-1.3c-0.4-0.4-0.8-0.6-1.4-0.6h-0.1c-0.5,0-1,0.2-1.4,0.6
			s-0.5,0.8-0.5,1.3v0.8c0,0.5,0.2,0.9,0.5,1.3c0.1,0.2,0.3,0.3,0.4,0.4c-0.3,0.2-0.5,0.4-0.7,0.8c-0.1,0.2-0.2,0.5-0.2,0.8V-46.7z
			 M26.1-46.1c-0.1-0.1-0.2-0.3-0.3-0.4c0-0.1,0-0.3,0-0.5c0-0.4,0.1-0.6,0.1-0.8c0.1-0.2,0.4-0.3,0.7-0.3c0.3,0,0.5,0.1,0.6,0.3
			c0.1,0.2,0.2,0.4,0.2,0.8c0,0.6-0.2,0.9-0.5,1c-0.1,0-0.2,0-0.3,0C26.5-46,26.3-46,26.1-46.1z M35-45V-50h0.8v-1.3H35V-53h-1.3
			v1.8h-2.2v1.3l2.2,5.1H35z M38-46.1v-1.8c0.1,0.2,0.3,0.3,0.5,0.4c0.1,0,0.3,0,0.4,0c0.6,0,1-0.2,1.2-0.5c0.2-0.3,0.4-0.8,0.4-1.4
			v-1.8c0-0.6-0.2-1.1-0.6-1.5c-0.4-0.4-0.8-0.5-1.4-0.5c-0.5,0-1,0.2-1.3,0.6c-0.3,0.4-0.5,0.8-0.5,1.3v0.2l1.1,0.1l0-0.3
			c0-0.3,0.1-0.5,0.4-0.6c0.1-0.1,0.2-0.1,0.3-0.1c0.5,0,0.8,0.3,0.8,0.8v2c0,0.2-0.1,0.4-0.3,0.6c-0.1,0.1-0.2,0.1-0.4,0.1
			c-0.2,0-0.4-0.1-0.5-0.2C38.1-48.8,38-49,38-49.1v-0.2h-1.3v4.4h3.6v-1.2H38z M30.7-48.4v-1.2h-1.2v1.2H30.7z M33.7-50v2.5l-1-2.5
			H33.7z M30.7-53h-1.2v1.3h1.2V-53z M27.1-49.6c-0.1,0.1-0.2,0.1-0.4,0.1c-0.3,0-0.6-0.1-0.7-0.4c-0.1-0.2-0.1-0.4-0.1-0.7V-51
			c0-0.3,0.1-0.5,0.3-0.6c0.1-0.1,0.3-0.2,0.6-0.3c0.3,0,0.5,0.2,0.6,0.5c0,0.1,0,0.2,0,0.4v0.4C27.4-50.1,27.3-49.8,27.1-49.6z
			 M44.8-50l-0.4,3.2L43.9-50H44.8z M120.5-273.6h-1.3v6.2h-1v0.9c0.3,0,0.6,0.1,0.9,0.3c0.3,0.2,0.4,0.4,0.5,0.7h0.9V-273.6z
			 M148.4-265.5v-8.1h-1.3v5.1l-1.1-5.1h-0.9l-1.2,5.1v-5.1h-1.3v8.1h1.8l1.1-5.8l1.1,5.8H148.4z M130.8-265.5v-8.1h-1.3v6.2h-1v0.9
			c0.3,0,0.6,0.1,0.8,0.3c0.3,0.2,0.5,0.4,0.6,0.7H130.8z M123.6-265.5c0.5,0,1-0.2,1.4-0.6c0.4-0.4,0.5-0.9,0.5-1.4
			c0-0.6-0.1-1.1-0.4-1.6c-0.1-0.3-0.4-0.8-0.9-1.4c-0.1-0.2-0.3-0.5-0.6-0.9l-0.3-0.3c-0.1-0.2-0.2-0.4-0.3-0.5l-0.1-0.1h2.4v-1.2
			h-3.9v1.1c0,0,0.1,0.2,0.3,0.5c0.1,0.1,0.1,0.3,0.3,0.4l0.4,0.5c0.2,0.2,0.4,0.6,0.8,1.2c0.4,0.5,0.7,1,0.9,1.4
			c0.1,0.4,0.2,0.7,0.2,1c0,0.3-0.1,0.5-0.2,0.6c-0.1,0.2-0.3,0.3-0.5,0.3c-0.4,0-0.6-0.2-0.8-0.6c0-0.1-0.1-0.3-0.1-0.5v-0.3h-1.3
			v0.2c0,0.8,0.2,1.3,0.7,1.8C122.5-265.7,123-265.5,123.6-265.5z M126.4-269h1.2v-1.3h-1.2V-269z M140.3-265.5l1.4-8.1h-1.3
			l-0.3,1.9h-1.3l-0.3-1.9h-1.3l1.4,8.1H140.3z M135.5-265.5v-1.2h-2.4v-1.8c0.1,0.2,0.3,0.3,0.5,0.4c0.1,0.1,0.2,0.1,0.4,0.1
			c0.5,0,0.9-0.2,1.2-0.5c0.2-0.3,0.3-0.8,0.3-1.4v-1.8c0-0.6-0.2-1-0.5-1.4c-0.4-0.4-0.8-0.6-1.4-0.6c-0.5,0-1,0.2-1.4,0.6
			c-0.3,0.4-0.5,0.8-0.5,1.4v0.1l1.2,0.1v-0.3c0-0.3,0.2-0.5,0.4-0.6c0.1,0,0.1-0.1,0.3-0.1c0.5,0,0.8,0.3,0.8,0.8v2
			c0,0.2-0.1,0.4-0.3,0.6c-0.1,0.1-0.2,0.1-0.4,0.1c-0.2,0-0.4-0.1-0.5-0.3c-0.1-0.1-0.1-0.3-0.1-0.5v-0.3h-1.3v4.5H135.5z
			 M139.5-267.4l-0.5-3.1h0.9L139.5-267.4z M127.6-273.6h-1.2v1.2h1.2V-273.6z M211.1-238l5.2-12.3l-2.1-0.9l-3.1,7.8l1.3-8.5
			l-1.7-0.6c-1.7,2.4-3.3,4.8-4.9,7.1l2.8-7.9l-2.2-0.7l-4.2,12.6l2.8,1c1.3-2.2,3-5,5.1-8.3c-0.5,3.1-1.1,6.3-1.7,9.6L211.1-238z
			 M219.5-246.8l3.7,1.8l0.9-1.8c-1.7-0.9-3.6-1.8-5.8-2.8l-5.4,12.2c1.8,0.8,3.6,1.6,5.3,2.5l0.9-1.9l-3.5-1.6l1.5-3.3l2.6,1.3
			l0.9-1.9l-2.6-1.3L219.5-246.8z M170.7-247.3c0.8,0,1.5-0.1,2.2-0.5c0.6-0.3,1-0.8,1.4-1.6c0.2-0.4,0.3-0.9,0.3-1.4
			c0.1-1-0.1-1.7-0.6-2.2c-0.1-0.2-0.3-0.4-0.7-0.6l0.5-0.3c0.4-0.2,0.7-0.5,0.8-0.7c0.2-0.3,0.4-0.7,0.6-1.3l0.1-0.9
			c0.1-0.9,0-1.6-0.3-2.2c-0.3-0.5-0.6-0.9-1.1-1.1c-0.5-0.4-1.1-0.6-1.6-0.6c-1.7-0.1-3.1-0.1-4.2-0.1l-0.4,13.4L170.7-247.3z
			 M182-246.2l0.3-2l-3.8-0.5l0.4-3.6l2.9,0.3l0.3-2c-1.5-0.2-2.5-0.3-2.9-0.3l0.4-3.7l4.1,0.6l0.3-2c-2-0.3-4.1-0.6-6.4-0.8
			l-1.3,13.3L182-246.2z M200.6-241.9l4-12.8l-2.1-0.6l-3.8,12.8L200.6-241.9z M191.5-246.5l-0.5,2c2.3,0.5,4.3,1,6.1,1.5l0.5-1.9
			l-2.1-0.6l2.9-11l-2.2-0.5l-2.7,11L191.5-246.5z M186.5-245.5c0.8,0.2,1.6,0.1,2.4-0.4c0.7-0.5,1.2-1.2,1.4-2.1l1.5-6.8
			c0.2-0.8,0-1.6-0.5-2.4c-0.5-0.8-1.3-1.2-2.3-1.4c-0.9-0.2-2.1-0.4-3.5-0.6l-2.1,13.1L186.5-245.5z M187.9-247.6
			c-0.3,0.2-0.6,0.3-0.9,0.2l-1.2-0.2l1.6-9.2l1.3,0.3c0.4,0.1,0.6,0.2,0.8,0.5c0.2,0.3,0.3,0.6,0.2,0.9l-1.4,6.9
			C188.2-248,188.1-247.8,187.9-247.6z M172.4-250.9c-0.1,0.6-0.2,1-0.5,1.2c-0.3,0.3-0.7,0.4-1.1,0.4c-0.3,0-0.6,0-0.8,0l0.1-3.4
			c0.2,0,0.5,0,0.9,0c0.6,0,1,0.4,1.3,1C172.3-251.6,172.4-251.3,172.4-250.9z M172.9-256.6c-0.1,0.7-0.3,1.3-0.6,1.6
			c-0.3,0.3-0.7,0.4-1.2,0.4l-0.9-0.1l0.1-4l0.9,0.1c0.7,0,1.2,0.4,1.5,1.1L172.9-256.6z"/>
		<path class="st3" d="M89-72.5L72.5-59.8l-10.4,8C62-51.9,62-52,61.9-52c-0.7-0.7-1.6-1.1-2.6-1.1s-1.9,0.4-2.6,1.1
			c-0.7,0.7-1.1,1.5-1.1,2.5c0,0.8,0.3,1.6,0.8,2.2c0.1,0.1,0.2,0.3,0.3,0.4c0.7,0.7,1.6,1,2.6,1s1.9-0.4,2.6-1
			c0.7-0.7,1.1-1.6,1.1-2.6c0-0.9-0.3-1.6-0.8-2.3 M156.8-231.8L156-243l-0.2-2.6l-1.4-20.1c0,0,0.1,0,0.1,0c0.1,0,0.2,0,0.4,0
			c1-0.2,1.8-0.7,2.4-1.5c0.5-0.8,0.7-1.8,0.5-2.8c-0.2-1-0.8-1.8-1.6-2.4c-0.7-0.5-1.4-0.6-2.2-0.6c-0.1,0-0.1,0-0.2,0
			c-0.1,0-0.2,0-0.3,0c-1,0.2-1.8,0.7-2.3,1.6c-0.6,0.8-0.8,1.7-0.6,2.7c0.2,1,0.7,1.8,1.5,2.4c0.7,0.5,1.4,0.7,2.1,0.6
			c0,0,0.1,0,0.1,0"/>
	</g>
</symbol>
<g>
	<path class="st1" d="M340,112.6v1.1l-1.5,6.1h-1l1.5-6.1h-2.2v-1.1H340z M342.6,112.3c0.3,0,0.5,0.1,0.6,0.3
		c0.2,0.2,0.3,0.4,0.3,0.6v2.1c0,0.2-0.1,0.4-0.3,0.6c-0.2,0.2-0.4,0.3-0.6,0.3c-0.2,0-0.4-0.1-0.6-0.3c-0.2-0.2-0.3-0.4-0.3-0.6
		v-2.1c0-0.2,0.1-0.4,0.3-0.6C342.2,112.4,342.4,112.3,342.6,112.3z M346.3,112.4l-3.6,7.5h-0.6l3.6-7.5H346.3z M346,116.7
		c-0.1-0.1-0.1-0.1-0.3-0.1c-0.1,0-0.2,0-0.2,0.1c-0.1,0-0.1,0.1-0.1,0.2v2.1c0,0.1,0,0.2,0.1,0.3c0,0,0.1,0,0.2,0
		c0.1,0,0.2,0,0.3,0c0.1-0.1,0.1-0.1,0.1-0.3v-2.1C346.1,116.8,346.1,116.7,346,116.7z M346.4,116.3c0.2,0.2,0.3,0.4,0.3,0.6v2.1
		c0,0.2-0.1,0.4-0.3,0.6c-0.2,0.2-0.4,0.3-0.6,0.3c-0.3,0-0.5-0.1-0.7-0.3c-0.2-0.2-0.3-0.4-0.3-0.6v-2.1c0-0.2,0.1-0.4,0.3-0.6
		c0.2-0.2,0.4-0.3,0.7-0.3C346,116,346.2,116.1,346.4,116.3z M342.2,113.2v2.1c0,0.1,0,0.1,0.1,0.2c0.1,0.1,0.1,0.1,0.3,0.1
		c0.1,0,0.2,0,0.3-0.1c0-0.1,0-0.1,0-0.2v-2.1c0-0.1,0-0.2,0-0.3c-0.1,0-0.2,0-0.3,0c-0.1,0-0.2,0-0.3,0
		C342.3,113,342.2,113.1,342.2,113.2z M335,119.8h-1.1v-5.5H333v-0.8c0.3,0,0.5-0.1,0.8-0.3c0.2-0.1,0.4-0.3,0.5-0.5h0.8V119.8z
		 M373.9,238.5c0.3,0.4,0.5,0.8,0.5,1.3c0,0.5-0.1,0.9-0.3,1.4c-0.1,0.2-0.4,0.7-0.8,1.3c-0.1,0.2-0.3,0.4-0.5,0.8l-0.2,0.3
		c-0.1,0.2-0.2,0.3-0.3,0.4v0.1h2.1v1h-3.5v-1l0.3-0.4c0.1-0.1,0.2-0.2,0.3-0.3l0.3-0.4c0.1-0.2,0.4-0.6,0.8-1
		c0.3-0.5,0.6-0.9,0.8-1.3c0.1-0.3,0.2-0.6,0.2-0.8c0-0.2-0.1-0.4-0.2-0.6c-0.1-0.1-0.3-0.2-0.5-0.2c-0.3,0-0.5,0.2-0.6,0.5
		c0,0.1,0,0.2,0,0.4v0.3H371V240c0-0.7,0.2-1.2,0.6-1.6c0.3-0.3,0.7-0.5,1.2-0.5C373.2,237.9,373.6,238.1,373.9,238.5z M386.1,237.7
		l-3.6,7.5h-0.6l3.6-7.5H386.1z M386.1,241.6c0.2,0.2,0.3,0.4,0.3,0.6v2.1c0,0.2-0.1,0.4-0.3,0.6c-0.2,0.2-0.4,0.3-0.6,0.3
		c-0.3,0-0.5-0.1-0.7-0.3c-0.2-0.2-0.3-0.4-0.3-0.6v-2.1c0-0.2,0.1-0.4,0.3-0.6s0.4-0.3,0.7-0.3C385.8,241.3,386,241.4,386.1,241.6z
		 M385.7,242c-0.1-0.1-0.1-0.1-0.3-0.1c-0.1,0-0.2,0-0.2,0.1c-0.1,0-0.1,0.1-0.1,0.2v2.1c0,0.1,0,0.2,0.1,0.3c0,0,0.1,0,0.2,0
		c0.1,0,0.2,0,0.3,0c0.1-0.1,0.1-0.2,0.1-0.3v-2.1C385.9,242.1,385.8,242,385.7,242z M383.2,238.5v2c0,0.2-0.1,0.4-0.3,0.6
		c-0.2,0.2-0.4,0.3-0.6,0.3c-0.2,0-0.4-0.1-0.6-0.3c-0.2-0.2-0.3-0.4-0.3-0.6v-2c0-0.2,0.1-0.4,0.3-0.6c0.2-0.2,0.4-0.3,0.6-0.3
		c0.3,0,0.5,0.1,0.6,0.3C383.2,238.1,383.2,238.3,383.2,238.5z M382.6,238.3c-0.1,0-0.2,0-0.3,0c-0.1,0-0.2,0-0.3,0
		c-0.1,0.1-0.1,0.1-0.1,0.3v2c0,0.1,0,0.1,0.1,0.2c0.1,0.1,0.1,0.1,0.3,0.1c0.1,0,0.2,0,0.3-0.1c0-0.1,0-0.1,0-0.2v-2
		C382.6,238.4,382.6,238.3,382.6,238.3z M377.9,238.8c-0.2,0-0.3,0-0.5,0.2c-0.1,0.1-0.2,0.2-0.2,0.3c0,0.1-0.1,0.3-0.1,0.5
		c0,0.3,0.1,0.5,0.2,0.7c0.1,0.2,0.3,0.3,0.5,0.3c0.3,0,0.5-0.1,0.6-0.3c0.1-0.2,0.1-0.4,0.1-0.7c0-0.5-0.2-0.8-0.5-1
		C378.1,238.8,378.1,238.8,377.9,238.8z M379.2,238.4c0.3,0.3,0.4,0.7,0.4,1.2v0.4c0,0.4-0.1,0.8-0.4,1.1c-0.1,0.1-0.2,0.2-0.3,0.3
		c0.3,0.2,0.5,0.4,0.7,0.8c0.1,0.2,0.1,0.4,0.1,0.7v0.7c0,0.5-0.2,0.9-0.5,1.2c-0.3,0.3-0.7,0.5-1.2,0.5h-0.1
		c-0.5,0-0.9-0.2-1.2-0.5c-0.3-0.3-0.5-0.7-0.5-1.1v-0.7c0-0.5,0.2-0.8,0.5-1.2c0.1-0.1,0.3-0.3,0.5-0.3c-0.3-0.2-0.5-0.4-0.7-0.8
		c-0.1-0.2-0.1-0.4-0.1-0.7v-0.4c0-0.5,0.1-0.9,0.4-1.2c0.3-0.3,0.7-0.5,1.2-0.5h0.1C378.5,237.9,378.9,238,379.2,238.4z M377.9,242
		c-0.3,0-0.5,0.1-0.5,0.4c-0.1,0.1-0.1,0.3-0.1,0.5v0.4c0,0.2,0.1,0.4,0.2,0.6c0.1,0.1,0.3,0.2,0.5,0.2c0.3,0,0.5-0.1,0.6-0.4
		c0.1-0.1,0.1-0.2,0.1-0.3v-0.4c0-0.4-0.1-0.7-0.3-0.8C378.2,242,378.1,242,377.9,242z M201.3,59.6c0.1-0.2,0.3-0.3,0.4-0.4
		c0.1-0.1,0.2-0.1,0.4-0.1c0.5,0,0.8,0.2,1.1,0.5c0.2,0.3,0.3,0.7,0.3,1.2v1.5c0,0.5-0.2,1-0.5,1.3c-0.3,0.3-0.7,0.5-1.2,0.5
		c-0.5,0-0.9-0.2-1.2-0.6c-0.3-0.3-0.5-0.7-0.5-1.1v-0.2l1.1-0.1v0.2c0,0.3,0.1,0.5,0.3,0.6c0.1,0,0.1,0,0.2,0
		c0.4,0,0.6-0.2,0.6-0.7v-1.8c0-0.2-0.1-0.4-0.2-0.5c-0.1-0.1-0.2-0.1-0.3-0.1c-0.2,0-0.4,0.1-0.4,0.2c-0.1,0.1-0.1,0.3-0.1,0.4v0.2
		h-1.1v-3.9h3.1V58h-2V59.6z M212,56.9c0.2,0.2,0.3,0.4,0.3,0.6v2c0,0.2-0.1,0.4-0.3,0.6c-0.2,0.2-0.4,0.3-0.6,0.3
		c-0.2,0-0.4-0.1-0.6-0.3c-0.2-0.2-0.3-0.4-0.3-0.6v-2c0-0.2,0.1-0.4,0.3-0.6c0.2-0.2,0.4-0.3,0.6-0.3
		C211.7,56.6,211.9,56.7,212,56.9z M207,61.5v-2.3l-0.9,2.3H207z M205.1,62.5v-1.1l1.9-4.5h1.1v4.5h0.7v1.1h-0.7v1.5H207v-1.5H205.1
		z M211.6,57.3c-0.1,0-0.1-0.1-0.3-0.1c-0.1,0-0.2,0-0.3,0.1c-0.1,0.1-0.1,0.1-0.1,0.3v2c0,0.1,0,0.1,0.1,0.2
		c0.1,0.1,0.1,0.1,0.3,0.1c0.1,0,0.2,0,0.3-0.1c0-0.1,0-0.1,0-0.2v-2C211.7,57.4,211.7,57.3,211.6,57.3z M215.1,56.7l-3.6,7.5h-0.6
		l3.6-7.5H215.1z M215.2,60.6c0.2,0.2,0.3,0.4,0.3,0.6v2c0,0.2-0.1,0.5-0.3,0.6c-0.2,0.2-0.4,0.2-0.6,0.2c-0.3,0-0.5-0.1-0.7-0.2
		c-0.2-0.2-0.3-0.4-0.3-0.6v-2c0-0.2,0.1-0.4,0.3-0.6c0.2-0.2,0.4-0.3,0.7-0.3C214.8,60.3,215,60.4,215.2,60.6z M214.8,61
		c-0.1-0.1-0.1-0.1-0.3-0.1c-0.1,0-0.2,0-0.2,0.1c-0.1,0-0.1,0.1-0.1,0.2v2c0,0.1,0,0.2,0.1,0.3c0,0,0.1,0.1,0.2,0.1
		c0.1,0,0.2,0,0.3-0.1c0.1-0.1,0.1-0.1,0.1-0.3v-2C214.9,61.1,214.9,61,214.8,61z M45.4,238.2l-3.6,7.5h-0.6l3.6-7.5H45.4z
		 M41.1,238.4c0.2-0.2,0.4-0.3,0.6-0.3c0.3,0,0.5,0.1,0.7,0.3c0.2,0.2,0.3,0.4,0.3,0.6v2c0,0.2-0.1,0.4-0.3,0.6
		c-0.2,0.2-0.4,0.3-0.7,0.3c-0.2,0-0.4-0.1-0.6-0.3c-0.2-0.2-0.3-0.4-0.3-0.6v-2C40.8,238.8,40.9,238.6,41.1,238.4z M41.9,238.8
		c-0.1,0-0.1,0-0.3,0c-0.1,0-0.2,0-0.3,0c-0.1,0.1-0.1,0.1-0.1,0.3v2c0,0.1,0,0.1,0.1,0.2c0.1,0.1,0.2,0.1,0.3,0.1
		c0.1,0,0.2,0,0.3-0.1c0-0.1,0.1-0.1,0.1-0.2v-2C42,238.9,42,238.8,41.9,238.8z M45.5,242.1c0.2,0.2,0.3,0.4,0.3,0.6v2.1
		c0,0.2-0.1,0.4-0.3,0.6c-0.2,0.2-0.4,0.3-0.6,0.3c-0.3,0-0.5-0.1-0.6-0.3c-0.2-0.2-0.3-0.4-0.3-0.6v-2.1c0-0.2,0.1-0.4,0.3-0.6
		c0.2-0.2,0.4-0.3,0.6-0.3C45.1,241.8,45.3,241.9,45.5,242.1z M45.1,242.5c-0.1-0.1-0.2-0.1-0.3-0.1c-0.1,0-0.2,0-0.2,0.1
		c-0.1,0-0.1,0.1-0.1,0.2v2.1c0,0.1,0,0.2,0.1,0.3c0,0,0.1,0,0.2,0c0.1,0,0.2,0,0.3,0c0.1-0.1,0.1-0.2,0.1-0.3v-2.1
		C45.2,242.6,45.2,242.5,45.1,242.5z M39,239.5h-2.1v1.5c0.1-0.2,0.3-0.3,0.5-0.3c0.1-0.1,0.2-0.1,0.4-0.1c0.5,0,0.8,0.2,1,0.5
		c0.2,0.3,0.3,0.7,0.3,1.2v1.5c0,0.5-0.2,1-0.5,1.3c-0.3,0.3-0.7,0.5-1.2,0.5c-0.5,0-0.9-0.2-1.2-0.5c-0.3-0.3-0.4-0.7-0.4-1.1v-0.2
		l1,0v0.2c0,0.3,0.1,0.5,0.4,0.6c0.1,0,0.1,0,0.2,0c0.4,0,0.6-0.2,0.6-0.7v-1.8c0-0.2-0.1-0.4-0.2-0.5c-0.1-0.1-0.2-0.1-0.3-0.1
		c-0.2,0-0.4,0.1-0.5,0.2c-0.1,0.1-0.1,0.3-0.1,0.4v0.2h-1v-3.9H39V239.5z M31.9,240.1v-0.8c0.3,0,0.5-0.1,0.8-0.3
		c0.2-0.1,0.4-0.3,0.5-0.5h0.8v7.1h-1.1v-5.5H31.9z M142.9,347.8v1.3c0,0.2,0.1,0.4,0.2,0.5c0.1,0.1,0.2,0.1,0.3,0.1
		c0.3,0,0.4-0.2,0.5-0.5c0-0.1,0-0.2,0-0.2v-1.3c0-0.2,0-0.3-0.1-0.5c-0.1-0.1-0.2-0.2-0.4-0.2c-0.2,0-0.3,0.1-0.4,0.2
		C142.9,347.5,142.9,347.6,142.9,347.8z M143.4,346.1c0.5,0,0.8,0.2,1.1,0.5c0.3,0.3,0.4,0.7,0.4,1.2v3.9c0,0.5-0.1,0.9-0.4,1.2
		c-0.3,0.3-0.7,0.5-1.1,0.5c-0.5,0-0.9-0.2-1.2-0.5c-0.3-0.3-0.5-0.7-0.5-1.2v-0.2h1.2v0.2c0,0.2,0,0.3,0.1,0.5
		c0.1,0.1,0.2,0.2,0.4,0.2c0.2,0,0.3,0,0.4-0.2c0.1-0.1,0.1-0.3,0.1-0.5v-1.4c-0.3,0.2-0.5,0.3-0.8,0.3c-0.5,0-0.8-0.2-1.1-0.5
		c-0.2-0.3-0.4-0.7-0.4-1.2v-1.2c0-0.3,0.1-0.6,0.3-0.9c0.2-0.3,0.4-0.5,0.7-0.6C142.9,346.1,143.1,346.1,143.4,346.1z M147,346.1
		c0.2-0.2,0.4-0.3,0.6-0.3c0.3,0,0.5,0.1,0.6,0.3c0.2,0.2,0.3,0.4,0.3,0.6v2c0,0.2-0.1,0.4-0.3,0.6c-0.2,0.2-0.4,0.3-0.6,0.3
		c-0.2,0-0.4-0.1-0.6-0.3c-0.2-0.2-0.3-0.4-0.3-0.6v-2C146.7,346.5,146.8,346.3,147,346.1z M147.9,346.5c-0.1,0-0.2-0.1-0.3-0.1
		c-0.1,0-0.2,0-0.3,0.1c-0.1,0.1-0.1,0.1-0.1,0.3v2c0,0.1,0,0.1,0.1,0.2c0.1,0.1,0.1,0.1,0.3,0.1c0.1,0,0.2,0,0.3-0.1
		c0-0.1,0-0.1,0-0.2v-2C147.9,346.6,147.9,346.5,147.9,346.5z M151.3,345.9l-3.6,7.5H147l3.6-7.5H151.3z M139.8,346.2v7.1h-1.1v-5.5
		h-0.9V347c0.3,0,0.5-0.1,0.8-0.3c0.2-0.1,0.4-0.3,0.5-0.6H139.8z M150.4,350.4v2c0,0.1,0,0.2,0.1,0.3c0,0,0.1,0.1,0.2,0.1
		s0.2,0,0.3-0.1c0.1-0.1,0.1-0.1,0.1-0.3v-2c0-0.1,0-0.2-0.1-0.2c-0.1-0.1-0.1-0.1-0.3-0.1s-0.2,0-0.2,0.1
		C150.5,350.2,150.4,350.3,150.4,350.4z M150.8,349.5c0.2,0,0.4,0.1,0.6,0.3c0.2,0.2,0.3,0.4,0.3,0.6v2c0,0.2-0.1,0.5-0.3,0.7
		c-0.2,0.2-0.4,0.3-0.6,0.3c-0.3,0-0.5-0.1-0.6-0.3c-0.2-0.2-0.3-0.4-0.3-0.7v-2c0-0.2,0.1-0.4,0.3-0.6
		C150.3,349.6,150.5,349.5,150.8,349.5z M264.8,347.9v0.4c0,0.4-0.1,0.8-0.4,1.1c-0.1,0.1-0.2,0.2-0.4,0.3c0.3,0.2,0.5,0.4,0.7,0.8
		c0.1,0.2,0.2,0.4,0.2,0.7v0.6c0,0.5-0.2,0.9-0.5,1.2c-0.3,0.3-0.7,0.5-1.2,0.5H263c-0.5,0-0.9-0.2-1.2-0.5
		c-0.3-0.3-0.5-0.7-0.5-1.2v-0.6c0-0.5,0.1-0.9,0.4-1.2c0.1-0.1,0.3-0.3,0.5-0.3c-0.3-0.2-0.5-0.4-0.7-0.8c-0.1-0.2-0.1-0.4-0.1-0.7
		v-0.4c0-0.5,0.1-0.8,0.4-1.1c0.3-0.3,0.7-0.5,1.2-0.5h0.1c0.5,0,0.9,0.2,1.2,0.5C264.6,347.1,264.8,347.5,264.8,347.9z
		 M266.9,346.3c0.2-0.2,0.4-0.3,0.6-0.3c0.3,0,0.5,0.1,0.6,0.3c0.2,0.2,0.3,0.4,0.3,0.6v2.1c0,0.2-0.1,0.4-0.3,0.6
		c-0.2,0.2-0.4,0.3-0.6,0.3c-0.2,0-0.4-0.1-0.6-0.3c-0.2-0.2-0.3-0.4-0.3-0.6v-2.1C266.6,346.7,266.7,346.5,266.9,346.3z
		 M267.8,346.7c-0.1,0-0.1,0-0.3,0s-0.2,0-0.3,0c-0.1,0.1-0.1,0.2-0.1,0.3v2.1c0,0.1,0,0.1,0.1,0.2c0.1,0.1,0.1,0.1,0.3,0.1
		s0.2,0,0.3-0.1c0-0.1,0-0.1,0-0.2v-2.1C267.8,346.8,267.8,346.7,267.8,346.7z M271.2,346.1l-3.6,7.5h-0.7l3.7-7.5H271.2z
		 M263.1,347.2c-0.2,0-0.3,0-0.5,0.1c-0.1,0.1-0.2,0.2-0.2,0.4c0,0.1,0,0.3,0,0.5c0,0.3,0,0.5,0.1,0.6c0.1,0.2,0.3,0.3,0.6,0.3
		c0.3,0,0.5-0.1,0.6-0.3c0.1-0.2,0.1-0.4,0.1-0.6c0-0.5-0.1-0.8-0.4-1C263.3,347.2,263.2,347.2,263.1,347.2z M263.1,350.4
		c-0.3,0-0.5,0.1-0.6,0.4c-0.1,0.1-0.1,0.3-0.1,0.5v0.3c0,0.2,0.1,0.4,0.2,0.6c0.1,0.1,0.3,0.1,0.5,0.1c0.3,0,0.5-0.1,0.6-0.4
		c0.1-0.1,0.1-0.2,0.1-0.4v-0.3c0-0.4-0.1-0.7-0.3-0.8C263.4,350.4,263.3,350.4,263.1,350.4z M271.5,350.6v2c0,0.2-0.1,0.5-0.3,0.7
		c-0.2,0.2-0.4,0.3-0.6,0.3c-0.3,0-0.5-0.1-0.6-0.3c-0.2-0.2-0.3-0.4-0.3-0.7v-2c0-0.2,0.1-0.4,0.3-0.6c0.2-0.2,0.4-0.3,0.6-0.3
		c0.2,0,0.4,0.1,0.6,0.3C271.5,350.1,271.5,350.3,271.5,350.6z M270.4,350.4c-0.1,0-0.1,0.1-0.1,0.2v2c0,0.1,0,0.2,0.1,0.3
		c0,0,0.1,0,0.2,0s0.2,0,0.3,0c0.1-0.1,0.1-0.1,0.1-0.3v-2c0-0.1,0-0.2-0.1-0.2c-0.1-0.1-0.1-0.1-0.3-0.1S270.5,350.3,270.4,350.4z"
		/>
	<path class="st2" d="M346.3,120l-3.6,7.5h-0.6l3.6-7.5H346.3z M346.6,124.5v2.1c0,0.2-0.1,0.4-0.3,0.6c-0.2,0.2-0.4,0.3-0.6,0.3
		c-0.3,0-0.5-0.1-0.7-0.3c-0.2-0.2-0.3-0.4-0.3-0.6v-2.1c0-0.2,0.1-0.4,0.3-0.6c0.2-0.2,0.4-0.3,0.7-0.3c0.2,0,0.4,0.1,0.6,0.3
		C346.6,124,346.6,124.2,346.6,124.5z M345.7,124.2c-0.1,0-0.2,0-0.2,0.1c-0.1,0-0.1,0.1-0.1,0.2v2.1c0,0.1,0,0.2,0.1,0.3
		c0,0,0.1,0,0.2,0c0.1,0,0.2,0,0.3,0c0.1-0.1,0.1-0.2,0.1-0.3v-2.1c0-0.1,0-0.2-0.1-0.2C345.9,124.2,345.9,124.2,345.7,124.2z
		 M336.8,120.2h3.2v1.1l-1.5,6h-1l1.5-6h-2.2V120.2z M342.6,119.9c0.3,0,0.5,0.1,0.6,0.3c0.2,0.2,0.3,0.4,0.3,0.6v2
		c0,0.2-0.1,0.4-0.3,0.6c-0.2,0.2-0.4,0.3-0.6,0.3c-0.2,0-0.4-0.1-0.6-0.3c-0.2-0.2-0.3-0.4-0.3-0.6v-2c0-0.2,0.1-0.4,0.3-0.6
		C342.2,120,342.4,119.9,342.6,119.9z M342.9,120.6c-0.1,0-0.2,0-0.3,0c-0.1,0-0.2,0-0.3,0c-0.1,0.1-0.1,0.1-0.1,0.3v2
		c0,0.1,0,0.1,0.1,0.2s0.1,0.1,0.3,0.1c0.1,0,0.2,0,0.3-0.1c0-0.1,0-0.1,0-0.2v-2C342.9,120.7,342.9,120.6,342.9,120.6z M335,127.4
		h-1.1v-5.5H333v-0.8c0.3,0,0.5-0.1,0.8-0.3c0.2-0.1,0.4-0.3,0.5-0.5h0.8V127.4z M372.1,247.5v0.3H371v-0.2c0-0.7,0.2-1.2,0.6-1.5
		c0.3-0.3,0.7-0.5,1.2-0.5c0.5,0,0.9,0.2,1.2,0.5c0.3,0.4,0.5,0.8,0.5,1.3s-0.1,0.9-0.3,1.4c-0.1,0.2-0.4,0.6-0.8,1.3
		c-0.1,0.2-0.3,0.4-0.5,0.8l-0.2,0.3c-0.1,0.2-0.2,0.3-0.3,0.5v0.1h2.1v1h-3.5v-1l0.3-0.4c0.1-0.1,0.2-0.2,0.3-0.4l0.3-0.4
		c0.1-0.2,0.4-0.6,0.8-1c0.3-0.5,0.6-0.9,0.8-1.3c0.1-0.3,0.2-0.6,0.2-0.8c0-0.2-0.1-0.4-0.2-0.5c-0.1-0.1-0.3-0.2-0.5-0.2
		c-0.3,0-0.5,0.2-0.6,0.5C372.1,247.2,372.1,247.3,372.1,247.5z M385.9,245.3l-3.6,7.5h-0.6l3.6-7.5H385.9z M377.4,248.2
		c0.1-0.2,0.3-0.3,0.5-0.3c0.1-0.1,0.2-0.1,0.3-0.1c0.5,0,0.8,0.2,1,0.5c0.2,0.3,0.3,0.7,0.3,1.2v1.6c0,0.5-0.2,1-0.5,1.3
		c-0.3,0.3-0.7,0.5-1.2,0.5s-0.9-0.2-1.2-0.5c-0.3-0.3-0.5-0.7-0.5-1.2v-0.2l1,0v0.2c0,0.3,0.2,0.5,0.4,0.6c0.1,0,0.1,0,0.2,0
		c0.4,0,0.6-0.2,0.6-0.7v-1.8c0-0.2-0.1-0.4-0.2-0.5c-0.1-0.1-0.2-0.1-0.3-0.1c-0.2,0-0.3,0.1-0.5,0.2c-0.1,0.1-0.1,0.3-0.1,0.4v0.2
		h-1v-3.9h3.1v1.1h-2V248.2z M382.1,245.2c0.3,0,0.5,0.1,0.7,0.3c0.2,0.2,0.3,0.4,0.3,0.6v2c0,0.2-0.1,0.4-0.3,0.6
		c-0.2,0.2-0.4,0.3-0.7,0.3c-0.2,0-0.4-0.1-0.6-0.3c-0.2-0.2-0.3-0.4-0.3-0.6v-2c0-0.2,0.1-0.4,0.3-0.6
		C381.7,245.3,381.9,245.2,382.1,245.2z M382.4,245.9c-0.1,0-0.2,0-0.3,0c-0.1,0-0.2,0-0.3,0c-0.1,0.1-0.1,0.2-0.1,0.3v2
		c0,0.1,0,0.1,0.1,0.2c0.1,0.1,0.2,0.1,0.3,0.1c0.1,0,0.2,0,0.3-0.1c0-0.1,0-0.1,0-0.2v-2C382.4,246,382.4,245.9,382.4,245.9z
		 M385,251.8c0,0.1,0,0.2,0.1,0.3c0,0,0.1,0,0.2,0c0.1,0,0.2,0,0.3,0c0.1-0.1,0.1-0.2,0.1-0.3v-2c0-0.1,0-0.2-0.1-0.2
		c-0.1-0.1-0.2-0.1-0.3-0.1c-0.1,0-0.2,0-0.2,0.1c-0.1,0-0.1,0.1-0.1,0.2V251.8z M384.7,249.2c0.2-0.2,0.4-0.3,0.7-0.3
		c0.2,0,0.4,0.1,0.6,0.3c0.2,0.2,0.3,0.4,0.3,0.6v2c0,0.2-0.1,0.5-0.3,0.7c-0.2,0.2-0.4,0.3-0.6,0.3c-0.3,0-0.5-0.1-0.7-0.3
		c-0.2-0.2-0.3-0.4-0.3-0.7v-2C384.4,249.5,384.5,249.3,384.7,249.2z M214.9,64.3l-3.6,7.5h-0.6l3.6-7.5H214.9z M214,68.8v2
		c0,0.1,0,0.2,0.1,0.3c0,0,0.1,0,0.2,0c0.1,0,0.2,0,0.3,0c0.1-0.1,0.1-0.1,0.1-0.3v-2c0-0.1,0-0.2-0.1-0.2c-0.1-0.1-0.1-0.1-0.3-0.1
		c-0.1,0-0.2,0-0.2,0.1C214,68.6,214,68.7,214,68.8z M214.4,67.9c0.2,0,0.4,0.1,0.6,0.3c0.2,0.2,0.3,0.4,0.3,0.6v2
		c0,0.2-0.1,0.5-0.3,0.6c-0.2,0.2-0.4,0.3-0.6,0.3c-0.3,0-0.5-0.1-0.7-0.3c-0.2-0.2-0.3-0.4-0.3-0.6v-2c0-0.2,0.1-0.4,0.3-0.6
		C213.9,68,214.1,67.9,214.4,67.9z M210.8,65.1v2.1c0,0.1,0,0.1,0.1,0.2c0.1,0.1,0.1,0.1,0.3,0.1c0.1,0,0.2,0,0.3-0.1
		c0-0.1,0-0.1,0-0.2v-2.1c0-0.1,0-0.2,0-0.3c-0.1,0-0.1,0-0.3,0c-0.1,0-0.2,0-0.3,0C210.8,64.9,210.8,65,210.8,65.1z M212,65.1v2.1
		c0,0.2-0.1,0.4-0.3,0.6c-0.2,0.2-0.4,0.3-0.6,0.3c-0.2,0-0.4-0.1-0.6-0.3c-0.2-0.2-0.3-0.4-0.3-0.6v-2.1c0-0.2,0.1-0.4,0.3-0.6
		c0.2-0.2,0.4-0.3,0.6-0.3c0.3,0,0.5,0.1,0.6,0.3C212,64.7,212,64.9,212,65.1z M208.5,66.2v3.9c0,0.5-0.1,0.9-0.5,1.2
		c-0.3,0.3-0.7,0.4-1.1,0.4c-0.5,0-0.9-0.2-1.2-0.5c-0.3-0.3-0.4-0.7-0.4-1.1v-0.2h1.1v0.2c0,0.2,0,0.3,0.1,0.5
		c0.1,0.1,0.2,0.1,0.4,0.1c0.2,0,0.3-0.1,0.4-0.1c0.1-0.1,0.1-0.3,0.1-0.5v-1.5c-0.3,0.2-0.5,0.4-0.8,0.4c-0.5,0-0.8-0.2-1-0.5
		c-0.2-0.3-0.4-0.7-0.4-1.2v-1.2c0-0.3,0.1-0.6,0.3-0.9c0.2-0.3,0.4-0.5,0.7-0.6c0.2-0.1,0.4-0.1,0.6-0.1c0.5,0,0.9,0.2,1.1,0.5
		C208.4,65.3,208.5,65.7,208.5,66.2z M207.3,65.7c-0.1-0.1-0.2-0.1-0.4-0.1c-0.2,0-0.3,0-0.4,0.1c-0.1,0.1-0.1,0.3-0.1,0.5v1.3
		c0,0.2,0.1,0.4,0.2,0.6c0.1,0.1,0.2,0.1,0.3,0.1c0.3,0,0.4-0.1,0.5-0.4c0-0.1,0-0.2,0-0.2v-1.3C207.4,66,207.4,65.9,207.3,65.7z
		 M203.3,65.6h-2v1.6c0.1-0.2,0.3-0.3,0.4-0.4c0.1-0.1,0.2-0.1,0.4-0.1c0.5,0,0.8,0.2,1.1,0.5c0.2,0.3,0.3,0.7,0.3,1.2V70
		c0,0.5-0.2,1-0.5,1.3c-0.3,0.3-0.7,0.5-1.2,0.5c-0.5,0-0.9-0.2-1.2-0.6c-0.3-0.3-0.5-0.7-0.5-1.1v-0.2l1.1,0V70
		c0,0.3,0.1,0.5,0.3,0.6c0.1,0,0.1,0.1,0.2,0.1c0.4,0,0.6-0.2,0.6-0.7v-1.8c0-0.2-0.1-0.4-0.2-0.5c-0.1-0.1-0.2-0.1-0.3-0.1
		c-0.2,0-0.4,0.1-0.4,0.2c-0.1,0.1-0.1,0.3-0.1,0.4v0.2h-1.1v-3.9h3.1V65.6z M45.4,245.8l-3.6,7.5h-0.6l3.6-7.5H45.4z M42.6,246.6v2
		c0,0.2-0.1,0.4-0.3,0.6c-0.2,0.2-0.4,0.3-0.7,0.3c-0.2,0-0.4-0.1-0.6-0.3c-0.2-0.2-0.3-0.4-0.3-0.6v-2c0-0.2,0.1-0.4,0.3-0.6
		c0.2-0.2,0.4-0.3,0.6-0.3c0.3,0,0.5,0.1,0.7,0.3C42.5,246.2,42.6,246.4,42.6,246.6z M41.4,246.6v2c0,0.1,0,0.1,0.1,0.2
		c0.1,0.1,0.2,0.1,0.3,0.1c0.1,0,0.2,0,0.3-0.1c0-0.1,0.1-0.1,0.1-0.2v-2c0-0.1,0-0.2-0.1-0.3c-0.1,0-0.1,0-0.3,0
		c-0.1,0-0.2,0-0.3,0C41.4,246.4,41.4,246.5,41.4,246.6z M31.9,247.7v-0.8c0.3,0,0.5-0.1,0.8-0.3c0.2-0.1,0.4-0.3,0.5-0.5h0.8v7.1
		h-1.1v-5.5H31.9z M37.4,246c0.5,0,0.9,0.2,1.2,0.5c0.3,0.3,0.4,0.7,0.4,1.2v3.9c0,0.5-0.1,0.9-0.4,1.2c-0.3,0.3-0.7,0.5-1.2,0.5
		c-0.5,0-0.9-0.2-1.2-0.5c-0.3-0.3-0.5-0.7-0.5-1.2v-0.2h1.1v0.2c0,0.2,0,0.3,0.1,0.5c0.1,0.1,0.2,0.1,0.4,0.1c0.2,0,0.3,0,0.4-0.1
		c0.1-0.1,0.1-0.3,0.1-0.5v-1.5c-0.3,0.2-0.5,0.4-0.8,0.4c-0.5,0-0.8-0.2-1-0.5c-0.2-0.3-0.4-0.7-0.4-1.2v-1.2
		c0-0.3,0.1-0.6,0.3-0.9c0.2-0.3,0.4-0.5,0.7-0.6C37,246,37.2,246,37.4,246z M37.9,247.2c-0.1-0.1-0.2-0.2-0.4-0.2
		c-0.2,0-0.3,0-0.4,0.2c-0.1,0.1-0.1,0.3-0.1,0.4v1.3c0,0.2,0.1,0.4,0.2,0.5c0.1,0.1,0.2,0.1,0.3,0.1c0.3,0,0.4-0.1,0.5-0.5
		c0-0.1,0.1-0.2,0.1-0.2v-1.3C38,247.5,37.9,247.4,37.9,247.2z M45.5,249.7c0.2,0.2,0.3,0.4,0.3,0.6v2c0,0.2-0.1,0.5-0.3,0.7
		c-0.2,0.2-0.4,0.3-0.6,0.3c-0.3,0-0.5-0.1-0.6-0.3c-0.2-0.2-0.3-0.4-0.3-0.7v-2c0-0.2,0.1-0.4,0.3-0.6c0.2-0.2,0.4-0.3,0.6-0.3
		C45.1,249.4,45.3,249.5,45.5,249.7z M45.1,250.1c-0.1-0.1-0.2-0.1-0.3-0.1c-0.1,0-0.2,0-0.2,0.1c-0.1,0-0.1,0.1-0.1,0.2v2
		c0,0.1,0,0.2,0.1,0.3c0,0,0.1,0,0.2,0c0.1,0,0.2,0,0.3,0c0.1-0.1,0.1-0.2,0.1-0.3v-2C45.2,250.2,45.2,250.1,45.1,250.1z
		 M141.3,355.5c0,0.5-0.1,0.9-0.3,1.4c-0.1,0.2-0.4,0.7-0.8,1.3c-0.1,0.2-0.3,0.4-0.5,0.8l-0.2,0.3c-0.1,0.2-0.2,0.3-0.3,0.5v0.1
		h2.1v1h-3.4v-1l0.3-0.4c0.1-0.1,0.1-0.2,0.3-0.4l0.3-0.4c0.1-0.2,0.4-0.6,0.8-1.1c0.3-0.5,0.6-0.9,0.8-1.3c0.1-0.3,0.2-0.6,0.2-0.8
		c0-0.2-0.1-0.4-0.2-0.5c-0.1-0.1-0.3-0.2-0.5-0.2c-0.3,0-0.5,0.2-0.6,0.5c0,0.1,0,0.2,0,0.4v0.3h-1.1v-0.1c0-0.7,0.2-1.2,0.6-1.5
		c0.3-0.3,0.7-0.5,1.2-0.5c0.5,0,0.9,0.2,1.2,0.5C141.1,354.6,141.3,355.1,141.3,355.5z M147.4,354.1c-0.1,0.1-0.1,0.2-0.1,0.3v2
		c0,0.1,0,0.1,0.1,0.2c0.1,0.1,0.1,0.1,0.3,0.1c0.1,0,0.2,0,0.3-0.1c0-0.1,0-0.1,0-0.2v-2c0-0.1,0-0.2,0-0.3c-0.1,0-0.1,0-0.3,0
		C147.5,354,147.5,354,147.4,354.1z M148.3,353.7c0.2,0.2,0.3,0.4,0.3,0.6v2c0,0.2-0.1,0.4-0.3,0.6c-0.2,0.2-0.4,0.3-0.6,0.3
		c-0.2,0-0.4-0.1-0.6-0.3c-0.2-0.2-0.3-0.4-0.3-0.6v-2c0-0.2,0.1-0.4,0.3-0.6c0.2-0.2,0.4-0.3,0.6-0.3
		C147.9,353.4,148.1,353.5,148.3,353.7z M151.4,353.5l-3.6,7.5h-0.6l3.6-7.5H151.4z M145,353.8v7.1h-1.1v-5.5H143v-0.8
		c0.3,0,0.5-0.1,0.8-0.3c0.2-0.1,0.4-0.3,0.5-0.5H145z M151.7,358v2c0,0.2-0.1,0.5-0.3,0.6c-0.2,0.2-0.4,0.3-0.6,0.3
		c-0.3,0-0.5-0.1-0.7-0.3c-0.2-0.2-0.3-0.4-0.3-0.6v-2c0-0.2,0.1-0.4,0.3-0.6c0.2-0.2,0.4-0.3,0.7-0.3c0.2,0,0.4,0.1,0.6,0.3
		C151.6,357.5,151.7,357.7,151.7,358z M151,357.8c-0.1-0.1-0.1-0.1-0.3-0.1c-0.1,0-0.2,0-0.2,0.1c-0.1,0-0.1,0.1-0.1,0.2v2
		c0,0.1,0,0.2,0.1,0.3c0,0,0.1,0,0.2,0c0.1,0,0.2,0,0.3,0c0.1-0.1,0.1-0.2,0.1-0.3v-2C151.1,357.9,151.1,357.8,151,357.8z
		 M263.4,354v7.1h-1.1v-5.5h-0.9v-0.8c0.3,0,0.5-0.1,0.8-0.3c0.2-0.1,0.4-0.3,0.5-0.5H263.4z M272,353.9c0.2,0.2,0.3,0.4,0.3,0.6v2
		c0,0.2-0.1,0.4-0.3,0.6c-0.2,0.2-0.4,0.3-0.6,0.3c-0.2,0-0.4-0.1-0.6-0.3c-0.2-0.2-0.3-0.4-0.3-0.6v-2c0-0.2,0.1-0.4,0.3-0.6
		c0.2-0.2,0.4-0.3,0.6-0.3C271.7,353.6,271.9,353.7,272,353.9z M266.4,356.1h-1.1V356c0-0.7,0.2-1.2,0.6-1.6
		c0.3-0.3,0.7-0.5,1.2-0.5c0.5,0,0.9,0.2,1.2,0.6c0.3,0.4,0.5,0.8,0.5,1.3c0,0.5-0.1,0.9-0.3,1.4c-0.1,0.2-0.4,0.7-0.8,1.3
		c-0.1,0.2-0.3,0.4-0.5,0.8l-0.2,0.3c-0.1,0.2-0.2,0.3-0.3,0.4v0.1h2.1v1h-3.4v-1l0.3-0.4c0.1-0.1,0.1-0.2,0.3-0.3l0.3-0.4
		c0.1-0.2,0.4-0.6,0.8-1c0.3-0.5,0.6-0.9,0.8-1.3c0.1-0.3,0.2-0.6,0.2-0.8c0-0.2-0.1-0.4-0.2-0.6c-0.1-0.1-0.3-0.2-0.5-0.2
		c-0.3,0-0.5,0.2-0.6,0.5c0,0.1,0,0.2,0,0.4V356.1z M271.6,354.3c-0.1,0-0.1,0-0.3,0s-0.2,0-0.3,0c-0.1,0.1-0.1,0.1-0.1,0.3v2
		c0,0.1,0,0.1,0.1,0.2s0.1,0.1,0.3,0.1s0.2,0,0.3-0.1c0-0.1,0-0.1,0-0.2v-2C271.7,354.4,271.7,354.3,271.6,354.3z M275.1,353.7
		l-3.6,7.5h-0.6l3.6-7.5H275.1z M275.4,358.2v2.1c0,0.2-0.1,0.4-0.3,0.6c-0.2,0.2-0.4,0.3-0.6,0.3c-0.3,0-0.5-0.1-0.7-0.3
		c-0.2-0.2-0.3-0.4-0.3-0.6v-2.1c0-0.2,0.1-0.4,0.3-0.6c0.2-0.2,0.4-0.3,0.7-0.3c0.2,0,0.4,0.1,0.6,0.3
		C275.4,357.7,275.4,357.9,275.4,358.2z M274.8,358c-0.1-0.1-0.1-0.1-0.3-0.1s-0.2,0-0.2,0.1c-0.1,0-0.1,0.1-0.1,0.2v2.1
		c0,0.1,0,0.2,0.1,0.3c0,0,0.1,0,0.2,0s0.2,0,0.3,0c0.1-0.1,0.1-0.2,0.1-0.3v-2.1C274.9,358.1,274.9,358,274.8,358z"/>
</g>
<g>
	<path class="st4" d="M120.6,7v29h-1.4V22.2h-8.8V36h-1.4V7h1.4v13.8h8.8V7H120.6z"/>
	<path class="st4" d="M131.4,36c-0.7,0-1.4-0.1-2.1-0.3c-0.7-0.2-1.4-0.6-2-1.2c-0.6-0.6-1.1-1.4-1.5-2.3c-0.4-1-0.6-2.3-0.6-3.9
		V14.7c0-2.5,0.5-4.4,1.5-5.7c1.1-1.3,2.6-2,4.6-2c2.1,0,3.6,0.7,4.6,2c1,1.3,1.5,3.2,1.5,5.7v13.6c0,1.6-0.2,2.9-0.6,3.9
		c-0.4,1-0.9,1.8-1.5,2.3c-0.6,0.6-1.3,1-2,1.2C132.9,35.9,132.2,36,131.4,36z M131.4,8.3c-1.6,0-2.8,0.5-3.6,1.5
		c-0.8,1.1-1.2,2.7-1.2,4.8v13.6c0,2.2,0.4,3.8,1.2,4.9c0.8,1,2,1.5,3.6,1.5c1.6,0,2.8-0.5,3.6-1.5c0.8-1,1.2-2.6,1.2-4.9V14.7
		c0-2.2-0.4-3.8-1.2-4.8C134.2,8.8,133,8.3,131.4,8.3z"/>
	<path class="st4" d="M167.6,7l-6.3,29h-1.1l-5.5-25.2L149.1,36H148l-6.4-29h1.4l5.6,25.2L154.1,7h1.1l5.5,25.2L166.2,7H167.6z"/>
	<path class="st4" d="M183.3,36h-1.4l2.3-10.1v-0.1L188.5,7h1.1l6.6,29h-1.4l-2-8.9h-7.7L183.3,36z M189.1,10.7l-3.5,15.1h7
		L189.1,10.7z"/>
	<path class="st4" d="M210.3,22.8c1.3,1.2,1.9,2.9,1.9,5.1v8h-1.4v-8c0-1.7-0.5-3.1-1.4-4.1c-0.9-1-2.3-1.4-4-1.4h-0.6h-3.2v13.5
		h-1.3V7h5.2c2.3,0,4,0.6,5.1,1.9c1.1,1.2,1.6,3.2,1.6,5.8c0,2.6-0.5,4.5-1.6,5.8c-0.5,0.5-1,1-1.7,1.3
		C209.3,22,209.8,22.4,210.3,22.8z M205.4,21c1.9,0,3.3-0.5,4.1-1.5c0.9-1,1.3-2.7,1.3-4.9c0-2.3-0.4-3.9-1.2-4.9
		c-0.8-1-2.2-1.5-4.1-1.5h-3.9V21h3.2H205.4z"/>
	<path class="st4" d="M217.9,8.3v12.5h9.1v1.3h-9.1v12.5h9.1V36h-10.4V7h10.4v1.3H217.9z"/>
	<path class="st4" d="M249.8,21.5c0.6,0.3,1.1,0.7,1.6,1.2c1,1.3,1.5,3.2,1.5,5.7c0,2.5-0.5,4.4-1.5,5.7c-1.1,1.3-2.7,1.9-4.9,1.9
		h-3.4h-1.4v-1.3V7h4.8c2.2,0,3.8,0.6,4.9,1.9c1,1.3,1.5,3.2,1.5,5.7c0,2.5-0.5,4.4-1.5,5.6c-0.2,0.3-0.5,0.5-0.7,0.7
		C250.4,21.1,250.1,21.3,249.8,21.5z M243.1,20.8h3.4c1.8,0,3.1-0.5,3.8-1.5c0.8-1,1.2-2.6,1.2-4.8c0-2.2-0.4-3.8-1.2-4.8
		c-0.8-1-2.1-1.4-3.9-1.4h-3.4V20.8z M246.5,34.7c1.8,0,3.1-0.5,3.9-1.4c0.8-1,1.2-2.6,1.2-4.8c0-2.2-0.4-3.8-1.2-4.8
		c-0.8-1-2-1.5-3.8-1.5h-3.4v12.5H246.5z"/>
	<path class="st4" d="M263.4,36c-0.7,0-1.4-0.1-2.1-0.3c-0.7-0.2-1.4-0.6-2-1.2c-0.6-0.6-1.1-1.4-1.5-2.3c-0.4-1-0.6-2.3-0.6-3.9
		V14.7c0-2.5,0.5-4.4,1.5-5.7c1.1-1.3,2.6-2,4.6-2c2.1,0,3.6,0.7,4.6,2c1,1.3,1.5,3.2,1.5,5.7v13.6c0,1.6-0.2,2.9-0.6,3.9
		c-0.4,1-0.9,1.8-1.5,2.3c-0.6,0.6-1.3,1-2,1.2C264.9,35.9,264.2,36,263.4,36z M263.4,8.3c-1.6,0-2.8,0.5-3.6,1.5
		c-0.8,1.1-1.2,2.7-1.2,4.8v13.6c0,2.2,0.4,3.8,1.2,4.9c0.8,1,2,1.5,3.6,1.5c1.6,0,2.8-0.5,3.6-1.5c0.8-1,1.2-2.6,1.2-4.9V14.7
		c0-2.2-0.4-3.8-1.2-4.8C266.3,8.8,265.1,8.3,263.4,8.3z"/>
	<path class="st4" d="M274.6,36V7h1.3v29H274.6z"/>
	<path class="st4" d="M279.9,36V7h1.4v27.6h9.7V36H279.9z"/>
	<path class="st4" d="M295.6,8.3v12.5h9.1v1.3h-9.1v12.5h9.1V36h-10.4V7h10.4v1.3H295.6z"/>
	<path class="st4" d="M318.8,22.8c1.3,1.2,1.9,2.9,1.9,5.1v8h-1.4v-8c0-1.7-0.5-3.1-1.4-4.1c-0.9-1-2.3-1.4-4-1.4h-0.6h-3.2v13.5
		h-1.3V7h5.2c2.3,0,4,0.6,5.1,1.9c1.1,1.2,1.6,3.2,1.6,5.8c0,2.6-0.5,4.5-1.6,5.8c-0.5,0.5-1,1-1.7,1.3
		C317.9,22,318.4,22.4,318.8,22.8z M313.9,21c1.9,0,3.3-0.5,4.1-1.5c0.9-1,1.3-2.7,1.3-4.9c0-2.3-0.4-3.9-1.2-4.9
		c-0.8-1-2.2-1.5-4.1-1.5h-3.9V21h3.2H313.9z"/>
	<path class="st4" d="M326.3,36h-1.3V7h1.2l7.4,25.8L340.9,7h1.2v29h-1.4V12.5L334.1,36h-1l-6.8-23.5V36z"/>
	<path class="st4" d="M348.2,36h-1.4l2.3-10.1v-0.1L353.5,7h1.1l6.6,29h-1.4l-2-8.9h-7.7L348.2,36z M354,10.7l-3.5,15.1h7L354,10.7z
		"/>
	<path class="st4" d="M370.1,20.3L379,36h-1.5l-8.2-14.4l-2.9,4.3V36H365V7h1.4v16.5l11-16.5h1.6L370.1,20.3z"/>
	<path class="st4" d="M383.3,8.3v12.5h9.1v1.3h-9.1v12.5h9.1V36H382V7h10.4v1.3H383.3z"/>
	<path class="st4" d="M406.5,22.8c1.3,1.2,1.9,2.9,1.9,5.1v8h-1.4v-8c0-1.7-0.5-3.1-1.4-4.1c-0.9-1-2.3-1.4-4-1.4H401h-3.2v13.5
		h-1.3V7h5.2c2.3,0,4,0.6,5.1,1.9c1.1,1.2,1.6,3.2,1.6,5.8c0,2.6-0.5,4.5-1.6,5.8c-0.5,0.5-1,1-1.7,1.3
		C405.6,22,406.1,22.4,406.5,22.8z M401.7,21c1.9,0,3.3-0.5,4.1-1.5c0.9-1,1.3-2.7,1.3-4.9c0-2.3-0.4-3.9-1.2-4.9
		c-0.8-1-2.2-1.5-4.1-1.5h-3.9V21h3.2H401.7z"/>
	<path class="st4" d="M419,35.9c-2.1,0-3.6-0.7-4.6-2c-1-1.2-1.5-3.1-1.5-5.7v-0.6h1.3v0.6c0,1.4,0.2,2.6,0.5,3.4
		c0.3,0.8,0.7,1.5,1.2,1.9c0.5,0.4,1,0.7,1.6,0.8c0.6,0.1,1.1,0.2,1.6,0.2c1.5,0,2.7-0.5,3.6-1.6c0.8-1.1,1.3-2.6,1.3-4.5
		c0-1-0.2-1.9-0.5-2.6c-0.4-0.7-0.8-1.3-1.3-1.7c-0.5-0.5-1-0.8-1.6-1.1c-0.5-0.3-1-0.5-1.3-0.6l-0.7-0.3c-0.4-0.2-1-0.4-1.6-0.8
		c-0.6-0.3-1.2-0.8-1.8-1.4c-0.6-0.6-1.1-1.3-1.5-2.2c-0.4-0.9-0.6-1.9-0.6-3.2c0-2.2,0.5-4,1.5-5.4C415.5,7.7,417,7,419,7
		c2,0,3.6,0.7,4.7,2c1,1.3,1.5,3.2,1.5,5.7v0.7h-1.4v-0.7c0-2.2-0.4-3.8-1.2-4.9c-0.8-1-2-1.5-3.6-1.5c-1.5,0-2.7,0.6-3.6,1.8
		c-0.9,1.2-1.3,2.7-1.3,4.6c0,1,0.2,1.9,0.5,2.6c0.3,0.7,0.8,1.3,1.3,1.8c0.5,0.5,1,0.9,1.6,1.2c0.5,0.3,1,0.5,1.5,0.7l0.7,0.3
		c0.4,0.1,0.9,0.4,1.5,0.7c0.6,0.3,1.2,0.7,1.8,1.3c0.6,0.6,1.1,1.3,1.6,2.1s0.7,1.9,0.7,3.2c0,2.1-0.5,3.9-1.5,5.2
		C422.6,35.2,421,35.9,419,35.9z"/>
	<path class="st4" d="M439.4,36V7h1.4v27.6h9.7V36H439.4z"/>
	<path class="st4" d="M454.3,36V7h1.3v29H454.3z"/>
	<path class="st4" d="M466.1,35.9c-2.1,0-3.6-0.7-4.6-2c-1-1.2-1.5-3.1-1.5-5.7v-0.6h1.3v0.6c0,1.4,0.2,2.6,0.5,3.4
		c0.3,0.8,0.7,1.5,1.2,1.9c0.5,0.4,1,0.7,1.6,0.8c0.6,0.1,1.1,0.2,1.6,0.2c1.5,0,2.7-0.5,3.6-1.6c0.8-1.1,1.3-2.6,1.3-4.5
		c0-1-0.2-1.9-0.5-2.6c-0.4-0.7-0.8-1.3-1.3-1.7c-0.5-0.5-1-0.8-1.6-1.1c-0.5-0.3-1-0.5-1.3-0.6l-0.7-0.3c-0.4-0.2-1-0.4-1.6-0.8
		c-0.6-0.3-1.2-0.8-1.8-1.4c-0.6-0.6-1.1-1.3-1.5-2.2c-0.4-0.9-0.6-1.9-0.6-3.2c0-2.2,0.5-4,1.5-5.4c1.1-1.5,2.7-2.3,4.7-2.3
		c2,0,3.6,0.7,4.7,2c1,1.3,1.5,3.2,1.5,5.7v0.7h-1.4v-0.7c0-2.2-0.4-3.8-1.2-4.9c-0.8-1-2-1.5-3.6-1.5c-1.5,0-2.7,0.6-3.6,1.8
		c-0.9,1.2-1.3,2.7-1.3,4.6c0,1,0.2,1.9,0.5,2.6c0.3,0.7,0.8,1.3,1.3,1.8c0.5,0.5,1,0.9,1.6,1.2c0.5,0.3,1,0.5,1.5,0.7l0.7,0.3
		c0.4,0.1,0.9,0.4,1.5,0.7c0.6,0.3,1.2,0.7,1.8,1.3c0.6,0.6,1.1,1.3,1.6,2.1s0.7,1.9,0.7,3.2c0,2.1-0.5,3.9-1.5,5.2
		C469.6,35.2,468.1,35.9,466.1,35.9z"/>
	<path class="st4" d="M491.3,8.3h-7v27.6H483V8.3H476V7h15.2V8.3z"/>
	<path class="st4" d="M496.2,8.3v12.5h9.1v1.3h-9.1v12.5h9.1V36h-10.4V7h10.4v1.3H496.2z"/>
	<path class="st4" d="M510.7,36h-1.4V7h1.2l10,24.8V7h1.4v29h-1.1l-10-24.8V36z"/>
	<path class="st4" d="M526.8,36V7h1.3v29H526.8z"/>
	<path class="st4" d="M533.7,36h-1.4V7h1.2l10,24.8V7h1.4v29h-1.1l-10-24.8V36z"/>
	<path class="st4" d="M555.5,36c-2.1,0-3.6-0.7-4.7-2c-1-1.3-1.5-3.2-1.5-5.7V14.6c0-2.5,0.5-4.4,1.5-5.6c1.1-1.3,2.6-2,4.7-2
		c2.1,0,3.6,0.7,4.6,2c1,1.3,1.5,3.1,1.5,5.6v0.7h-1.4v-0.7c0-1.4-0.2-2.5-0.5-3.4c-0.3-0.8-0.7-1.5-1.2-1.9c-0.5-0.4-1-0.7-1.5-0.8
		c-0.6-0.1-1.1-0.2-1.6-0.2s-1.1,0.1-1.6,0.2c-0.6,0.1-1.1,0.4-1.6,0.8c-0.5,0.4-0.9,1.1-1.2,1.9c-0.3,0.8-0.5,1.9-0.5,3.4v13.7
		c0,2.1,0.4,3.8,1.2,4.8c0.8,1,2,1.5,3.6,1.5c1.6,0,2.8-0.5,3.6-1.5c0.8-1.1,1.2-2.7,1.2-4.8v-3.8H554v-1.4h7.7v5.2
		c0,2.5-0.5,4.4-1.5,5.7C559.1,35.3,557.5,36,555.5,36z"/>
	<path class="st4" d="M575.4,9.2c0.4,0.7,0.8,1.4,1,2.3c0.2,0.8,0.3,1.8,0.3,2.8c0,1-0.1,1.9-0.4,2.7c-0.2,0.8-0.5,1.4-0.9,2
		c-0.3,0.6-0.7,1-1.1,1.4c-0.4,0.4-0.7,0.7-1.1,0.9c-0.1,0.1-0.3,0.2-0.4,0.3c-0.1,0.1-0.2,0.2-0.3,0.3c-0.6,0.7-1,1.8-1.4,3.4
		c-0.3,1.6-0.5,3.5-0.5,5.8V31v0.7h-1.3V31v-0.1c0-0.9,0-1.8,0.1-2.8c0-1,0.1-1.9,0.3-2.8s0.4-1.7,0.7-2.5c0.3-0.8,0.7-1.4,1.1-1.9
		c0.2-0.2,0.4-0.5,0.8-0.7c0.3-0.3,0.6-0.5,0.9-0.9c0.3-0.3,0.7-0.7,0.9-1.2c0.3-0.5,0.5-1,0.7-1.7c0.2-0.6,0.3-1.4,0.3-2.3
		c0-0.9-0.1-1.7-0.3-2.4s-0.4-1.4-0.8-1.9c-0.7-1.1-1.7-1.6-3-1.6c-1.3,0-2.3,0.5-2.9,1.5c-0.7,1-1.1,2.5-1.1,4.6V15H566v-0.6
		c0-2.3,0.4-4.1,1.3-5.4c0.9-1.3,2.3-2,4-2C573.1,7,574.4,7.7,575.4,9.2z M569.5,34.1h1.4v1.8h-1.4V34.1z"/>
</g>
<g>
	<path class="st0" d="M352,237.9v14.3h-2.3l-3-9.1v9.1h-2.1v-14.3h2.4l2.9,9.6v-9.6H352z M339.6,246.8l-0.8-5.7l-0.8,5.7H339.6z
		 M340.4,237.9l2.4,14.3h-2.3l-0.5-3.3h-2.2l-0.5,3.3H335l2.4-14.3H340.4z M353.9,241.2c0-0.9,0.3-1.7,1-2.4c0.7-0.7,1.5-1,2.4-1
		c0.9,0,1.7,0.3,2.4,1c0.7,0.7,1,1.5,1,2.4v1.7h-2.3v-1.7c0-0.3-0.1-0.6-0.3-0.8s-0.5-0.4-0.9-0.4c-0.4,0-0.7,0.1-0.9,0.4
		s-0.4,0.5-0.4,0.8v7.8c0,0.3,0.1,0.6,0.4,0.9c0.2,0.2,0.5,0.3,0.9,0.3c0.3,0,0.6-0.1,0.9-0.3c0.2-0.3,0.3-0.6,0.3-0.9V247h2.3v2
		c0,0.9-0.3,1.7-1,2.4c-0.7,0.7-1.5,1-2.4,1c-1,0-1.8-0.3-2.4-1c-0.7-0.7-1-1.5-1-2.4V241.2z M368.6,240.1h-4v3.9h2.9v2.1h-2.9v3.9
		h4v2.1h-6.1v-14.3h6.1V240.1z M176.3,57c1.1,0,1.9,0.3,2.5,1c0.6,0.6,0.9,1.4,0.9,2.4v2.1c0,0.9-0.3,1.7-1,2.4
		c-0.7,0.7-1.4,1-2.3,1h-1.3v5.4h-2.2V57H176.3z M175.1,59.2v4.5h1.3c0.3,0,0.6-0.1,0.9-0.4c0.2-0.2,0.4-0.5,0.4-0.9v-2
		c0-0.4-0.1-0.7-0.4-0.9c-0.2-0.2-0.5-0.4-0.9-0.4H175.1z M182.2,57.8c0.7-0.6,1.5-1,2.4-1c0.9,0,1.7,0.3,2.4,1c0.7,0.7,1,1.5,1,2.4
		V68c0,1-0.3,1.8-1,2.5c-0.7,0.6-1.5,0.9-2.4,0.9c-1,0-1.8-0.3-2.4-1c-0.7-0.7-1-1.5-1-2.4v-7.8C181.2,59.3,181.5,58.4,182.2,57.8z
		 M185.4,59.3c-0.2-0.2-0.5-0.4-0.9-0.4c-0.3,0-0.6,0.1-0.9,0.4c-0.2,0.3-0.4,0.6-0.4,0.9V68c0,0.3,0.1,0.6,0.4,0.9
		c0.2,0.2,0.5,0.4,0.9,0.4c0.4,0,0.7-0.1,0.9-0.4c0.2-0.2,0.4-0.5,0.4-0.9v-7.8C185.8,59.8,185.6,59.5,185.4,59.3z M194.5,60.4
		c0-0.4-0.1-0.7-0.4-0.9c-0.2-0.2-0.5-0.4-0.8-0.4H192v4.5h1.3c0.3,0,0.6-0.1,0.8-0.4c0.2-0.2,0.4-0.5,0.4-0.9V60.4z M196.6,60.4
		v2.1c0,0.9-0.3,1.7-1,2.4c-0.7,0.7-1.5,1-2.4,1H192v5.4h-2.1V57h3.4c1.1,0,1.9,0.3,2.5,1C196.4,58.6,196.6,59.4,196.6,60.4z
		 M330.4,112.8l-2.9,5.9l3.4,8.4h-2.5l-2.3-5.8l-0.6,1.3v4.5h-2.1v-14.3h2.1v5.1l2.6-5.1H330.4z M321.6,116.1v1.6h-2.3V116
		c0-0.3-0.1-0.6-0.4-0.9c-0.2-0.2-0.5-0.4-0.9-0.4c-0.4,0-0.7,0.1-0.9,0.4c-0.2,0.2-0.4,0.5-0.4,0.9v7.8c0,0.3,0.1,0.6,0.4,0.9
		c0.2,0.2,0.5,0.4,0.9,0.4c0.3,0,0.6-0.1,0.9-0.4c0.2-0.3,0.4-0.6,0.4-0.9v-2h2.3v2c0,0.9-0.3,1.7-1,2.4c-0.7,0.7-1.5,1-2.4,1
		c-1,0-1.8-0.3-2.4-1c-0.7-0.7-1-1.5-1-2.4v-7.8c0-0.9,0.3-1.7,1-2.4c0.7-0.7,1.5-1,2.4-1c0.9,0,1.7,0.3,2.4,1
		C321.3,114.3,321.6,115.1,321.6,116.1z M310.3,115.1c-0.2-0.2-0.5-0.3-0.9-0.3c-0.3,0-0.6,0.1-0.9,0.3c-0.2,0.3-0.4,0.6-0.4,0.9
		v7.8c0,0.3,0.1,0.6,0.4,0.9c0.2,0.2,0.5,0.4,0.9,0.4c0.4,0,0.7-0.1,0.9-0.4c0.2-0.2,0.4-0.5,0.4-0.9V116
		C310.6,115.7,310.5,115.4,310.3,115.1z M312.9,116.1v7.8c0,1-0.3,1.8-1,2.5c-0.7,0.6-1.5,0.9-2.4,0.9c-1,0-1.8-0.3-2.4-1
		c-0.7-0.7-1-1.5-1-2.4v-7.8c0-1,0.3-1.8,1-2.5c0.7-0.6,1.5-0.9,2.4-0.9c0.9,0,1.7,0.3,2.4,1C312.6,114.3,312.9,115.1,312.9,116.1z
		 M304.1,118.3c0,1-0.4,1.9-1.1,2.5l1.6,6.2h-2.4l-1.3-5.4c0,0-0.1,0-0.1,0h-1.3v5.4h-2.1v-14.3h3.4c1.2,0,2.1,0.3,2.6,1
		c0.5,0.6,0.8,1.4,0.8,2.4V118.3z M302,116.3c0-0.8-0.4-1.3-1.3-1.3h-1.3v4.5h1.3c0.4,0,0.7-0.1,0.9-0.4c0.2-0.2,0.4-0.5,0.4-0.9
		V116.3z M53.7,111.1l1.6,5.1l1.6-5.1h2.4l-2.9,8.3v6h-2.2v-6l-2.8-8.3H53.7z M14.4,111.9c0.7,0.7,1,1.5,1,2.4v7.8
		c0,1-0.3,1.8-1,2.5c-0.7,0.6-1.5,0.9-2.4,0.9c-1,0-1.8-0.3-2.4-1c-0.7-0.7-1-1.5-1-2.4v-7.8c0-1,0.3-1.8,1-2.5
		c0.7-0.6,1.5-0.9,2.4-0.9C12.9,110.9,13.7,111.3,14.4,111.9z M24,111.1v11c0,1-0.3,1.8-1,2.5c-0.7,0.6-1.5,0.9-2.4,0.9
		c-1,0-1.8-0.3-2.4-1c-0.7-0.6-1-1.4-1-2.4v-11h2.1v11c0,0.3,0.1,0.6,0.3,0.9c0.2,0.3,0.5,0.4,0.9,0.4c0.4,0,0.7-0.1,0.9-0.4
		c0.2-0.2,0.4-0.5,0.4-0.9v-11H24z M28.4,111.1l2.9,9.5v-9.5h2.1v14.3h-2.3l-3-9.1v9.1H26v-14.3H28.4z M49.6,112.1
		c0.5,0.6,0.8,1.4,0.8,2.4v2.1c0,1-0.4,1.9-1.2,2.5l1.6,6.2h-2.4l-1.3-5.4c0,0-0.1,0-0.1,0h-1.3v5.4h-2.1v-14.3h3.3
		C48.1,111.1,49,111.4,49.6,112.1z M41.9,111.1v2.1h-2.3v12.1h-2.1v-12.1h-2.3v-2.1H41.9z M47.9,117.5c0.2-0.2,0.4-0.5,0.4-0.9v-2
		c0-0.8-0.4-1.3-1.3-1.3h-1.3v4.5H47C47.4,117.8,47.7,117.7,47.9,117.5z M10.6,114.3v7.8c0,0.3,0.1,0.6,0.4,0.9
		c0.2,0.2,0.5,0.4,0.9,0.4c0.4,0,0.7-0.1,0.9-0.4c0.2-0.2,0.4-0.5,0.4-0.9v-7.8c0-0.3-0.1-0.6-0.4-0.9c-0.2-0.2-0.5-0.3-0.9-0.3
		c-0.3,0-0.6,0.1-0.9,0.3C10.8,113.6,10.6,113.9,10.6,114.3z M30.3,240.6c0.1,0.4,0.2,0.9,0.2,1.5c0,1-0.3,1.7-0.8,2.3
		c-0.2,0.2-0.4,0.4-0.8,0.5c0.5,0.2,0.9,0.5,1.2,1.1c0.2,0.3,0.4,0.8,0.5,1.4c0.1,0.3,0.1,0.6,0.1,1c0,0.9-0.2,1.7-0.6,2.3
		c-0.3,0.5-0.6,0.9-1.1,1.2c-0.6,0.3-1.1,0.5-1.7,0.5h-3.9v-14.3h3.2c0.9,0,1.6,0.2,2.3,0.7C29.6,239.2,30,239.8,30.3,240.6z
		 M25.8,240.3v3.6h0.9c0.7,0,1.1-0.3,1.4-0.9c0.1-0.2,0.1-0.5,0.1-0.9c0-0.6-0.1-1-0.4-1.3c-0.3-0.3-0.6-0.4-1.1-0.4H25.8z
		 M27.9,246.5c-0.3-0.3-0.7-0.5-1.2-0.5h-0.9v4.3h0.9c0.7,0,1.2-0.4,1.5-1.2c0.1-0.3,0.2-0.6,0.2-0.9
		C28.4,247.4,28.2,246.9,27.9,246.5z M19.8,239.1c0.2,0.4,0.3,0.9,0.3,1.3c0,0.9-0.3,1.7-0.9,2.5l-0.4,0.6c-0.4,0.6-0.8,1.1-1.1,1.5
		c0.5,1,1,1.9,1.6,2.8c0.4-0.8,0.6-1.7,0.8-2.6l1.9,0.4c-0.3,1.5-0.8,2.8-1.3,3.9c0.5,0.5,1,0.8,1.4,0.8v2c-0.8,0-1.7-0.4-2.6-1.2
		c-0.9,0.9-1.8,1.4-2.8,1.4c-1.1,0-1.9-0.5-2.5-1.4c-0.4-0.6-0.5-1.2-0.5-2c0-0.7,0.2-1.5,0.5-2.3c0.1-0.1,0.3-0.5,0.6-1
		c0.2-0.3,0.4-0.6,0.6-0.9l-0.4-1c-0.2-0.5-0.4-0.8-0.5-1c-0.1-0.4-0.2-0.8-0.3-1c-0.1-0.4-0.1-0.7-0.1-1c0-0.6,0.1-1.2,0.4-1.8
		c0.3-0.6,0.7-1,1.3-1.3c0.4-0.2,0.9-0.4,1.5-0.4c0.6,0,1.1,0.2,1.6,0.5C19.2,238.2,19.5,238.6,19.8,239.1z M17.6,241.7
		c0.3-0.4,0.5-0.8,0.5-1.2c0-0.3,0-0.5-0.1-0.7c-0.2-0.5-0.5-0.8-0.9-0.8c-0.4,0-0.7,0.2-0.9,0.6c-0.2,0.3-0.2,0.7-0.2,1.1
		c0,0.4,0.2,1.2,0.7,2.3c0.1-0.1,0.2-0.3,0.3-0.4L17.6,241.7z M11.6,241.5v2.1c0,1-0.4,1.9-1.1,2.5l1.6,6.2H9.7L8.4,247
		c0,0-0.1,0-0.1,0H7v5.3H4.9v-14.3h3.4c1.2,0,2.1,0.3,2.6,1C11.4,239.7,11.6,240.5,11.6,241.5z M15.9,247.6c-0.2,0.5-0.3,1-0.3,1.5
		c0,0.4,0.1,0.7,0.3,1c0.2,0.3,0.5,0.5,0.8,0.5c0.4,0,0.9-0.3,1.4-0.8c-0.6-0.8-1.2-1.7-1.8-2.8C16.2,247.2,16,247.4,15.9,247.6z
		 M91.1,352h2.5v-6.1h2.2v14.3h-2.2v-6h-2.5v6H89v-14.3h2.1V352z M105.3,345.9c1.1,0,1.9,0.3,2.5,1c0.3,0.3,0.5,0.6,0.6,1
		c0.2,0.4,0.3,0.9,0.3,1.4v2.1c0,0.5-0.1,0.9-0.3,1.3c-0.2,0.4-0.4,0.8-0.8,1.1c-0.7,0.7-1.5,1-2.4,1H104v5.3h-2.1v-14.3H105.3z
		 M99.9,345.9v14.3h-2.1v-14.3H99.9z M106.2,348.5c-0.2-0.2-0.5-0.4-0.8-0.4H104v4.5h1.3c0.3,0,0.6-0.1,0.8-0.3
		c0.2-0.2,0.4-0.5,0.4-0.9v-2C106.5,349,106.4,348.7,106.2,348.5z M126.2,346.8c0.7,0.7,1,1.5,1,2.4v7.8c0,1-0.3,1.8-1,2.5
		c-0.7,0.6-1.5,1-2.4,1c-1,0-1.8-0.3-2.4-1c-0.7-0.7-1-1.5-1-2.4v-7.8c0-1,0.3-1.8,1-2.4c0.7-0.6,1.5-1,2.4-1
		C124.7,345.8,125.5,346.1,126.2,346.8z M118.5,345.9v14.3h-2.2v-6h-2.6v6h-2.1v-14.3h2.1v6.1h2.6v-6.1H118.5z M131.3,352.7h1.3
		c0.3,0,0.6-0.1,0.9-0.3s0.4-0.5,0.4-0.9v-2c0-0.4-0.1-0.7-0.4-0.9c-0.2-0.2-0.5-0.4-0.9-0.4h-1.3V352.7z M122.5,349.1v7.8
		c0,0.3,0.1,0.6,0.4,0.9c0.2,0.2,0.5,0.3,0.8,0.3c0.4,0,0.7-0.1,0.9-0.3c0.2-0.2,0.3-0.5,0.3-0.9v-7.8c0-0.3-0.1-0.6-0.3-0.9
		c-0.2-0.2-0.5-0.4-0.9-0.4c-0.3,0-0.6,0.1-0.8,0.4C122.6,348.5,122.5,348.8,122.5,349.1z M131.3,360.2h-2.1v-14.3h3.3
		c0,0,0.1,0,0.1,0c0.8,0,1.5,0.3,2,0.7c0.1,0.1,0.3,0.2,0.4,0.3c0.6,0.6,0.9,1.4,0.9,2.4v2.1c0,0.9-0.3,1.7-1,2.4
		c-0.7,0.7-1.5,1-2.4,1h-1.3V360.2z M330.1,237.9c0.9,0,1.7,0.3,2.4,1c0.7,0.7,1,1.5,1,2.4v7.5c0,0.9-0.3,1.7-1,2.4
		c-0.7,0.7-1.5,1-2.4,1h-3.4v-14.3H330.1z M331,240.5c-0.2-0.2-0.5-0.4-0.9-0.4h-1.3v10h1.3c0.3,0,0.6-0.1,0.9-0.4
		c0.2-0.2,0.4-0.5,0.4-0.8v-7.5C331.4,241,331.3,240.7,331,240.5z M222,346c0.9,0,1.7,0.3,2.4,1c0.7,0.7,1,1.5,1,2.4v7.8
		c0,1-0.3,1.8-1,2.5c-0.7,0.6-1.5,1-2.4,1c-1,0-1.8-0.3-2.4-1c-0.7-0.7-1-1.5-1-2.4v-7.8c0-1,0.3-1.8,1-2.5
		C220.3,346.3,221.1,346,222,346z M220.8,349.3v7.8c0,0.3,0.1,0.6,0.4,0.9c0.2,0.2,0.5,0.3,0.8,0.3c0.4,0,0.7-0.1,0.9-0.3
		c0.2-0.2,0.3-0.5,0.3-0.9v-7.8c0-0.3-0.1-0.6-0.3-0.9c-0.2-0.2-0.5-0.3-0.9-0.3c-0.3,0-0.6,0.1-0.8,0.3
		C220.9,348.7,220.8,349,220.8,349.3z M226.9,348.3v-2.2h6.7v2.2h-2.3v12.1h-2.2v-12.1H226.9z M250.3,346.1v2.2h-3.9v3.9h2.9v2.2
		h-2.9v3.9h3.9v2.1h-6.1v-14.3H250.3z M237.5,346.1v6h2.6v-6h2.2v14.3h-2.2v-6h-2.6v6h-2.1v-14.3H237.5z M257.8,347.1
		c0.5,0.6,0.8,1.4,0.8,2.4v2.1c0,1-0.4,1.9-1.1,2.5l1.6,6.2h-2.4l-1.3-5.3c0,0-0.1,0-0.2,0h-1.3v5.3h-2.1v-14.3h3.4
		C256.4,346.1,257.2,346.5,257.8,347.1z M256.4,349.6c0-0.8-0.4-1.3-1.3-1.3h-1.3v4.5h1.3c0.4,0,0.7-0.1,0.9-0.3
		c0.2-0.2,0.3-0.5,0.3-0.9V349.6z M3.4,110.9c0.9,0,1.7,0.3,2.4,1c0.7,0.7,1,1.5,1,2.4v1.6H4.5v-1.7c0-0.3-0.1-0.6-0.4-0.9
		c-0.2-0.2-0.5-0.4-0.8-0.4c-0.4,0-0.7,0.1-0.9,0.4c-0.2,0.2-0.3,0.5-0.3,0.9v7.8c0,0.3,0.1,0.6,0.3,0.9c0.2,0.2,0.5,0.4,0.9,0.4
		c0.3,0,0.6-0.1,0.8-0.4c0.2-0.3,0.4-0.6,0.4-0.9v-2h2.3v2c0,0.9-0.3,1.7-1,2.4c-0.7,0.7-1.5,1-2.4,1c-1,0-1.8-0.3-2.4-1
		c-0.7-0.7-1-1.5-1-2.4v-7.8c0-0.9,0.3-1.7,1-2.4C1.7,111.3,2.5,110.9,3.4,110.9z M7,240.3v4.5h1.3c0.4,0,0.7-0.1,0.9-0.3
		c0.2-0.2,0.4-0.5,0.4-0.9v-2c0-0.8-0.4-1.3-1.3-1.3H7z"/>
	<path class="st1" d="M152.5,188.1l11.3-40.3c2.1-0.6,4.2-1.1,6.3-1.5c-2.1,0.4-4.3,0.9-6.3,1.5l10.1-36.1l8.1-28.9l1.5-5.4v7v-7
		l9.4,30.7c0.3,1.2,0.7,2.4,1.1,3.6c-3.4-0.3-6.9-0.5-10.4-0.5h-0.1V84.5v26.9h0.1c3.5,0,7,0.2,10.4,0.5c0.6,2.2,1.3,4.4,1.9,6.7
		l8.7,29.8c-6.6-2.1-13.6-3.2-21.1-3.2c7.5,0,14.5,1.1,21.1,3.2l11.3,38.7l-5.9,4.7c-0.8-1-1.7-1.9-2.6-2.8
		c-6.6-6.6-14.6-9.9-23.9-9.9c9.3,0,17.3,3.3,23.9,9.9c0.9,0.9,1.8,1.9,2.6,2.8l5.9-4.7l30.2,40l3.6,0.8c0.1-0.5,0.2-1.1,0.3-1.7
		l1.9,2.2l-2.2-0.5l2.2,0.5l-2.4,0.1l-15.4,0.8l-21.5,1l-20.2,1v0.1l-4.1-8.5v0l-4.8-10l33.1,7.5l-33.1-7.5l4.8,10v0l4.1,8.5
		l-17.5,14.3l-11.5,9.4v-0.1l-15.5-34l2.5-0.6l-2.5,0.6l1.9-13.6L152.5,188.1l4.5,3.6c-3,3.8-5.1,7.9-6.3,12.5
		c-0.2,0.9-0.4,1.8-0.6,2.7l-0.3,0.3l0.3-0.3c0.2-0.9,0.3-1.8,0.6-2.7c1.2-4.6,3.3-8.7,6.3-12.5L152.5,188.1z M176.7,111.5
		l-6.5,34.8L176.7,111.5l5.4-28.7L176.7,111.5c2.3-0.1,4.6-0.2,6.9-0.2C181.2,111.3,178.9,111.4,176.7,111.5z M173.9,111.7
		c0.9-0.1,1.8-0.1,2.7-0.2C175.8,111.6,174.9,111.6,173.9,111.7z M183.5,111.3v33.8V111.3z M61.9,111.8c0.2-0.1,0.4-0.3,0.5-0.6h0.8
		v7.1h-1v-5.5h-1v-0.8C61.4,112,61.7,111.9,61.9,111.8z M67.9,111.6c0.3,0.3,0.5,0.7,0.5,1.2v0.1h-1.1v-0.2c0-0.2-0.1-0.3-0.1-0.4
		c-0.1-0.1-0.2-0.2-0.4-0.2c-0.2,0-0.3,0.1-0.4,0.2c-0.1,0.1-0.1,0.2-0.1,0.4v1.4c0.3-0.2,0.5-0.4,0.9-0.4c0.5,0,0.8,0.2,1,0.5
		c0.2,0.3,0.3,0.7,0.3,1.2v1.2c0,0.5-0.2,0.8-0.5,1.1c-0.3,0.3-0.7,0.4-1.1,0.4c-0.5,0-0.9-0.2-1.2-0.5c-0.3-0.3-0.4-0.7-0.4-1.1
		v-3.9c0-0.4,0.1-0.7,0.3-1c0.2-0.3,0.4-0.5,0.8-0.6c0.2-0.1,0.4-0.1,0.6-0.1C67.2,111.1,67.6,111.3,67.9,111.6z M70.4,111.2
		c0.2-0.2,0.4-0.3,0.6-0.3c0.3,0,0.5,0.1,0.6,0.3c0.2,0.2,0.3,0.4,0.3,0.6v2c0,0.2-0.1,0.4-0.3,0.6c-0.2,0.2-0.4,0.3-0.6,0.3
		c-0.2,0-0.4-0.1-0.6-0.3c-0.2-0.2-0.3-0.4-0.3-0.6v-2C70.1,111.5,70.2,111.3,70.4,111.2z M70.8,111.5c-0.1,0.1-0.1,0.1-0.1,0.3v2
		c0,0.1,0,0.1,0.1,0.2c0.1,0.1,0.1,0.1,0.3,0.1s0.2,0,0.3-0.1c0-0.1,0-0.1,0-0.2v-2c0-0.1,0-0.2,0-0.3c-0.1,0-0.1-0.1-0.3-0.1
		S70.8,111.5,70.8,111.5z M74.7,110.9l-3.6,7.5h-0.7l3.7-7.5H74.7z M73.9,115.4v2c0,0.1,0,0.2,0.1,0.3c0,0,0.1,0.1,0.2,0.1
		c0.1,0,0.2,0,0.3-0.1c0.1-0.1,0.1-0.1,0.1-0.3v-2c0-0.1,0-0.2-0.1-0.2c-0.1-0.1-0.1-0.1-0.3-0.1c-0.1,0-0.2,0-0.2,0.1
		C73.9,115.3,73.9,115.3,73.9,115.4z M74.8,114.8c0.2,0.2,0.3,0.4,0.3,0.6v2c0,0.2-0.1,0.5-0.3,0.6c-0.2,0.2-0.4,0.3-0.6,0.3
		c-0.3,0-0.5-0.1-0.6-0.3c-0.2-0.2-0.3-0.4-0.3-0.6v-2c0-0.2,0.1-0.4,0.3-0.6c0.2-0.2,0.4-0.3,0.6-0.3
		C74.4,114.6,74.6,114.7,74.8,114.8z M67,114.9c-0.1-0.1-0.2-0.1-0.3-0.1c-0.2,0-0.3,0.1-0.4,0.2c-0.1,0.1-0.1,0.3-0.1,0.4v1.3
		c0,0.2,0,0.3,0.1,0.4c0.1,0.1,0.2,0.2,0.4,0.2c0.2,0,0.3-0.1,0.4-0.2c0.1-0.1,0.1-0.3,0.1-0.4v-1.3C67.3,115.2,67.2,115,67,114.9z
		 M174.9,245.6c-2.1-0.5-4.1-1.3-6-2.2c-3.3-1.6-6.4-3.9-9.3-6.7c-4.8-4.8-7.8-10.2-9.1-16.4c-0.5-2.4-0.8-4.9-0.8-7.5
		c0-2,0.2-4,0.5-5.9l10.9-12v0v0l-10.9,12c-0.3,1.9-0.5,3.9-0.5,5.9c0,2.6,0.3,5.1,0.8,7.5c1.3,6.2,4.4,11.6,9.1,16.4
		c2.8,2.8,5.9,5.1,9.3,6.7l-5.5,11.5l5.5-11.5C170.8,244.4,172.8,245.1,174.9,245.6z M183.5,212.8L161,194.9l-4-3.2l4,3.2
		L183.5,212.8z M157,191.7c0.8-1,1.6-1.9,2.6-2.9c1-1,2-1.9,3.1-2.8c-1.1,0.9-2.1,1.8-3.1,2.8C158.7,189.8,157.8,190.7,157,191.7z
		 M162.7,186.1c6-4.8,12.9-7.1,20.9-7.1v33.8l26.5-21.1l-26.5,21.1V179C175.6,179,168.7,181.4,162.7,186.1l7.5-39.8L162.7,186.1z
		 M161,194.9l1.6-8.8L161,194.9z M212.6,230.3c1.9-3.1,3.2-6.4,4-9.9C215.9,223.9,214.5,227.2,212.6,230.3z M215.9,187l34.1,39.2
		c-0.1,0.6-0.2,1.1-0.3,1.7l-3.6-0.8l0.1,0.1l-12,2.1l12-2.1l-0.1-0.1l-29.5-6.7c0.5-2.4,0.8-4.9,0.8-7.5c0-3-0.4-5.9-1-8.6
		c-1.1-4.6-3.2-8.7-6.3-12.5c3.1,3.8,5.2,8,6.3,12.5c0.7,2.7,1,5.6,1,8.6c0,2.6-0.3,5.1-0.8,7.5l29.5,6.7L215.9,187z M249.7,227.8
		c-0.1,0.2-0.1,0.4-0.1,0.6C249.6,228.2,249.6,228,249.7,227.8z M170.1,146.4c4.3-0.8,8.8-1.2,13.4-1.2
		C178.9,145.1,174.5,145.5,170.1,146.4z M168.9,243.4l14.7-30.6l-33.1,7.5l33.1-7.5L168.9,243.4z M183.5,179v-33.9V179z"/>
	<path class="st2" d="M73.4,118.5l-3.6,7.5h-0.6l3.6-7.5H73.4z M73.5,122.4c0.2,0.2,0.3,0.4,0.3,0.6v2c0,0.2-0.1,0.5-0.3,0.6
		c-0.2,0.2-0.4,0.3-0.6,0.3c-0.3,0-0.5-0.1-0.6-0.3c-0.2-0.2-0.3-0.4-0.3-0.6v-2c0-0.2,0.1-0.4,0.3-0.6c0.2-0.2,0.4-0.3,0.6-0.3
		C73.1,122.2,73.3,122.3,73.5,122.4z M73.1,122.8c-0.1-0.1-0.2-0.1-0.3-0.1c-0.1,0-0.2,0-0.2,0.1c-0.1,0-0.1,0.1-0.1,0.2v2
		c0,0.1,0,0.2,0.1,0.3c0,0,0.1,0,0.2,0c0.1,0,0.2,0,0.3,0c0.1-0.1,0.1-0.1,0.1-0.3v-2C73.2,122.9,73.2,122.9,73.1,122.8z M67,118.8
		v7.1h-1v-5.5h-1v-0.8c0.3,0,0.5-0.1,0.8-0.3c0.2-0.1,0.4-0.3,0.5-0.5H67z M70.4,118.8c0.2,0.2,0.3,0.4,0.3,0.6v2.1
		c0,0.2-0.1,0.4-0.3,0.6c-0.2,0.2-0.4,0.3-0.7,0.3c-0.2,0-0.4-0.1-0.6-0.3c-0.2-0.2-0.3-0.4-0.3-0.6v-2.1c0-0.2,0.1-0.4,0.3-0.6
		c0.2-0.2,0.4-0.3,0.6-0.3C70,118.5,70.2,118.6,70.4,118.8z M63.1,118.8v7.1h-1v-5.5h-1v-0.8c0.3,0,0.5-0.1,0.8-0.3
		c0.2-0.1,0.4-0.3,0.5-0.5H63.1z M69.9,119.1c-0.1,0-0.1,0-0.3,0c-0.1,0-0.2,0-0.3,0c-0.1,0.1-0.1,0.2-0.1,0.3v2.1
		c0,0.1,0,0.1,0.1,0.2c0.1,0.1,0.2,0.1,0.3,0.1c0.1,0,0.2,0,0.3-0.1c0-0.1,0.1-0.1,0.1-0.2v-2.1C70,119.3,70,119.2,69.9,119.1z"/>
	<path class="st5" d="M183.5,77.5v-2.6 M183.5,77.5v7 M77.6,128.3l26.5,21.1 M262.9,149.5l26.5-21.1l1.9-1.5 M315.9,242.8l2.2,0.5
		 M77.6,128.3l-1.8-1.4 M130.6,170.6l-26.4-21.1 M84.4,235.3l33-7.5 M147.9,220.9l-13,3l-17.6,4 M160.3,261.4l3.1-6.5 M154.2,274.1
		l6-12.6 M152.5,188.1l-22-17.5 M84.4,235.3l-33.1,7.5l-2.2,0.5 M124.9,335.3l14.7-30.6 M154.2,274.1l-14.7,30.6 M227.5,304.7
		L212.9,274 M124.9,335.3l-0.9,1.9 M242.2,335.3l-14.6-30.6 M282.8,235.3l33.1,7.5 M251.9,228.3l30.9,7 M215.9,187l20.5-16.4
		l26.5-21.1 M194.6,236l3.6,7.4l14.6,30.6 M192.4,231.4l2.2,4.6 M242.2,335.3l0.9,1.9"/>
	<path class="st6" d="M183,77.5c0.2,0,0.3,0,0.5,0h0.1c0.2,0,0.5,0,0.7,0 M183.5,111.3L183.5,111.3c3.6,0,7,0.2,10.4,0.5
		c23.6,2.2,44,11.9,61.3,29.2c2.8,2.8,5.3,5.6,7.7,8.5c9.3,11.3,15.6,23.9,19.1,37.6c2.1,8.2,3.1,16.8,3.1,25.8
		c0,7.8-0.8,15.3-2.3,22.5c-4,18.5-13.2,34.9-27.5,49.2c-8.5,8.5-17.7,15.2-27.7,20.1 M183,77.5c-34.5,0.1-64.3,11.5-89.6,34.2
		c-1.9,1.7-3.8,3.5-5.7,5.4c-3.6,3.7-7,7.4-10.1,11.3 M104.1,149.5c2.3-2.9,4.9-5.7,7.6-8.5c17.6-17.5,38.4-27.2,62.2-29.3
		c0.9-0.1,1.8-0.1,2.7-0.2c2.3-0.1,4.6-0.2,6.9-0.2 M183.5,145.1c7.5,0,14.5,1.1,21.1,3.2 M289.4,128.4c-1.3-1.6-2.6-3.1-4-4.7
		c-2-2.3-4.1-4.5-6.3-6.6c-26.2-26.2-57.8-39.4-94.9-39.6 M289.4,128.4c3.5,4.3,6.7,8.8,9.6,13.4c7.2,11.4,12.5,23.7,15.8,36.7
		c2.8,11,4.1,22.5,4.1,34.5c0,1.9,0,3.7-0.1,5.6c-0.3,7.4-1.1,14.5-2.4,21.4c-0.2,1-0.4,1.9-0.6,2.9c-5.3,24.7-17.5,46.6-36.7,65.6
		c-11.3,11.4-23.6,20.3-37,26.8 M51.3,242.8c-2-9.6-3.1-19.5-3.1-30c0-0.3,0-0.5,0-0.8c0.1-11.7,1.5-22.9,4.2-33.7
		c2.9-11.7,7.4-22.7,13.5-33c3.4-5.9,7.4-11.6,11.8-17.1 M163.8,147.9c2.1-0.6,4.2-1.1,6.3-1.5c4.3-0.8,8.8-1.2,13.4-1.2 M150.2,207
		c0.2-0.9,0.3-1.8,0.6-2.7c1.2-4.6,3.3-8.7,6.3-12.5c0.8-1,1.6-1.9,2.6-2.9c1-1,2-1.9,3.1-2.8c6-4.8,12.9-7.1,20.9-7.1
		c9.3,0,17.3,3.3,23.9,9.9c0.9,0.9,1.8,1.9,2.6,2.8c3.1,3.8,5.2,8,6.3,12.5c0.7,2.7,1,5.6,1,8.6c0,2.6-0.3,5.1-0.8,7.5 M117.4,227.9
		c-1-4.8-1.5-9.8-1.5-15c0-6,0.7-11.7,2.1-17.2c2.3-9.2,6.5-17.5,12.6-25c1.6-1.9,3.3-3.8,5.1-5.6c8.3-8.3,17.7-14,28.2-17.1
		 M104.1,149.5C95,160.8,88.7,173.3,85.2,187c-2.1,8.2-3.1,16.8-3.1,25.8c0,7.8,0.8,15.3,2.3,22.5 M150.5,220.4
		c-0.5-2.4-0.8-4.9-0.8-7.5c0-2,0.2-4,0.5-5.9 M168.9,243.4c-3.3-1.6-6.4-3.9-9.3-6.7c-4.8-4.8-7.8-10.2-9.1-16.4 M117.4,227.9
		c2.7,12.3,8.7,23.3,18.3,32.8c5.7,5.7,11.9,10.2,18.6,13.4 M51.3,242.8c1.8,8.4,4.4,16.4,7.7,24.1c6.6,15.1,16.1,28.9,28.8,41.5
		c9.5,9.5,19.7,17.3,30.6,23.4c2.2,1.2,4.3,2.3,6.5,3.4c5.2,2.5,10.6,4.7,16,6.5c0.8,0,1.5,0.2,2,0.6c5.3,1.6,10.7,2.9,16.3,3.9
		c7.8,1.3,15.9,2,24.4,2c7.6,0,15-0.6,22.3-1.7c5.2-0.8,10.3-1.9,15.3-3.3c3.3-0.9,6.5-2,9.6-3.1c3-1.1,6-2.4,8.9-3.7
		c0.8-0.4,1.7-0.8,2.5-1.2 M139.6,304.6c-10-4.9-19.3-11.6-27.9-20.1c-14.3-14.3-23.4-30.7-27.3-49.2 M139.6,304.6
		c13.4,6.5,28,9.8,44,9.8c16,0,30.6-3.2,43.9-9.7 M212.9,274c-8.9,4.3-18.7,6.5-29.3,6.5c-10.7,0-20.4-2.2-29.3-6.5 M236.5,170.6
		c6.1,7.5,10.4,15.9,12.7,25c1.4,5.5,2.1,11.2,2.1,17.2c0,4.6-0.4,9.1-1.2,13.3c-0.1,0.6-0.2,1.1-0.3,1.7 M236.5,170.6
		c-1.6-1.9-3.3-3.8-5.1-5.7c-7.9-7.9-16.8-13.5-26.7-16.6 M212.6,230.3c-0.6,1-1.3,2-2.1,3 M198.2,243.4c3.3-1.6,6.4-3.9,9.2-6.7
		c1.1-1.1,2.1-2.3,3.1-3.5 M212.6,230.3c1.9-3.1,3.2-6.4,4-9.9 M198.2,243.4c-4.4,2.2-9.3,3.3-14.7,3.3c-1.1,0-2.1,0-3.2-0.1
		c-1.9-0.2-3.7-0.5-5.5-0.9c-2.1-0.5-4.1-1.3-6-2.2 M249.5,228.5c0-0.2,0.1-0.4,0.1-0.6 M249.5,228.5c-2.7,12.1-8.8,22.8-18.2,32.2
		c-5.7,5.7-11.8,10.2-18.5,13.4"/>
	<path class="st7" d="M183.5,74.8l-0.5,2.6 M184.3,77.5l-0.8-2.6 M194,111.8c-0.4-1.2-0.7-2.4-1.1-3.6 M182,82.8l1-5.4 M176.7,111.5
		l5.4-28.7 M184.3,77.5l8.6,30.7 M204.6,148.3l-8.7-29.8c-0.7-2.2-1.3-4.5-1.9-6.7 M170.1,146.4l6.5-34.8 M149.9,207.3l0.3-0.3
		l10.9-12v0l1.6-8.8l7.5-39.8 M135,223.9l25.3,37.5l0,0 M135,223.9L135,223.9l14.9-16.6 M204.6,148.3l11.3,38.7 M210.5,233.3l23.6-4
		 M210.5,233.3l-15.9,2.7l-14.3,10.6l-20.1,14.9 M246.1,227L246.1,227l-12,2.2 M246.1,227l-30.2-40"/>
	<path class="st8" d="M192.9,108.2l-9.4-30.7 M173.9,111.7l8.1-28.9l1.5-5.4 M152.5,188.1l-2.7,19.2 M163.4,254.9l-15.5-34l1.9-13.6
		 M174.9,245.6l-11.5,9.4v-0.1 M163.8,147.9l10.1-36.1 M250,226.2l1.9,2.2 M234.2,229.2l-21.5,1 M192.4,231.4v-0.1l20.2-1
		 M192.4,231.4l-17.5,14.3 M249.5,228.5l2.4-0.1 M234.2,229.2l15.4-0.8 M215.9,187l34.1,39.2 M152.5,188.1l11.3-40.3"/>
	<path class="st9" d="M183.5,84.5v26.9v33.8 M157,191.7l-4.5-3.6 M161,194.9l-4-3.2 M147.9,220.9l2.5-0.6 M163.4,254.9l5.5-11.5
		l14.7-30.6l-33.1,7.5 M210,191.7l5.9-4.7 M216.6,220.3l-33.1-7.5l4.8,10v0l4.1,8.5 M249.7,227.8l2.2,0.5 M249.7,227.8l-3.6-0.8
		 M216.6,220.3l29.5,6.7 M183.5,179v33.8l26.5-21.1 M183.5,179v-33.9 M183.5,212.8L161,194.9"/>
</g>
<use xlink:href="#timetable"  width="254.3" height="273.7" x="24.7" y="-273.7" transform="matrix(1.192 0 0 -1.192 337.4497 50.0762)" style="overflow:visible;"/>
<use xlink:href="#legend"  width="94.7" height="55.8" y="-55.8" transform="matrix(1 0 0 -1 338.5503 315.4258)" style="overflow:visible;"/>
</svg>
