<?xml version="1.0" encoding="utf-8"?>
<!-- Generator: Adobe Illustrator 22.1.0, SVG Export Plug-In . SVG Version: 6.00 Build 0)  -->
<svg version="1.1" id="Layer_1" xmlns="http://www.w3.org/2000/svg" xmlns:xlink="http://www.w3.org/1999/xlink" x="0px" y="0px"
	 viewBox="0 0 400 400" style="enable-background:new 0 0 400 400;" xml:space="preserve">
<style type="text/css">
	.st0{fill:none;stroke:url(#Layer1_0_1_STROKES_1_);stroke-width:7.1;stroke-linecap:round;stroke-linejoin:round;}
</style>
<g transform="matrix( 1, 0, 0, 1, 0,0) ">
	<g>
		
			<linearGradient id="Layer1_0_1_STROKES_1_" gradientUnits="userSpaceOnUse" x1="7.95" y1="202.025" x2="388" y2="202.025" gradientTransform="matrix(1 0 0 -1 0 402)">
			<stop  offset="0" style="stop-color:#FFFFFF;stop-opacity:0"/>
			<stop  offset="0.2078" style="stop-color:#737373;stop-opacity:2.000000e-02"/>
			<stop  offset="0.5176" style="stop-color:#424242;stop-opacity:3.000000e-02"/>
			<stop  offset="1" style="stop-color:#000000;stop-opacity:5.000000e-02"/>
		</linearGradient>
		<path id="Layer1_0_1_STROKES" class="st0" d="M263.9,118.8l51-4.8l25.4-0.9l13.7,1.3c1.2,0.3,2.2,0.5,2.8,0.7
			c1,0.2,1.8,0.5,2.5,0.8l2,0.9l1.4,0.9l0.6,0.7l0,0.2l0,1.6l-0.8,3c-0.1,0.5-0.5,1.3-1,2.3c-0.5,1.2-1,2.1-1.4,2.7l-0.3,0.7
			c-0.2,0.3-0.3,0.6-0.4,0.8c-0.2,0.3-0.3,0.5-0.4,0.6l-0.4,0.7c-0.7,1.3-1.3,2.2-1.8,2.8l-1.9,2.8c-0.9,1.3-1.6,2.2-2.1,2.8
			l-2.6,3.5l-18.8,21.3l-64,63.4l-0.3,0.3l-0.3,0.3L230.1,266c0.1-0.1,1-0.5,2.6-1.2l0.8-0.3l31.6-19l29.5-20.6
			c7.4-5.5,14.7-11.2,22-17.2l19.7-17.1l24.6-25.3c4.2-4.9,7.5-9.1,10-12.8c0,0,0.8-1.2,2.4-3.4l2.3-3.5c1-1.6,1.7-2.8,2.2-3.7
			l2-3.9c0.7-1.5,1.3-2.9,1.8-4.1l2-7.2c0.1-0.4,0.3-1.3,0.5-2.7l0.3-2.8c0-1.4,0-2.4-0.1-3.1c-0.1-1.1-0.3-2.1-0.5-3.3
			c-0.3-1.1-0.6-2.2-1-3.3c-0.6-1.3-1.1-2.4-1.6-3.2c-0.5-0.9-1.2-1.8-2-2.8c-0.7-0.9-1.5-1.7-2.3-2.4l-2.4-1.9l-4.9-2.7l-4.7-1.5
			c-1.5-0.4-3-0.8-4.4-1l-1.9-0.3l-0.3,0l-0.5-0.1l-9.4-0.4l-17.5,1.8c-2.4,0.4-4.6,0.8-6.5,1.2c-1.9,0.4-3.9,0.8-6.1,1.4l-4.4,0.9
			l-26.1,8.1l-21.5,8.7L263.9,118.8L263.9,118.8c-0.1-0.2-0.1-0.2,0-0.2l1.9-0.9L263.9,118.8z M362,191.9l0.9,6.1
			c0.4,3.5,0.7,5.8,0.8,7c0.2,3,0.3,6,0.4,9.1c0,3.9-0.1,7.5-0.3,10.9l-0.1,1.1v0.4l-0.4,3.7l0,0.2v0.1l-0.6,3.9l0.1,0.2l-0.1,0.1
			l-0.1,0.8l-0.3,1.5c-0.7,4.5-1.7,8.7-2.9,12.8l-4.3,13c-0.8,2-1.7,4.1-2.7,6.3l-3,6.3c-1,1.9-2.1,3.9-3.2,6l-12.5,19l-12.8,15.3
			l-8.1,8.9l14.8-11.8l9.8-9.1l6.9-7.2L353,286c0.2-0.2,1.6-2.1,4.3-5.8l4.1-6.1c0.9-1.3,2.2-3.4,3.9-6.3l6.7-13.3
			c1.9-4.2,3.6-8.7,5.3-13.6l3.3-11.7l0-0.4l0.2-0.4l0.1-0.8c0.8-3.6,1.5-7.7,2.1-12.2c0.5-3.5,0.9-7,1.1-10.4
			c0.2-2.5,0.3-5.2,0.3-8l-0.1-7.1c0-3.1-1.1-5.7-3.4-7.9c-2.3-2.2-4.9-3.2-8-3.2c-3.1,0.1-5.8,1.2-8,3.5c-2.2,2.2-3.3,4.9-3.3,8.1
			C361.8,190.6,361.9,191.2,362,191.9z M189.9,36l6.1-1c3.5-0.4,5.8-0.7,7-0.8c3-0.2,6-0.3,9.1-0.3c3.9-0.1,7.5,0,10.9,0.3l1.1,0.1
			l0.3,0l3.8,0.4l0.2,0h0.1l3.9,0.5l0.2,0l0.2,0.1l0.8,0.1l1.6,0.3c4.4,0.8,8.7,1.7,12.8,2.9l13,4.3c2.1,0.8,4.2,1.7,6.4,2.7l6.1,3
			c2,1,4,2.1,6,3.2l19.1,12.5l15.3,12.8l8.7,8.3l-11.6-14.8l-9.1-9.8l-7.2-6.9L283.9,45c-0.2-0.2-2.1-1.6-5.8-4.3l-6.1-4.1
			c-1.3-0.9-3.4-2.2-6.3-3.8l-9.6-5l-0.1-0.1l-3.6-1.6c-4.2-1.9-8.8-3.6-13.6-5.3L225.6,17c-3.6-0.8-7.7-1.5-12.2-2.1
			c-3.5-0.5-7-0.9-10.4-1.1c-2.5-0.2-5.2-0.3-8.1-0.3h-7c-3.1,0.1-5.8,1.2-7.9,3.5c-2.2,2.2-3.2,4.9-3.2,8c0.1,3.1,1.2,5.8,3.4,8
			c2.3,2.2,5,3.3,8.1,3.3C188.6,36.2,189.1,36.1,189.9,36z M116.9,134l-4.7-50.9l-0.9-25.4l1.3-13.7c0.2-1.3,0.4-2.2,0.7-2.8
			c0.2-0.9,0.5-1.8,0.8-2.5l0.9-2l0.9-1.4l0.4-0.3l0.3-0.2l1.6,0l2.2,0.5l0.2,0.1l0.6,0.2c0.5,0.1,1.3,0.5,2.5,1
			c1.2,0.5,2.1,1,2.7,1.3l0.7,0.3c0.3,0.2,0.5,0.3,0.7,0.4c0.3,0.2,0.6,0.3,0.7,0.4l0.7,0.4c1.2,0.7,2.1,1.3,2.8,1.8l2.8,1.9
			c1.3,0.9,2.2,1.6,2.8,2l24.9,21.4l63.3,64l0.3,0.3l0.3,0.3l37.9,36.9l-1.2-2.7l-19.4-32.3l-20.6-29.6c-5.5-7.4-11.2-14.7-17.2-22
			l-17.1-19.7L163.4,37c-4.9-4.2-9.1-7.5-12.7-10.1l-6.9-4.6c-1.6-0.9-2.9-1.7-3.8-2.2l-3.8-2c-1.5-0.7-2.9-1.3-4.3-1.8l-7.1-2.1
			c-0.5-0.1-1.4-0.3-2.7-0.4l-2.9-0.2c-1.3,0-2.3,0-3,0.1c-1.1,0.1-2.1,0.3-3.2,0.5c-1.1,0.3-2.2,0.6-3.3,1
			c-1.3,0.6-2.4,1.1-3.2,1.5c-0.9,0.5-1.8,1.2-2.8,2c-0.9,0.7-1.7,1.5-2.3,2.3l-2,2.4l-2.7,4.9l-1.6,4.7c-0.4,1.6-0.7,3-0.9,4.4
			l-0.3,1.9v0.3L93.8,40l-0.4,9.4l1.8,17.5c0.4,2.4,0.8,4.6,1.2,6.5c0.4,1.9,0.8,3.9,1.4,6.1l1,4.5l8.1,26.1l8.7,21.5l0.1,0.4l1,2.3
			c0,0,0.1,0,0.2,0L116.9,134z M132.1,281l-50.9,4.8l-25.5,0.9L42,285.4c-1.2-0.3-2.2-0.5-2.8-0.6c-1-0.2-1.8-0.5-2.5-0.8l-2-0.9
			l-1.4-0.9l-0.5-0.6l0-0.2v-1.5l0.8-3c0.2-0.5,0.5-1.3,1-2.4c0.5-1.2,0.9-2,1.3-2.6l0.3-0.7c0.2-0.3,0.4-0.5,0.5-0.6
			c0.2-0.3,0.3-0.6,0.4-0.8l0.4-0.6c0.7-1.2,1.3-2.2,1.8-2.9l1.9-2.8c0.9-1.2,1.5-2.2,2-2.8l21.5-24.8l64.5-63.9l36.8-37.9
			c0.1,0,0.1-0.1,0.1-0.1h-0.1l-2.3,1.1l-0.3,0.3l-0.8,0.4l-31.5,18.9L101.3,175c-7.4,5.5-14.7,11.3-22,17.3l-19.8,17.1L35,234.6
			c-4.2,4.9-7.5,9.1-10.1,12.7c0,0-0.8,1.2-2.4,3.4l-2.3,3.5c-1,1.6-1.7,2.8-2.2,3.7l-2,3.9c-0.7,1.5-1.3,2.9-1.8,4.3l-2.1,7.1
			c-0.1,0.4-0.2,1.3-0.4,2.7l-0.3,2.8c0,1.3,0.1,2.4,0.1,3c0.1,1.1,0.2,2.1,0.5,3.3c0.3,1.1,0.6,2.2,1,3.3c0.6,1.3,1.1,2.3,1.6,3.1
			c0.5,0.9,1.1,1.8,1.9,2.8c0.7,0.9,1.5,1.7,2.4,2.4l2.4,1.9l4.9,2.7l4.6,1.6c1.5,0.4,3,0.7,4.4,0.9l2.6,0.4l9.3,0.4l17.6-1.8
			c2.4-0.4,4.6-0.8,6.4-1.2c1.9-0.4,3.9-0.8,6.1-1.3l30.6-9.1l21.4-8.6l0.4-0.1l0.3-0.2l2-0.9C132.1,281.3,132.1,281.2,132.1,281
			L132.1,281z M34.2,208l-1-6.1c-0.4-3.5-0.7-5.8-0.8-7c-0.2-3-0.3-6-0.4-9.1c0-3.8,0.1-7.4,0.3-10.8l0.1-1.1v-0.4l0.3-3.8l0-0.1
			l0.1-0.2l0.5-3.8l-0.1-0.2l0.1-0.3l0.4-2.3c0.7-4.4,1.7-8.7,2.9-12.8l4.3-12.9c0.8-2.1,1.7-4.2,2.7-6.3l3-6.2c1-2,2.1-4,3.2-6.1
			l0.8-1.4l11.7-17.6l12.8-15.3l8.3-8.7L68.6,87.2l-9.8,9.2l-6.8,7.2L43,114c-0.2,0.2-1.6,2.1-4.3,5.8l-4.1,6.1
			c-0.9,1.3-2.2,3.4-3.9,6.3l-5,9.6l-0.1,0.1l-1.6,3.6c-1.9,4.2-3.7,8.7-5.3,13.6l-3.2,11.6l-0.1,0.4l-0.2,0.4l-0.2,0.8
			c-0.8,3.6-1.5,7.7-2.1,12.2c-0.5,3.5-0.8,6.9-1.1,10.4c-0.2,2.5-0.3,5.2-0.3,8.1l0,7c0,3.1,1.2,5.7,3.5,7.9c2.2,2.2,4.9,3.3,8,3.3
			c3.2-0.1,5.8-1.3,8-3.5c2.2-2.2,3.2-4.9,3.2-8.1C34.3,209.3,34.2,208.8,34.2,208z M279.2,265.9l4.6,50.9l0.9,25.5l-1.3,13.8
			c-0.3,1.3-0.5,2.2-0.6,2.8c-0.2,1-0.5,1.8-0.8,2.5l-0.9,2l-0.9,1.3l-0.4,0.4l-0.3,0.1l-0.1,0.1h-1.5l-3-0.8
			c-0.5-0.2-1.3-0.5-2.5-1c-1.1-0.5-2-0.9-2.6-1.3l-0.7-0.3c-0.3-0.2-0.5-0.4-0.6-0.5c-0.3-0.2-0.5-0.3-0.7-0.4l-0.7-0.4
			c-1.2-0.7-2.1-1.3-2.8-1.8l-2.9-1.9c-1.3-0.9-2.2-1.6-2.8-2.1l-24.8-21.4l-63.4-64l-0.3-0.2l-0.3-0.3l-38-36.8l20.7,34.8
			l20.6,29.6c5.5,7.4,11.2,14.7,17.3,22l17.1,19.8l25.3,24.6c4.9,4.2,9.1,7.5,12.7,10.1c0,0,1.2,0.8,3.4,2.4l3.6,2.2
			c1.6,1,2.8,1.7,3.8,2.2l3.9,2c1.5,0.7,2.9,1.3,4.2,1.8l7.1,2.1c0.5,0.1,1.4,0.3,2.7,0.5l2.9,0.3c1.4,0,2.4-0.1,3-0.2
			c1.1-0.1,2.1-0.2,3.2-0.4c1.1-0.3,2.2-0.6,3.3-1c1.3-0.6,2.4-1.1,3.1-1.6c0.9-0.5,1.8-1.1,2.9-1.9c0.9-0.8,1.7-1.5,2.4-2.4l2-2.5
			l2.6-4.9l1.6-4.6c0.4-1.5,0.7-3,0.9-4.4l0.3-1.8v-0.3l0.1-0.5l0.4-9.4l-1.8-17.6c-0.4-2.4-0.8-4.6-1.1-6.4
			c-0.4-1.8-0.9-3.9-1.4-6.1l-1-4.4l-8.1-26.2l-8.6-21.4l-0.1-0.4l-1-2.3c0,0,0-0.1-0.1-0.1L279.2,265.9z M206,363.8l-6.1,1
			c-3.5,0.4-5.8,0.7-7,0.8c-3,0.2-6,0.3-9.1,0.4c-3.9,0-7.5-0.1-10.9-0.4l-5.1-0.5l-0.1-0.1l-0.2,0.1l-3.8-0.6h-0.2l-0.2,0l-0.8-0.1
			l-1.5-0.4c-4.4-0.7-8.7-1.6-12.8-2.8l-13-4.4c-2-0.8-4.1-1.7-6.3-2.6l-6.2-3c-2-1-4-2.1-6.1-3.2l-1.4-0.8l-17.6-11.7l-15.3-12.8
			l-8.7-8.3c0-0.1-0.1-0.1-0.2,0c-0.1,0-0.1,0.1,0,0.1l11.8,14.7l9.2,9.9l7.2,6.8l10.5,8.9c0.2,0.2,2.1,1.6,5.8,4.3l6.1,4
			c1.3,0.9,3.4,2.2,6.3,3.9l13.3,6.7c4.2,1.9,8.8,3.7,13.7,5.3l11.6,3.3h0.4l0.4,0.1l0.9,0.1c3.6,0.8,7.6,1.6,12.1,2.3
			c3.5,0.4,7,0.8,10.4,1c2.5,0.2,5.2,0.3,8.1,0.4l7-0.1c3.1,0,5.8-1.2,7.9-3.4c2.2-2.3,3.2-5,3.2-8c-0.1-3.2-1.2-5.8-3.4-8
			c-2.3-2.2-4.9-3.2-8.1-3.1C207.3,363.7,206.8,363.7,206,363.8z M232.8,264.8l-1.9,1.1l1.7-0.9L232.8,264.8z M230.8,265.9l-0.7,0.1
			"/>
	</g>
</g>
</svg>
