<?xml version="1.0" encoding="utf-8"?>
<!-- Generator: Adobe Illustrator 20.1.0, SVG Export Plug-In . SVG Version: 6.00 Build 0)  -->
<svg version="1.1" id="Layer_1" xmlns="http://www.w3.org/2000/svg" xmlns:xlink="http://www.w3.org/1999/xlink" x="0px" y="0px"
	 viewBox="0 0 357.9 357.9" style="enable-background:new 0 0 357.9 357.9;" xml:space="preserve">
<style type="text/css">
	.st0{fill:#FFFFFF;}
</style>
<g transform="matrix( 1, 0, 0, 1, 0,0) ">
	<g>
		<g id="Layer4_0_FILL">
			<path class="st0" d="M136.8,344c-0.1,0.1-0.1,0.1,0.1,0.1l17.9,5.9l13,3.3l9.8,1.9l13.6,1.7c0.3,0,2.7,0.2,7.2,0.5l7.4,0.1
				c1.6,0,4.1-0.1,7.4-0.2l10.7-1h0.2l3.9-0.6c4.5-0.7,9.3-1.7,14.3-3l11.6-3.6l0.4-0.1l0.4-0.1l0.8-0.3c3.5-1.3,7.3-2.9,11.4-4.8
				c3.2-1.5,6.3-3.1,9.3-4.8c2.2-1.2,4.5-2.6,6.9-4.1l5.9-3.8c2.6-1.7,4.2-4.1,4.8-7.2s0-5.9-1.7-8.5c-1.8-2.6-4.2-4.2-7.3-4.8
				s-5.9,0-8.5,1.7c-0.3,0.2-0.7,0.6-1.3,1.1l-4.6,4.1c-2.7,2.3-4.5,3.8-5.5,4.5c-2.4,1.8-4.8,3.6-7.4,5.3c-3.2,2.2-6.3,4.1-9.3,5.7
				l-1,0.5l-0.3,0.2l-3.4,1.7l-0.1,0l-0.2,0.1l-3.5,1.6l-0.1,0.1l-0.2,0l-0.7,0.4l-1.5,0.6c-4.1,1.8-8.2,3.3-12.3,4.5l-13.3,3.4
				c-2.1,0.5-4.4,0.9-6.8,1.3l-6.9,0.9c-2.2,0.2-4.5,0.4-6.8,0.6l-1.7,0.1l-21.1-0.2l-19.8-2.4l-11.8-2.2
				C136.9,343.8,136.8,343.9,136.8,344 M8.3,154.8L5,167.9l-1.8,9.8l-1.7,13.6c0,0.3-0.2,2.7-0.5,7.2l-0.1,7.4
				c0,1.6,0.1,4.1,0.2,7.4l1,10.7v0.2l0.6,3.9c0.7,4.5,1.7,9.3,3,14.3l3.6,11.5l0.1,0.4l0.1,0.4l0.3,0.8c1.3,3.5,2.9,7.3,4.8,11.4
				c1.5,3.2,3.1,6.3,4.8,9.3c1.2,2.2,2.6,4.5,4.1,7l3.9,5.9c1.7,2.6,4.1,4.2,7.2,4.8c3.1,0.6,5.9,0,8.5-1.7c2.6-1.8,4.2-4.2,4.8-7.3
				c0.6-3.1,0-5.9-1.7-8.5c-0.2-0.3-0.6-0.7-1.1-1.3l-4.1-4.6c-2.3-2.7-3.7-4.5-4.4-5.4c-1.8-2.4-3.6-4.9-5.3-7.5
				c-2.2-3.2-4-6.3-5.6-9.3l-0.5-1l-0.2-0.3l-1.7-3.4l0-0.1l-0.1-0.1l-1.7-3.5l-0.1-0.1l-0.1-0.2l-0.3-0.7l-0.5-1.4
				c-1.8-4.1-3.3-8.2-4.5-12.3l-3.4-13.3c-0.5-2.1-0.9-4.4-1.3-6.8l-0.9-6.9c-0.2-2.2-0.4-4.5-0.6-6.8l-0.1-1.6l0.2-21.1l2.4-19.8
				l2.2-11.8c0.1-0.1,0-0.1,0-0.1c-0.1-0.1-0.1,0-0.1,0.1L8.3,154.8 M203,8.8l-13.1-3.3l-9.8-1.9l-13.6-1.7c-0.3,0-2.7-0.2-7.2-0.5
				l-7.3-0.1c-1.6,0-4.1,0.1-7.4,0.2l-10.7,1h-0.2l-3.9,0.6c-4.5,0.7-9.3,1.7-14.3,3L104,9.8l-0.4,0.2l-0.4,0.1l-0.8,0.3
				c-3.5,1.3-7.3,2.9-11.4,4.8c-3.2,1.5-6.3,3.1-9.3,4.8c-2.2,1.2-4.6,2.6-6.9,4.1l-5.9,3.9c-2.6,1.7-4.2,4.1-4.8,7.2
				c-0.6,3.1,0,5.9,1.7,8.5c1.8,2.6,4.2,4.2,7.3,4.8c3.1,0.6,5.9,0,8.5-1.7c0.3-0.2,0.7-0.5,1.3-1l4.6-4.1c2.7-2.3,4.5-3.8,5.4-4.5
				c2.4-1.8,4.9-3.6,7.4-5.3c3.2-2.2,6.3-4,9.3-5.6l0.9-0.5l0.3-0.2l3.4-1.7l0.1,0l0.2-0.1l3.5-1.6l0.1-0.1l0.2,0l0.7-0.3l1.5-0.5
				c4.1-1.8,8.2-3.3,12.3-4.6l13.3-3.4c2.1-0.5,4.4-0.9,6.8-1.3l6.9-0.9c2.2-0.2,4.5-0.4,6.8-0.6l1.6-0.1l21.1,0.2l19.8,2.4
				l11.8,2.2c0.1,0.1,0.1,0,0.1-0.1c0.1-0.1,0.1-0.1-0.1-0.1L203,8.8 M314.4,65.9c-2.6,1.8-4.2,4.2-4.8,7.3c-0.6,3.1,0,5.9,1.7,8.5
				c0.2,0.3,0.6,0.7,1.1,1.3l4.1,4.6c2.3,2.7,3.7,4.5,4.4,5.4c1.8,2.4,3.6,4.9,5.3,7.4c2.2,3.2,4,6.3,5.6,9.3l0.5,0.9l0.2,0.3
				l1.7,3.4l0,0.1l0.1,0.1l1.6,3.5l0.1,0.2l0.1,0.2l0.3,0.7l0.6,1.4c1.8,4.1,3.3,8.2,4.5,12.3l3.4,13.3c0.5,2.1,0.9,4.4,1.3,6.8
				l0.9,6.9c0.2,2.2,0.4,4.5,0.6,6.8l0.1,1.6l-0.2,21.1l-2.4,19.8l-2.2,11.8c-0.1,0.1,0,0.1,0,0.1c0.1,0.1,0.1,0,0.1-0.1l6-17.9
				l3.3-13.1l1.9-9.8l1.7-13.6c0-0.3,0.2-2.7,0.5-7.2l0.1-7.4c0-1.6-0.1-4.1-0.2-7.4l-1-10.7v-0.2l-0.6-3.9c-0.7-4.5-1.7-9.3-3-14.3
				l-3.6-11.5l-0.2-0.4l-0.1-0.4l-0.3-0.8c-1.3-3.5-2.9-7.3-4.8-11.4c-1.5-3.2-3.1-6.3-4.8-9.3c-1.2-2.2-2.6-4.6-4.1-6.9l-3.9-5.9
				c-1.7-2.6-4.1-4.2-7.2-4.8C319.8,63.6,317,64.2,314.4,65.9z"/>
		</g>
	</g>
</g>
<g transform="matrix( 1, 0, 0, 1, 0,0) ">
	<g>
		<g id="Layer1_0_FILL">
			<path class="st0" d="M114.4,143.5l-0.4,0.8l-16.1,33.1l-13.6,33.4c-3.2,8.6-6.2,17.4-9.1,26.4l-7.3,25.1L61,296.8
				c-0.8,6.4-1.3,11.8-1.5,16.1c0,0-0.1,1.4-0.2,4.1l0.1,4.2c0.1,1.9,0.1,3.3,0.2,4.3l0.5,4.4c0.2,1.6,0.5,3.1,0.8,4.5l2.1,7.1
				c0.2,0.4,0.5,1.3,1.1,2.5l1.3,2.5c0.7,1.1,1.3,2,1.8,2.5c0.7,0.8,1.4,1.7,2.2,2.5c0.8,0.8,1.7,1.5,2.6,2.2c1.2,0.8,2.2,1.4,3,1.8
				c0.9,0.5,2,0.9,3.2,1.3c1.1,0.3,2.2,0.6,3.3,0.8l3.1,0.3l5.6-0.5l4.8-1.2c1.5-0.5,2.9-1,4.2-1.6l1.7-0.8l0.3-0.1l0.4-0.2l8.1-4.8
				l13.8-11c1.8-1.7,3.4-3.2,4.8-4.5c1.4-1.3,2.8-2.8,4.4-4.5l3.2-3.3l17.5-21l13.3-19l0.3-0.3l0.2-0.3l1.1-1.8c0,0,0-0.1-0.1-0.1
				h-0.1l-40.2,31.7l-20.8,14.6l-12.2,6.4c-1.2,0.5-2.1,0.8-2.7,1c-0.9,0.3-1.8,0.6-2.5,0.7l-2.2,0.4l-1.6,0l-0.5-0.1l-0.3-0.2
				l-0.1-0.1l-0.8-1.3l-0.8-2l-0.1-0.3l-0.2-0.6c-0.1-0.5-0.3-1.4-0.5-2.5c-0.2-1.3-0.3-2.3-0.4-3l-0.1-0.8c0-0.4,0-0.6-0.1-0.8
				c0-0.4,0-0.6-0.1-0.8v-0.8c-0.1-1.4-0.1-2.5-0.1-3.3l0.1-3.4c0.1-1.5,0.1-2.7,0.2-3.4l0.4-4.4l4.1-28.1l19.2-88.1l0.1-0.3
				l0.1-0.4l10.3-51.8c0.1-0.1,0.1-0.1-0.1-0.1l-0.1,0.1l-1.3,2.1L114.4,143.5 M136.8,342.9c-0.1,0.1-0.1,0.1,0,0.1l17.9,6l13.1,3.3
				l9.8,1.9l13.6,1.7c0.3,0,2.7,0.2,7.2,0.5l7.4,0.1c1.6,0,4.1-0.1,7.4-0.2l10.7-1h0.2l3.9-0.6c4.5-0.7,9.3-1.7,14.3-3l11.5-3.6
				l0.4-0.2l0.4-0.1l0.8-0.3c3.5-1.3,7.3-2.9,11.4-4.8c3.2-1.5,6.3-3.1,9.3-4.8c2.2-1.2,4.6-2.6,7-4.1l5.9-3.9
				c2.6-1.7,4.2-4.1,4.8-7.2c0.6-3.1,0-5.9-1.7-8.5c-1.8-2.6-4.2-4.2-7.3-4.8c-3.1-0.6-5.9,0-8.5,1.7c-0.3,0.2-0.7,0.6-1.3,1.1
				l-4.6,4.1c-2.7,2.3-4.5,3.7-5.4,4.4c-2.4,1.8-4.9,3.6-7.5,5.3c-3.2,2.2-6.3,4-9.3,5.6l-0.9,0.5l-0.3,0.2l-3.4,1.7l-0.1,0
				l-0.1,0.1l-3.5,1.6l-0.1,0.1l-0.2,0.1l-0.7,0.3l-1.5,0.6c-4.1,1.8-8.2,3.3-12.3,4.5l-13.3,3.4c-2.1,0.5-4.4,0.9-6.8,1.3l-6.8,0.9
				c-2.2,0.2-4.5,0.4-6.8,0.6l-1.7,0.1l-21.1-0.2l-19.8-2.4L136.8,342.9C136.8,342.7,136.8,342.8,136.8,342.9 M328.7,225.4l-3.3-3.1
				l-21-17.6l-19-13.3l-0.3-0.3l-0.3-0.1l-1.8-1.2c0,0-0.1,0-0.1,0.1v0.1l31.7,40.1l14.6,20.9l6.4,12.2c0.5,1.2,0.8,2.1,1,2.7
				c0.3,0.9,0.6,1.8,0.7,2.5l0.4,2.2l0,1.6l-0.1,0.5l-0.2,0.3l-0.1,0.1l-1.3,0.8l-2,0.8l-0.3,0l-0.6,0.2c-0.5,0.1-1.4,0.3-2.5,0.5
				c-1.3,0.2-2.3,0.3-3,0.4l-0.8,0.1c-0.4,0-0.6,0-0.8,0.1c-0.4,0-0.6,0-0.8,0h-0.8c-1.4,0.1-2.5,0.1-3.3,0.1l-3.4-0.1
				c-1.5-0.1-2.7-0.1-3.4-0.2l-4.4-0.4l-28.1-4.1l-88.1-19.2l-0.3-0.1l-0.4-0.1l-51.8-10.3c-0.1-0.1-0.1-0.1-0.1,0l0.1,0.1l2.1,1.3
				l0.4,0.1l0.8,0.5l33.1,16.1l33.4,13.6c8.6,3.2,17.4,6.2,26.4,9.1l25.1,7.3l34.6,6.9c6.4,0.8,11.8,1.3,16.1,1.5c0,0,1.4,0,4.1,0.1
				l4.2,0c1.9-0.1,3.3-0.1,4.3-0.2l4.4-0.5c1.6-0.2,3.1-0.5,4.5-0.8l7.1-2.1c0.4-0.2,1.3-0.5,2.5-1.1l2.5-1.3c1.1-0.7,2-1.3,2.5-1.8
				c0.8-0.7,1.7-1.4,2.5-2.2c0.8-0.8,1.5-1.7,2.2-2.6c0.8-1.2,1.4-2.2,1.8-3c0.5-0.9,0.9-2,1.3-3.2c0.3-1.1,0.6-2.2,0.8-3.3l0.3-3.1
				l-0.5-5.6l-1.2-4.8c-0.5-1.5-1-2.9-1.6-4.2l-0.8-1.7l-0.1-0.3l-0.2-0.4l-4.8-8.1l-11-13.8c-1.7-1.8-3.2-3.4-4.5-4.8
				C331.8,228.5,330.3,227,328.7,225.4 M314.1,65.9c-2.6,1.8-4.2,4.2-4.8,7.3c-0.6,3.1,0,5.9,1.7,8.5c0.2,0.3,0.6,0.7,1.1,1.3
				l4.1,4.6c2.3,2.7,3.7,4.5,4.4,5.4c1.8,2.4,3.6,4.9,5.3,7.4c2.2,3.2,4,6.3,5.6,9.3l0.5,0.9l0.2,0.3l1.7,3.4l0,0.1l0.1,0.1l1.6,3.5
				l0.1,0.2l0.1,0.2l0.3,0.7l0.6,1.4c1.8,4.1,3.3,8.2,4.5,12.3l3.4,13.3c0.5,2.1,0.9,4.4,1.3,6.8l0.9,6.9c0.2,2.2,0.4,4.5,0.6,6.8
				l0.1,1.6l-0.2,21.1l-2.4,19.8l-2.2,11.8c-0.1,0.1,0,0.1,0,0.1c0.1,0.1,0.1,0,0.1-0.1l6-17.9l3.3-13.1l1.9-9.8l1.7-13.6
				c0-0.3,0.2-2.7,0.5-7.2l0.1-7.4c0-1.6-0.1-4.1-0.2-7.4l-1-10.7v-0.2l-0.6-3.9c-0.7-4.5-1.7-9.3-3-14.3l-3.6-11.5l-0.2-0.4
				l-0.1-0.4l-0.3-0.8c-1.3-3.5-2.9-7.3-4.8-11.4c-1.5-3.2-3.1-6.3-4.8-9.3c-1.2-2.2-2.6-4.6-4.1-6.9l-3.9-5.9
				c-1.7-2.6-4.1-4.2-7.2-4.8C319.5,63.6,316.7,64.2,314.1,65.9 M273.3,0l-5.5,0.5L263,1.7c-1.5,0.5-2.9,1-4.2,1.6l-1.7,0.8
				l-0.3,0.1l-0.5,0.2l-8.1,4.8l-13.8,11c-1.8,1.7-3.4,3.2-4.8,4.5c-1.4,1.3-2.8,2.8-4.4,4.5l-3.1,3.3l-17.6,21l-13.3,18.9l-0.3,0.3
				l-0.1,0.3l-1.2,1.8c0,0,0,0.1,0.1,0.1h0.1l40.1-31.7L251,28.7l12.2-6.4c1.2-0.5,2.1-0.8,2.7-0.9c0.9-0.3,1.8-0.6,2.5-0.7l2.2-0.4
				l1.6,0.1l0.5,0.1l0.3,0.2l0.1,0.1L274,22l0.8,2.1l0.1,0.3L275,25c0.1,0.5,0.3,1.4,0.5,2.5c0.2,1.3,0.3,2.3,0.4,3l0.1,0.8
				c0,0.4,0,0.6,0,0.8c0,0.4,0,0.6,0.1,0.8v0.8c0.1,1.4,0.1,2.5,0,3.3l0,3.4c-0.1,1.5-0.1,2.7-0.2,3.5l-0.4,4.4l-4.1,28.1
				l-19.2,88.1l0,0.3l-0.1,0.4l-10.3,51.8c-0.1,0.1,0,0.1,0.1,0.1l0.1-0.1l1.3-2.1l0.2-0.4l0.4-0.8l16.1-33.1l13.6-33.4
				c3.2-8.6,6.2-17.4,9-26.4l7.3-25.1l6.9-34.6c0.8-6.4,1.3-11.8,1.5-16.2c0,0,0.1-1.4,0.2-4.2l-0.1-4.2c-0.1-1.9-0.1-3.3-0.2-4.3
				l-0.5-4.4c-0.2-1.6-0.5-3.1-0.8-4.5l-2.1-7.1c-0.2-0.4-0.5-1.3-1.1-2.5l-1.4-2.5c-0.7-1.1-1.3-2-1.8-2.5
				c-0.7-0.8-1.4-1.7-2.1-2.5c-0.8-0.8-1.7-1.5-2.6-2.2c-1.2-0.8-2.2-1.4-3-1.8c-0.9-0.5-2-0.9-3.2-1.3c-1.1-0.3-2.2-0.6-3.3-0.8
				L273.3,0 M202.9,9l-13.1-3.3l-9.8-1.9l-13.6-1.7c-0.3,0-2.7-0.2-7.2-0.5L152,1.6c-1.6,0-4.1,0.1-7.4,0.2l-10.7,1h-0.2l-3.9,0.6
				c-4.5,0.7-9.3,1.7-14.3,3L103.9,10l-0.3,0.2l-0.4,0.1l-0.8,0.3c-3.5,1.3-7.3,2.9-11.4,4.8c-3.2,1.5-6.3,3.1-9.3,4.8
				c-2.2,1.2-4.5,2.6-6.9,4.1l-5.9,3.9c-2.6,1.7-4.2,4.1-4.8,7.2c-0.6,3.1,0,5.9,1.7,8.5c1.8,2.6,4.2,4.2,7.3,4.8
				c3.1,0.6,5.9,0,8.5-1.7c0.3-0.2,0.7-0.5,1.3-1l4.6-4.1c2.7-2.3,4.5-3.8,5.4-4.5c2.4-1.8,4.9-3.6,7.5-5.3c3.2-2.2,6.3-4,9.2-5.6
				l1-0.5l0.3-0.2l3.4-1.7l0.1,0l0.2-0.1l3.5-1.6l0.1-0.1l0.2,0l0.7-0.3l1.4-0.5c4.1-1.8,8.2-3.3,12.3-4.6l13.3-3.4
				c2.1-0.5,4.4-0.9,6.8-1.3l6.8-0.9c2.2-0.2,4.5-0.4,6.8-0.6l1.6-0.1l21.1,0.2l19.8,2.4l11.8,2.2c0.1,0.1,0.1,0,0.1-0.1
				c0.1-0.1,0.1-0.1-0.1-0.1L202.9,9 M214.4,114.4l-0.8-0.4l-33.1-16.1l-33.4-13.6c-8.6-3.2-17.4-6.2-26.4-9.1L95.7,68l-34.6-6.9
				c-6.4-0.8-11.8-1.3-16.2-1.5c0,0-1.4-0.1-4.2-0.2l-4.2,0.1c-1.9,0.1-3.3,0.1-4.3,0.2l-4.4,0.4c-1.6,0.2-3.1,0.5-4.5,0.8L16.3,63
				c-0.4,0.2-1.3,0.5-2.5,1.1l-2.5,1.4c-1.1,0.7-2,1.3-2.5,1.8c-0.8,0.7-1.7,1.4-2.5,2.1c-0.8,0.8-1.5,1.7-2.2,2.7
				c-0.8,1.2-1.4,2.2-1.8,3c-0.5,0.9-0.9,2-1.3,3.2c-0.3,1.1-0.6,2.2-0.8,3.3L0,84.6l0.5,5.5l1.2,4.8c0.5,1.5,1,2.9,1.6,4.2l0.8,1.7
				l0.1,0.3l0.2,0.4l4.8,8.1l11,13.8c1.7,1.8,3.2,3.4,4.5,4.8c1.3,1.4,2.8,2.8,4.5,4.4l3.3,3.1l21,17.6l18.9,13.3l0.3,0.3l0.3,0.1
				l1.8,1.2c0,0,0.1,0,0.1-0.1v-0.1l-31.7-40.1l-14.6-20.8l-6.4-12.2c-0.5-1.2-0.8-2.1-0.9-2.7c-0.3-0.9-0.6-1.8-0.7-2.5l-0.4-2.2
				l0.1-1.6l0.1-0.5l0.2-0.3l0.1-0.2l1.3-0.8l2.1-0.8l0.3-0.1l0.6-0.2c0.5-0.1,1.4-0.3,2.5-0.5c1.3-0.2,2.3-0.3,3-0.4l0.8-0.1
				c0.4,0,0.6,0,0.8,0c0.4,0,0.6,0,0.8-0.1h0.8c1.4-0.1,2.5-0.1,3.3-0.1l3.4,0.1c1.5,0.1,2.7,0.1,3.5,0.2l4.4,0.4l28.1,4.1
				l88.1,19.2l0.3,0l0.4,0.1l51.8,10.3c0.1,0.1,0.1,0,0.1-0.1l-0.1-0.1l-2.1-1.3L214.4,114.4 M9,154.8l-3.3,13.1l-1.9,9.8l-1.7,13.6
				c0,0.3-0.2,2.7-0.5,7.2l-0.1,7.4c0,1.6,0.1,4.1,0.2,7.4l1,10.7v0.2l0.6,3.9c0.7,4.5,1.7,9.3,3,14.3l3.6,11.5l0.2,0.4l0.1,0.4
				l0.3,0.8c1.3,3.5,2.9,7.3,4.8,11.4c1.5,3.2,3.1,6.3,4.8,9.3c1.2,2.2,2.6,4.5,4.1,7l3.9,5.9c1.7,2.6,4.1,4.2,7.2,4.8
				c3.1,0.6,5.9,0,8.5-1.7c2.6-1.8,4.2-4.2,4.8-7.3c0.6-3.1,0-5.9-1.7-8.5c-0.2-0.3-0.5-0.7-1-1.3l-4.1-4.6
				c-2.3-2.7-3.8-4.5-4.5-5.4c-1.8-2.4-3.6-4.9-5.3-7.5c-2.2-3.2-4-6.3-5.6-9.3l-0.5-1l-0.2-0.3l-1.7-3.4l0-0.1l-0.1-0.1l-1.6-3.5
				l-0.1-0.1l0-0.2l-0.3-0.7l-0.5-1.4c-1.8-4.1-3.3-8.2-4.6-12.3l-3.4-13.3c-0.5-2.1-0.9-4.4-1.3-6.8l-0.9-6.9
				c-0.2-2.2-0.4-4.5-0.6-6.8l-0.1-1.6l0.2-21.1l2.4-19.8l2.2-11.8c0.1-0.1,0-0.1-0.1-0.1c-0.1-0.1-0.1,0-0.1,0.1L9,154.8z"/>
		</g>
	</g>
</g>
</svg>
