<?xml version="1.0" encoding="utf-8"?>
<!-- Generator: Adobe Illustrator 23.0.0, SVG Export Plug-In . SVG Version: 6.00 Build 0)  -->
<svg version="1.1" id="Layer_1" xmlns="http://www.w3.org/2000/svg" xmlns:xlink="http://www.w3.org/1999/xlink" x="0px" y="0px"
	 viewBox="0 0 324.76 365" style="enable-background:new 0 0 324.76 365;" xml:space="preserve">
<style type="text/css">
	.st0{fill:#9A4993;}
	.st1{fill:#6A1577;}
	.st2{fill:#813084;}
	.st3{fill:#FFFFFF;}
</style>
<path id="XMLID_3_" class="st0" d="M324.74,107.31c0-6.14-1.32-11.56-3.97-16.21c-2.61-4.58-6.51-8.41-11.75-11.45
	c-43.23-24.93-86.51-49.78-129.73-74.74c-11.65-6.73-22.95-6.48-34.51,0.34C127.57,15.4,41.41,64.76,15.74,79.64
	C5.16,85.76,0.02,95.12,0.02,107.3C0,157.43,0.02,207.57,0,257.7c0,6,1.26,11.32,3.8,15.9c2.61,4.72,6.57,8.66,11.93,11.76
	c25.67,14.87,111.84,64.23,129.05,74.38c11.57,6.83,22.87,7.07,34.52,0.34c43.22-24.96,86.5-49.81,129.74-74.74
	c5.36-3.1,9.32-7.04,11.93-11.76c2.53-4.58,3.79-9.9,3.8-15.91C324.76,257.69,324.76,157.45,324.74,107.31"/>
<path id="XMLID_4_" class="st1" d="M162.88,182.01L3.8,273.61c2.61,4.72,6.57,8.66,11.93,11.76
	c25.67,14.87,111.84,64.23,129.05,74.38c11.57,6.83,22.87,7.07,34.52,0.34c43.22-24.96,86.5-49.81,129.74-74.74
	c5.36-3.1,9.32-7.04,11.93-11.76L162.88,182.01"/>
<path id="XMLID_5_" class="st1" d="M115.76,209.14c9.26,16.16,26.66,27.06,46.62,27.06c20.09,0,37.59-11.04,46.8-27.37l-46.3-26.82
	L115.76,209.14"/>
<path id="XMLID_6_" class="st2" d="M324.74,107.31c0-6.14-1.32-11.56-3.97-16.21l-157.9,90.92l158.09,91.58
	c2.53-4.58,3.79-9.9,3.8-15.91C324.76,257.69,324.76,157.45,324.74,107.31"/>
<path id="XMLID_9_" class="st3" d="M209.17,208.83c-9.21,16.33-26.71,27.37-46.8,27.37c-19.96,0-37.36-10.9-46.62-27.06
	c-4.5-7.85-7.08-16.94-7.08-26.64c0-29.66,24.04-53.7,53.7-53.7c19.83,0,37.14,10.76,46.45,26.76l46.94-27.03
	c-18.66-32.21-53.49-53.87-93.39-53.87c-59.56,0-107.85,48.29-107.85,107.85c0,19.54,5.2,37.86,14.28,53.67
	c18.61,32.38,53.54,54.18,93.56,54.18c40.1,0,75.08-21.89,93.67-54.36L209.17,208.83"/>
<g id="XMLID_32_">
	<rect id="XMLID_1_" x="257.82" y="157" class="st3" width="10.67" height="51.67"/>
	<rect id="XMLID_30_" x="281.49" y="157" class="st3" width="10.67" height="51.67"/>
	
		<rect id="XMLID_31_" x="269.65" y="145.17" transform="matrix(-1.836970e-16 1 -1 -1.836970e-16 445.9865 -103.987)" class="st3" width="10.67" height="51.67"/>
	
		<rect id="XMLID_23_" x="269.65" y="168.83" transform="matrix(-1.836970e-16 1 -1 -1.836970e-16 469.6531 -80.3204)" class="st3" width="10.67" height="51.67"/>
</g>
</svg>
