<?xml version="1.0" encoding="utf-8"?>
<!-- Generator: Adobe Illustrator 23.0.0, SVG Export Plug-In . SVG Version: 6.00 Build 0)  -->
<svg version="1.1" id="Layer_1" xmlns="http://www.w3.org/2000/svg" xmlns:xlink="http://www.w3.org/1999/xlink" x="0px" y="0px"
	 viewBox="0 0 255.05 360" style="enable-background:new 0 0 255.05 360;" xml:space="preserve">
<style type="text/css">
	.st0{fill:#1F72B5;}
	.st1{fill:#51A3DC;}
	.st2{fill:#EBEBEB;}
	.st3{fill:#CECECE;}
</style>
<g id="XMLID_2_">
	<polygon id="XMLID_11_" class="st0" points="23.21,331.09 0,70.75 255.05,70.75 231.81,331.04 127.37,360 	"/>
	<polygon id="XMLID_10_" class="st1" points="127.52,337.87 211.92,314.47 231.78,92.03 127.52,92.03 	"/>
	<polygon id="XMLID_35_" class="st2" points="44.65,152.13 41.52,122 213.52,122 211.52,156.88 138.77,189 208.52,189 201.02,288 
		130.72,306.88 57.77,289.19 53.27,239 85.52,239 87.27,265.5 129.52,273.38 168.52,261.44 170.27,219 50.52,219 48.27,187.5 
		127.52,152.75 	"/>
	<g id="XMLID_1_">
		<polygon id="XMLID_39_" class="st3" points="48.27,187.5 50.52,219 127.52,219 127.52,152.75 		"/>
		<polygon id="XMLID_40_" class="st3" points="87.27,265.5 85.52,239 53.27,239 57.77,289.19 127.52,306.1 127.52,273 		"/>
		<polygon id="XMLID_41_" class="st3" points="41.52,122 44.65,152.13 127.52,152.75 127.52,122 		"/>
	</g>
	<g id="XMLID_36_">
		<polygon id="XMLID_34_" points="151.52,12 151.52,0 103.52,0 103.52,28 136.52,28 136.52,37 102.52,37 102.52,48 150.52,48 
			150.52,19 116.52,19 116.52,12 		"/>
		<polygon id="XMLID_38_" points="64.52,28.27 64.52,37 98.52,37 98.52,48 50.52,48 50.52,19.27 50.52,0 97.52,0 97.52,12 64.52,12 
					"/>
		<polygon id="XMLID_37_" points="204.52,12 204.52,0 156.52,0 156.52,28 189.52,28 189.52,37 155.52,37 155.52,48 203.52,48 
			203.52,19 169.52,19 169.52,12 		"/>
	</g>
</g>
</svg>
