<?xml version="1.0" encoding="utf-8"?>
<!-- Generator: Adobe Illustrator 22.1.0, SVG Export Plug-In . SVG Version: 6.00 Build 0)  -->
<svg version="1.1" id="Layer_1" xmlns="http://www.w3.org/2000/svg" xmlns:xlink="http://www.w3.org/1999/xlink" x="0px" y="0px"
	 viewBox="0 0 148.5 231.6" style="enable-background:new 0 0 148.5 231.6;" xml:space="preserve">
<style type="text/css">
	.st0{fill:#A53B22;}
	.st1{fill:#B05429;}
	.st2{fill:#913A1D;}
	.st3{fill:#BC5027;}
	.st4{fill:#D46328;}
	.st5{fill:#842D1C;}
</style>
<g>
	<path class="st0" d="M41.9,171.5c0-35.6,0.1-71.1,0.1-106.7c0.2,0,0.3,0,0.5-0.1c21.1,0,42.3,0,63.4,0c0.1,0.1,0.3,0.2,0.5,0.2
		c0,35.3,0,70.6,0,105.9c-0.4,0-0.7,0-1.1,0.1c-21,0.3-41.9,0.7-62.9,1C42.2,171.7,42.1,171.6,41.9,171.5z"/>
	<path class="st1" d="M45.3,0c34.3,0,68.6,0,103.3,0c0,21.3,0,42.5,0,64.9c-14,0-28.1,0-42.1,0c-0.2,0-0.3-0.1-0.5-0.2
		c-0.7-0.9-1.3-1.9-2-2.7c-6.2-6.6-12.6-13.2-18.8-19.8C73.2,29.3,61.4,16.4,49.4,3.6c-1-1.1-2.6-1.7-4-2.6
		C45.4,0.6,45.3,0.3,45.3,0z"/>
	<path class="st2" d="M105.2,170.8c0.4,0,0.7,0,1.1-0.1c11.1,0.1,22.3,0.3,33.4,0.4c2.8,0,5.6,0,8.8,0c0,20.4,0,40.2,0,60.5
		c-35.5,0-70.9,0-106.3,0c0-0.3,0-0.5,0-0.8c1.1-0.6,2.4-1,3.3-1.9c9.1-8.7,18.1-17.5,27.3-26.2c8.3-7.8,16.9-15.4,25.1-23.3
		C100.7,176.8,102.8,173.7,105.2,170.8z"/>
	<path class="st3" d="M42.2,230.8c0,0.3,0,0.5,0,0.8c-13.9,0-27.9,0-42.2,0c0-19.9,0-39.7,0-60.1c14.1,0,28,0,41.9,0
		c0.2,0.1,0.3,0.2,0.5,0.3C42.3,191.5,42.3,211.1,42.2,230.8z"/>
	<path class="st4" d="M45.3,0c0,0.3,0.1,0.6,0.1,1c-0.7,12-1.5,24-2.1,36.1c-0.4,9.2-0.6,18.5-0.9,27.7c-0.1,0.1-0.3,0.1-0.5,0.1
		c-13.1,0-26.2,0-40.4,0C6.4,42.7,11,21.5,15.6,0C25.7,0,35.5,0,45.3,0z"/>
	<path class="st5" d="M42.5,64.7c0.3-9.2,0.4-18.5,0.9-27.7c0.6-12,1.4-24,2.1-36.1c1.3,0.9,2.9,1.5,4,2.6
		c12,12.8,23.8,25.7,35.7,38.5c6.2,6.7,12.5,13.2,18.8,19.8c0.8,0.8,1.4,1.8,2,2.7C84.8,64.7,63.7,64.7,42.5,64.7z"/>
	<path class="st5" d="M42.2,230.8c0-19.7,0.1-39.3,0.1-59c21-0.3,41.9-0.7,62.9-1c-2.4,2.9-4.5,6-7.2,8.6
		c-8.3,7.9-16.8,15.5-25.1,23.3c-9.2,8.7-18.2,17.5-27.3,26.2C44.7,229.8,43.4,230.2,42.2,230.8z"/>
</g>
</svg>
