<?xml version="1.0" encoding="utf-8"?>
<!-- Generator: Adobe Illustrator 23.0.0, SVG Export Plug-In . SVG Version: 6.00 Build 0)  -->
<svg version="1.1" id="Layer_1" xmlns="http://www.w3.org/2000/svg" xmlns:xlink="http://www.w3.org/1999/xlink" x="0px" y="0px"
	 viewBox="0 0 30 40" style="enable-background:new 0 0 30 40;" xml:space="preserve">
<style type="text/css">
	.st0{fill:#F44336;}
	.st1{fill:#1565C0;}
</style>
<g id="surface1">
	<path class="st0" d="M14.65,20.9c-1-1.61-1.72-2.95-2.72-5.46C10.23,11.2,22.24,7.37,17.37,0c2.11,5.09-7.58,8.23-8.48,12.47
		C8.07,16.37,14.64,20.9,14.65,20.9z"/>
	<path class="st0" d="M14.88,13.27c-0.19,2.52,2.23,3.86,2.3,5.7c0.06,1.5-1.45,2.74-1.45,2.74s2.73-0.54,3.58-2.82
		c0.95-2.54-1.83-4.27-1.55-6.3c0.27-1.94,6.03-5.54,6.03-5.54S15.31,7.61,14.88,13.27z"/>
	<path class="st1" d="M23.09,21.05c1.75-0.39,3.23,0.72,3.23,2.01c0,2.9-4.02,5.64-4.02,5.64s6.22-0.74,6.22-5.5
		C28.52,20.05,25.46,19.27,23.09,21.05z"/>
	<path class="st1" d="M20.13,23.39c0,0,1.94-1.38,2.46-1.9c-4.76,1.01-15.64,1.15-15.64,0.27c0-0.81,3.51-1.64,3.51-1.64
		s-7.77-0.11-7.77,2.18C2.68,24.7,12.86,24.87,20.13,23.39z"/>
	<path class="st1" d="M18.93,25.57c-4.51,1.5-12.81,1.02-10.35-0.99c-1.2,0-2.98,0.96-2.98,1.89c0,1.86,8.98,3.29,15.63,0.57
		L18.93,25.57z"/>
	<path class="st1" d="M9.69,28.74c-1.64,0-2.7,1.05-2.7,1.82c0,2.39,9.76,2.63,13.62,0.2l-2.46-1.63
		C15.27,30.4,8.02,30.58,9.69,28.74z"/>
	<path class="st1" d="M27.28,32.63c0-0.94-1.05-1.38-1.43-1.59C28.07,36.42,3.53,36,3.53,32.83c0-0.72,1.81-1.43,3.48-1.09
		l-1.42-0.84C2.26,30.38,0,31.84,0,33.02C0,38.52,27.28,38.25,27.28,32.63z"/>
	<path class="st1" d="M30,34.61c-4.14,4.09-14.66,5.59-25.23,3.05C15.34,42.16,29.95,39.63,30,34.61z"/>
</g>
</svg>
