<?xml version="1.0" encoding="utf-8"?>
<!-- Generator: Adobe Illustrator 23.0.0, SVG Export Plug-In . SVG Version: 6.00 Build 0)  -->
<svg version="1.1" id="Layer_1" xmlns="http://www.w3.org/2000/svg" xmlns:xlink="http://www.w3.org/1999/xlink" x="0px" y="0px"
	 viewBox="0 0 60.2 80" style="enable-background:new 0 0 60.2 80;" xml:space="preserve">
<style type="text/css">
	.st0{fill-opacity:0;}
	.st1{fill:#0072C6;}
	.st2{opacity:0.15;fill:#FFFFFF;enable-background:new    ;}
	.st3{fill:#FFFFFF;}
	.st4{fill:#7FBA00;}
	.st5{fill:#B8D432;}
</style>
<title>3 - secure-sql-server</title>
<g id="Shapes">
	<g>
		<rect y="0" class="st0" width="60.2" height="80"/>
		<path class="st1" d="M0,10.95v58.11C0,75.01,13.52,80,30.1,80V10.95H0z"/>
		<path class="st1" d="M29.62,80h0.48c16.74,0,30.1-4.83,30.1-10.95V10.95H29.62V80z"/>
		<path class="st2" d="M29.62,80h0.48c16.74,0,30.1-4.83,30.1-10.95V10.95H29.62V80z"/>
		<path class="st3" d="M60.2,10.95c0,5.96-13.52,10.94-30.1,10.94S0,17.06,0,10.95C0,4.99,13.52,0,30.1,0S60.2,4.99,60.2,10.95z"/>
		<path class="st4" d="M54.08,10.47c0,3.86-10.78,7.08-23.98,7.08S6.12,14.33,6.12,10.47c0-4.02,10.78-7.24,23.98-7.24
			S54.08,6.45,54.08,10.47z"/>
		<path class="st5" d="M49.09,14.81c3.22-1.29,4.99-2.74,4.99-4.35c0-4.02-10.78-7.24-23.98-7.24S6.12,6.44,6.12,10.47
			c0,1.61,1.93,3.22,4.99,4.35c4.35-1.77,11.27-2.74,18.99-2.74C37.83,11.91,44.75,13.04,49.09,14.81z"/>
		<path class="st3" d="M8.83,52.47V48.7c0.66,0.56,1.41,1,2.23,1.3c0.78,0.28,1.6,0.42,2.43,0.42c0.42,0.01,0.84-0.04,1.25-0.13
			c0.32-0.07,0.62-0.19,0.9-0.35c0.22-0.14,0.41-0.32,0.54-0.54c0.12-0.21,0.18-0.44,0.18-0.68c0-0.32-0.1-0.63-0.28-0.88
			c-0.21-0.28-0.48-0.53-0.78-0.72c-0.37-0.24-0.75-0.46-1.15-0.64c-0.45-0.2-0.93-0.41-1.45-0.62c-1.14-0.42-2.15-1.11-2.96-2.02
			C9.08,43.02,8.73,42,8.76,40.96c-0.06-1.53,0.69-2.99,1.97-3.83c0.65-0.42,1.37-0.73,2.12-0.9c0.83-0.2,1.69-0.3,2.55-0.3
			c0.78-0.01,1.56,0.05,2.34,0.17c0.64,0.09,1.28,0.25,1.89,0.48v3.53c-0.29-0.2-0.6-0.38-0.93-0.52c-0.33-0.15-0.67-0.27-1.03-0.37
			c-0.67-0.19-1.36-0.29-2.05-0.3c-0.4,0-0.79,0.04-1.18,0.13c-0.32,0.06-0.62,0.18-0.9,0.34c-0.23,0.13-0.42,0.32-0.57,0.54
			c-0.14,0.21-0.2,0.45-0.2,0.7c0,0.27,0.07,0.54,0.22,0.77c0.18,0.25,0.39,0.46,0.64,0.64c0.32,0.22,0.65,0.42,1,0.59
			c0.39,0.19,0.84,0.39,1.33,0.59c0.63,0.26,1.23,0.56,1.82,0.91c0.51,0.29,0.98,0.65,1.39,1.07c0.38,0.4,0.68,0.87,0.88,1.38
			c0.48,1.37,0.39,2.87-0.24,4.17c-0.35,0.63-0.85,1.17-1.45,1.56c-0.66,0.41-1.39,0.7-2.15,0.85c-0.85,0.18-1.71,0.26-2.57,0.26
			c-0.89,0-1.78-0.08-2.65-0.24C10.24,53.05,9.51,52.81,8.83,52.47z M30.28,53.42c-2.22,0.08-4.37-0.77-5.92-2.36
			c-1.56-1.67-2.38-3.89-2.29-6.17c-0.1-2.38,0.73-4.71,2.32-6.48c1.6-1.68,3.84-2.58,6.15-2.48c2.2-0.09,4.33,0.78,5.85,2.37
			c1.54,1.7,2.35,3.95,2.25,6.24c0.1,2.36-0.73,4.67-2.32,6.43c-0.05,0.06-0.11,0.11-0.15,0.17s-0.1,0.09-0.15,0.14l4.28,4.11h-5.33
			l-2.24-2.28C31.93,53.32,31.11,53.42,30.28,53.42z M30.45,39.21c-1.24-0.04-2.43,0.52-3.18,1.51c-0.83,1.15-1.25,2.55-1.18,3.97
			c-0.08,1.42,0.34,2.82,1.18,3.97c0.74,0.95,1.89,1.5,3.09,1.46c1.21,0.05,2.37-0.48,3.12-1.42c0.83-1.14,1.24-2.54,1.16-3.95
			c0.08-1.45-0.31-2.89-1.12-4.09C32.8,39.71,31.65,39.16,30.45,39.21L30.45,39.21z M51.53,53.12H41.46V36.22h3.81v13.82h6.26V53.12
			z"/>
	</g>
</g>
</svg>
